<?xml version="1.0" encoding="utf-8"?>
<!-- Generator: Adobe Illustrator 20.1.0, SVG Export Plug-In . SVG Version: 6.00 Build 0)  -->
<svg version="1.1" id="Layer_1" xmlns="http://www.w3.org/2000/svg" xmlns:xlink="http://www.w3.org/1999/xlink" x="0px" y="0px"
	 viewBox="0 0 1728 5184" style="enable-background:new 0 0 1728 5184;" xml:space="preserve">
<style type="text/css">
	.st0{fill:#010101;}
</style>
<g>
	<path class="st0" d="M151.4,198.4h44.8l0-44.1c0-33.1,20.2-59.5,52.9-59.5c32.4,0,52.9,23.1,52.9,59.5l0,44.1h44.8v-44.8
		c-0.3-63.8-43.8-98.5-96.7-98.5c-52.9,0-100.3,36.4-98.6,98.5L151.4,198.4z"/>
	<path class="st0" d="M353.2,205.7c-1.3,0-2.5,0-3.4,0c-1.9,0-3,0-3,0H302H196.2h-45.4c-0.5,0-1.3,0-2.6,0c-4.2,0-32,4.9-32,29.7
		v119.1c0,26.5,31.3,33.1,32,33.1c55.7,0,147.7,0,203.5,0c0.7,0,30.4-3.3,30.4-33.1V237C382.1,208.9,354,205.7,353.2,205.7z"/>
</g>
</svg>
