<?xml version="1.0" encoding="UTF-8" standalone="no"?>
<!-- Generator: Adobe Illustrator 20.1.0, SVG Export Plug-In . SVG Version: 6.00 Build 0)  -->

<svg
   xmlns:dc="http://purl.org/dc/elements/1.1/"
   xmlns:cc="http://creativecommons.org/ns#"
   xmlns:rdf="http://www.w3.org/1999/02/22-rdf-syntax-ns#"
   xmlns:svg="http://www.w3.org/2000/svg"
   xmlns="http://www.w3.org/2000/svg"
   xmlns:sodipodi="http://sodipodi.sourceforge.net/DTD/sodipodi-0.dtd"
   xmlns:inkscape="http://www.inkscape.org/namespaces/inkscape"
   version="1.1"
   id="Layer_1"
   x="0px"
   y="0px"
   viewBox="0 0 1080 1620"
   xml:space="preserve"
   inkscape:version="0.91 r13725"
   sodipodi:docname="demilitarize-the-police-3up-12x18.svg"
   width="12in"
   height="18in"><metadata
     id="metadata223"><rdf:RDF><cc:Work
         rdf:about=""><dc:format>image/svg+xml</dc:format><dc:type
           rdf:resource="http://purl.org/dc/dcmitype/StillImage" /><dc:title></dc:title></cc:Work></rdf:RDF></metadata><defs
     id="defs221" /><sodipodi:namedview
     pagecolor="#ffffff"
     bordercolor="#666666"
     borderopacity="1"
     objecttolerance="10"
     gridtolerance="10"
     guidetolerance="10"
     inkscape:pageopacity="0"
     inkscape:pageshadow="2"
     inkscape:window-width="988"
     inkscape:window-height="595"
     id="namedview219"
     showgrid="false"
     units="in"
     inkscape:zoom="0.15150347"
     inkscape:cx="436"
     inkscape:cy="647.99994"
     inkscape:window-x="0"
     inkscape:window-y="0"
     inkscape:window-maximized="0"
     inkscape:current-layer="Layer_1" /><style
     type="text/css"
     id="style3">
	.st0{fill:none;stroke:#000000;}
</style><g
     id="g4351"
     transform="matrix(1.1764644,0,0,1.2490646,27.061437,-404.07247)"><path
       style="fill:none;stroke:#000000"
       d="m 472.3,1092.5001 -27.7,0 0,-132.10004 27.7,0 0,132.10004 0,0 z"
       class="st0"
       inkscape:connector-curvature="0"
       id="path146" /><g
       transform="matrix(2.1142015,0,0,2.1142015,252.49627,933.4654)"
       id="g148"><path
         style="fill:none;stroke:#000000"
         d="m -41.8,17.6 c -3.7,-3.2 -8.7,-4.8 -15,-4.8 l -27.1,0 0,62.5 13.1,0 0,-21.9 0,-0.6 0,-10.8 0,-0.6 0,-17.8 11.9,0 c 3,0 5.4,0.7 7,2.1 1.7,1.4 2.5,3.7 2.5,7 0,3.3 -0.8,5.6 -2.5,7.1 -1.7,1.5 -4,2.2 -7,2.2 l -10.1,0 0,10.8 11.3,0 c 6.9,0 12.1,-1.5 15.8,-4.6 3.7,-3.1 5.5,-8.3 5.5,-15.7 0.1,-6.7 -1.7,-11.7 -5.4,-14.9"
         class="st0"
         inkscape:connector-curvature="0"
         id="path150" /></g><g
       transform="matrix(2.1142015,0,0,2.1142015,511.40245,811.4819)"
       id="g152"><path
         style="fill:none;stroke:#000000"
         d="m -107.8,101.6 c 0,7 -1.5,12.5 -4.6,16.3 -3.1,3.8 -7.2,5.7 -12.5,5.7 -5.3,0 -9.4,-1.9 -12.5,-5.7 -0.7,-0.9 -1.4,-1.9 -1.9,-2.9 l -14,0 c 1.6,5 4.2,9.1 7.7,12.4 4.8,4.9 11.7,7.3 20.7,7.3 9,0 15.9,-2.4 20.7,-7.3 6.4,-6 9.6,-14.6 9.6,-25.8 0,-3.1 -0.2,-6 -0.7,-8.7 l -13.5,0 c 0.7,2.5 1,5.4 1,8.7"
         class="st0"
         inkscape:connector-curvature="0"
         id="path154" /></g><g
       transform="matrix(2.1142015,0,0,2.1142015,354.45597,811.4819)"
       id="g156"><path
         style="fill:none;stroke:#000000"
         d="m -67.8,101.6 c 0,-7 1.6,-12.5 4.7,-16.3 3.1,-3.8 7.3,-5.7 12.5,-5.7 5.2,0 9.4,1.9 12.5,5.7 1.3,1.7 2.4,3.6 3.1,5.9 l 13.6,0 c -1.4,-6.4 -4.2,-11.6 -8.5,-15.4 -4.8,-4.9 -11.7,-7.3 -20.7,-7.3 -9,0 -15.9,2.4 -20.7,7.3 -6.4,5.7 -9.6,14.3 -9.6,25.8 0,4.4 0.5,8.3 1.5,11.9 l 13.7,0 c -1.4,-3.3 -2.1,-7.2 -2.1,-11.9"
         class="st0"
         inkscape:connector-curvature="0"
         id="path158" /></g><g
       transform="matrix(2.1142015,0,0,2.1142015,1647.8693,1202.9054)"
       id="g160"><path
         style="fill:none;stroke:#000000"
         d="m -397.3,-168.1 -16.9,91.3 c -0.4,1.8 -1.7,2.6 -3.8,2.4 -2.3,-0.2 -3.3,-1.2 -3.1,-3 l 0.4,-92.5 c 0.2,-2.2 1.4,-4 3.7,-5.3 2.2,-1.3 5,-1.8 8.2,-1.6 3.3,0.3 6.9,0.8 8.9,2.5 1.9,1.7 2.8,3.8 2.6,6.2"
         class="st0"
         inkscape:connector-curvature="0"
         id="path162" /></g><g
       transform="matrix(2.1142015,0,0,2.1142015,1495.9998,649.86092)"
       id="g164"><path
         style="fill:none;stroke:#000000"
         d="m -358.6,212.9 5.2,-8.6 -6.5,-7.7 9.8,2 5.5,-8.2 1.1,10 9.7,2.8 -9.1,4 0.3,9.9 -6.5,-7.7 -9.5,3.5 z"
         class="st0"
         inkscape:connector-curvature="0"
         id="path166" /></g><g
       transform="matrix(2.1142015,0,0,2.1142015,1495.9998,649.86092)"
       id="g168"><path
         style="fill:none;stroke:#000000"
         d="m -358.6,212.9 5.2,-8.6 -6.5,-7.7 9.8,2 5.5,-8.2 1.1,10 9.7,2.8 -9.1,4 0.3,9.9 -6.5,-7.7 -9.5,3.5 z"
         class="st0"
         inkscape:connector-curvature="0"
         id="path170" /></g><g
       transform="matrix(2.1142015,0,0,2.1142015,1325.4227,792.82555)"
       id="g172"><path
         style="fill:none;stroke:#000000"
         d="m -315.2,114.4 0,0 29.4,0 0,-10.9 -30.7,0 0,-11.5 -12.9,0 0,22.5 12.9,0 1.3,0 z"
         class="st0"
         inkscape:connector-curvature="0"
         id="path174" /></g><g
       transform="matrix(2.1142015,0,0,2.1142015,1322.9533,904.59345)"
       id="g176"><path
         style="fill:none;stroke:#000000"
         d="m -314.5,37.4 0.3,0 32.4,0 0,-11 -46.3,0 0,11.1 12.9,0 0.7,0 z"
         class="st0"
         inkscape:connector-curvature="0"
         id="path178" /></g><g
       transform="matrix(2.1142015,0,0,2.1142015,1319.6086,718.37838)"
       id="g180"><path
         style="fill:none;stroke:#000000"
         d="m -313.7,165.7 0,-14.2 -12.9,0 0,25.5 47.9,0 0,-11.2 -35,0 z"
         class="st0"
         inkscape:connector-curvature="0"
         id="path182" /></g><path
       style="fill:none;stroke:#000000"
       d="m 518.2,1028.0001 c 0,-14.8 2.9,-26.3 8.6,-34.40004 5.7,-8.1 13.6,-12.2 23.5,-12.2 9.8,0 17.1,2.9 22.1,8.6 2.8,3.2 5.1,8 6.8,14.40004 l 27.9,0 c -0.4,-8.30004 -3.5,-16.50004 -9.1,-24.70004 -10.3,-14.6 -26.5,-21.9 -48.8,-21.9 -16.6,0 -30.3,5.4 -41.1,16.3 -12.4,12.5 -18.6,30.30004 -18.6,53.40004 0,9 1,17.2 2.9,24.6 l 29.6,0 c -2.5,-6.4 -3.8,-14.5 -3.8,-24.1 z"
       class="st0"
       inkscape:connector-curvature="0"
       id="path186" /><g
       transform="matrix(2.1142015,0,0,2.1142015,1137.1595,731.34034)"
       id="g188"><path
         style="fill:none;stroke:#000000"
         d="m -267.2,156.8 c -2.4,3 -5.8,4.5 -10.4,4.5 -4.4,0 -8.1,-1.7 -10.9,-5.2 -0.7,-0.8 -1.2,-1.7 -1.7,-2.7 l -14.2,0 c 1.3,4.1 3.2,7.6 5.9,10.5 5.1,5.8 12.2,8.7 21.2,8.7 7.3,0 13.2,-2.1 17.9,-6.4 4.7,-4.3 7.5,-9.8 8.7,-16.6 l -13.1,0 c -1,3.2 -2.1,5.6 -3.4,7.2"
         class="st0"
         inkscape:connector-curvature="0"
         id="path190" /></g><path
       style="fill:none;stroke:#000000"
       d="m 359.5,960.40006 -27.9,0 0,104.40004 27.9,0 0,-104.40004 z"
       class="st0"
       inkscape:connector-curvature="0"
       id="path192" /><g
       transform="matrix(2.1142015,0,0,2.1142015,692.04067,718.37838)"
       id="g194"><path
         style="fill:none;stroke:#000000"
         d="m -153.8,165.7 -1.2,0 -2.3,0 -13.2,0 0,11.3 44.8,0 0,-11.2 -28.1,0 z"
         class="st0"
         inkscape:connector-curvature="0"
         id="path196" /></g><g
       transform="matrix(2.1142015,0,0,2.1142015,92.591179,1071.9786)"
       id="g198"><path
         style="fill:none;stroke:#000000"
         d="m -1.1,-77.9 -7.1,0 0,-25.8 15.1,0 c 2.2,0 4,0.3 5.4,0.8 2.5,0.8 4.5,2.3 6,4.4 1.2,1.7 2.1,3.6 2.5,5.6 0.4,2 0.7,3.9 0.7,5.8 0,4.6 -0.9,8.6 -2.8,11.8 -2.5,4.3 -6.5,6.5 -11.8,6.5 l -15.1,0 0,-6.2 7.1,0.1 6.8,0 c 3.5,0 5.9,-1.7 7.3,-5.1 0.7,-1.9 1.1,-4.1 1.1,-6.6 0,-3.5 -0.6,-6.3 -1.7,-8.2 -1.1,-1.9 -3.4,-2.9 -6.7,-2.9 l -6.8,0 0,19.8"
         class="st0"
         inkscape:connector-curvature="0"
         id="path200" /></g><path
       style="fill:none;stroke:#000000"
       d="m 306.7,926.30006 -15.5,0 0,-73.6 15.5,0 0,73.6 z"
       class="st0"
       inkscape:connector-curvature="0"
       id="path202" /><g
       transform="matrix(2.1142015,0,0,2.1142015,584.27939,1191.784)"
       id="g204"><path
         style="fill:none;stroke:#000000"
         d="m -126.4,-160.4 7.4,0 0,28.6 17.6,0 0,6.3 -24.9,0 0,-34.9 z"
         class="st0"
         inkscape:connector-curvature="0"
         id="path206" /></g><path
       style="fill:none;stroke:#000000"
       d="m 390.3,926.30006 -15.5,0 0,-73.6 15.5,0 0,73.6 z"
       class="st0"
       inkscape:connector-curvature="0"
       id="path208" /><g
       transform="matrix(2.1142015,0,0,2.1142015,882.7019,1191.784)"
       id="g210"><path
         style="fill:none;stroke:#000000"
         d="m -202.4,-160.4 0,6.2 -10.5,0 0,28.7 -7.4,0 0,-28.7 -10.6,0 0,-6.2 28.5,0 z"
         class="st0"
         inkscape:connector-curvature="0"
         id="path212" /></g><path
       style="fill:none;stroke:#000000"
       d="m 607.4,926.30006 -15.4,0 0,-73.6 15.5,0 0,73.6 z"
       class="st0"
       inkscape:connector-curvature="0"
       id="path214" /><g
       transform="matrix(2.1142015,0,0,2.1142015,249.20108,1059.4875)"
       id="g216"><path
         style="fill:none;stroke:#000000"
         d="m -41,-69.3 -0.6,0 -7.2,0 0,6.3 26.7,0 0,-6.3 -18.9,0 z"
         class="st0"
         inkscape:connector-curvature="0"
         id="path218" /></g><g
       transform="matrix(2.1142015,0,0,2.1142015,246.67186,1163.2237)"
       id="g220"><path
         style="fill:none;stroke:#000000"
         d="m -40.4,-140.7 18.6,0 0,-6.2 -25.8,0 0,11.6 7.2,0 0,-5.4 z"
         class="st0"
         inkscape:connector-curvature="0"
         id="path222" /></g><g
       transform="matrix(2.1142015,0,0,2.1142015,213.7345,1128.9734)"
       id="g224"><path
         style="fill:none;stroke:#000000"
         d="m -32,-117.1 0,12.5 7.2,0 0,-6.4 17.1,0 0,-6 -15.8,0 -1.3,0 -7.2,0 z"
         class="st0"
         inkscape:connector-curvature="0"
         id="path226" /></g><g
       transform="matrix(2.1142015,0,0,2.1142015,477.57099,1165.85)"
       id="g228"><path
         style="fill:none;stroke:#000000"
         d="m -99.2,-142.6 c 0,0.7 0,1.6 0,2.8 0,1.2 0,2.2 0,2.8 l 0,4.5 6.9,0 0,-15.7 -10.7,0 -3.7,15.7 5.1,0 2.4,-10.1 z"
         class="st0"
         inkscape:connector-curvature="0"
         id="path230" /></g><path
       style="fill:none;stroke:#000000"
       d="m 267.8,926.30006 14.5,0 0,-36.2 -14.5,0 0,36.2 z"
       class="st0"
       inkscape:connector-curvature="0"
       id="path232" /><path
       style="fill:none;stroke:#000000"
       d="m 210.3,926.30006 14.5,0 0,-36.2 -14.5,0 0,36.2 z"
       class="st0"
       inkscape:connector-curvature="0"
       id="path234" /><g
       transform="matrix(2.1142015,0,0,2.1142015,384.12096,1139.5878)"
       id="g236"><path
         style="fill:none;stroke:#000000"
         d="m -75.4,-124.5 c 0,-0.7 0,-1.6 0,-2.8 0,-1.2 0,-2.2 0,-2.8 l 2.3,10.1 5.3,0 -3.7,-15.7 -10.7,0 0,15.7 6.9,0 0,-4.5 z"
         class="st0"
         inkscape:connector-curvature="0"
         id="path238" /></g><g
       transform="matrix(2.1142015,0,0,2.1142015,431.11945,1064.9588)"
       id="g240"><path
         style="fill:none;stroke:#000000"
         d="m -87.3,-73 -2.3,-9.7 -5.3,0 3.9,17.1 7.1,0 3.9,-17.1 -5.1,0 -2.2,9.7 z"
         class="st0"
         inkscape:connector-curvature="0"
         id="path242" /></g><g
       transform="matrix(2.1142015,0,0,2.1142015,941.74668,1154.9075)"
       id="g244"><path
         style="fill:none;stroke:#000000"
         d="m -217.4,-135 3.9,11.9 7.5,0 -7.1,-19.8 -8.3,0 -7.2,19.8 7.3,0 3.9,-11.9 z"
         class="st0"
         inkscape:connector-curvature="0"
         id="path246" /></g><g
       transform="matrix(2.1142015,0,0,2.1142015,996.67253,1091.44)"
       id="g248"><path
         style="fill:none;stroke:#000000"
         d="m -231.4,-91.3 -7.5,0 -9,0 -7.3,0 -4.7,13.2 7.7,0 2.4,-7.2 13,0 2.3,7.2 8,0 -4.9,-13.2 z"
         class="st0"
         inkscape:connector-curvature="0"
         id="path250" /></g><g
       transform="matrix(2.1142015,0,0,2.1142015,1063.4929,1120.438)"
       id="g252"><path
         style="fill:none;stroke:#000000"
         d="m -248.4,-111.3 -7.2,0 0,19.4 7.2,0 0,-13.1 0,-0.5 0,-5.8 z"
         class="st0"
         inkscape:connector-curvature="0"
         id="path254" /></g><g
       transform="matrix(2.1142015,0,0,2.1142015,1155.7537,1043.7312)"
       id="g256"><path
         style="fill:none;stroke:#000000"
         d="m -271.9,-58.4 c -0.1,-0.6 -0.2,-1.6 -0.2,-3.2 l 0,-2.4 c 0,-2.4 -0.3,-4.3 -1,-5.4 -0.7,-1.2 -1.8,-2.1 -3.5,-2.8 1.9,-0.7 3.3,-1.8 4.2,-3.4 0.8,-1.6 1.3,-3.2 1.3,-4.9 0,-1.4 -0.2,-2.6 -0.7,-3.7 -0.4,-1.1 -1,-2 -1.8,-2.9 -0.9,-1.1 -2,-1.9 -3.3,-2.4 -1.3,-0.6 -3.1,-0.9 -5.6,-0.9 l -16.8,0 0,13.5 7.2,0 0,-7.5 8.1,0 c 1.5,0 2.6,0.2 3.4,0.6 1.3,0.7 2,2.1 2,4.3 0,2 -0.7,3.3 -2.1,3.9 -0.8,0.4 -2,0.6 -3.5,0.6 l -6.9,0 0,5.8 6.2,0 c 2,0 3.4,0.4 4.2,1.1 0.7,0.7 1.1,2.2 1.2,4.4 l 0,3.2 c 0,1 0.1,2 0.3,3 0.1,0.5 0.3,1.1 0.5,1.9 l 8.1,0 0,-0.9 c -0.7,-0.4 -1.1,-1 -1.3,-1.9"
         class="st0"
         inkscape:connector-curvature="0"
         id="path258" /></g><g
       transform="matrix(2.1142015,0,0,2.1142015,1224.5851,1058.6771)"
       id="g260"><path
         style="fill:none;stroke:#000000"
         d="m -289.5,-68.7 0,6.1 27.2,0 0,-6.1 -15.7,0 0,0.1 -11.5,0 z"
         class="st0"
         inkscape:connector-curvature="0"
         id="path262" /></g><g
       transform="matrix(2.1142015,0,0,2.1142015,1300.6345,1155.1386)"
       id="g264"><path
         style="fill:none;stroke:#000000"
         d="m -308.8,-135.2 -15.3,19.1 8.9,0 15.2,-19.1 -8.8,0 z"
         class="st0"
         inkscape:connector-curvature="0"
         id="path266" /></g><g
       transform="matrix(2.1142015,0,0,2.1142015,1347.6837,1163.2237)"
       id="g268"><path
         style="fill:none;stroke:#000000"
         d="m -320.8,-140.7 0.3,-0.3 0,-5.8 -26.7,0 0,6.2 15.5,0 2.1,0 8.8,0 z"
         class="st0"
         inkscape:connector-curvature="0"
         id="path270" /></g><g
       transform="matrix(2.1142015,0,0,2.1142015,1400.3468,1059.4875)"
       id="g272"><path
         style="fill:none;stroke:#000000"
         d="m -334.2,-69.3 -0.6,0 -7.2,0 0,6.3 26.7,0 0,-6.3 -18.9,0 z"
         class="st0"
         inkscape:connector-curvature="0"
         id="path274" /></g><g
       transform="matrix(2.1142015,0,0,2.1142015,1397.8176,1163.2237)"
       id="g276"><path
         style="fill:none;stroke:#000000"
         d="m -333.6,-140.7 18.6,0 0,-6.2 -25.8,0 0,11.6 7.2,0 0,-5.4 z"
         class="st0"
         inkscape:connector-curvature="0"
         id="path278" /></g><g
       transform="matrix(2.1142015,0,0,2.1142015,1364.8802,1128.9734)"
       id="g280"><path
         style="fill:none;stroke:#000000"
         d="m -325.2,-117.1 0,12.5 7.2,0 0,-6.4 17.1,0 0,-6 -15.8,0 -1.3,0 -7.2,0 z"
         class="st0"
         inkscape:connector-curvature="0"
         id="path282" /></g><g
       transform="matrix(0.98963362,0,0,0.97926537,11.496568,1191.8756)"
       id="g6178"><path
         style="fill:none;stroke:#000000"
         d="m 465.7,-526 -28,0 0,-135 28,0 0,135 0,0 z"
         class="st0"
         inkscape:connector-curvature="0"
         id="path6180" /><g
         transform="matrix(2.1142015,0,0,2.1142015,252.49627,609.46534)"
         id="g6182"><path
           style="fill:none;stroke:#000000"
           d="m -46.5,-596 c -3.8,-3.3 -8.8,-4.9 -15.1,-4.9 l -27.4,0 0,63.9 13.3,0 0,-22.3 0,-0.6 0,-11 0,-0.6 0,-18.2 12,0 c 3,0 5.4,0.7 7.1,2.1 1.7,1.4 2.5,3.8 2.5,7.1 0,3.3 -0.8,5.7 -2.5,7.3 -1.7,1.5 -4.1,2.3 -7.1,2.3 l -10.3,0 0,11 11.5,0 c 6.9,0 12.3,-1.6 16,-4.7 3.7,-3.1 5.6,-8.4 5.6,-16 0,-7 -1.9,-12.1 -5.6,-15.4"
           class="st0"
           inkscape:connector-curvature="0"
           id="path6184" /></g><g
         transform="matrix(2.1142015,0,0,2.1142015,511.40245,487.48184)"
         id="g6186"><path
           style="fill:none;stroke:#000000"
           d="m -111.9,-511.4 c 0,7.2 -1.6,12.7 -4.7,16.6 -3.1,3.9 -7.3,5.8 -12.6,5.8 -5.3,0 -9.5,-1.9 -12.6,-5.8 -0.7,-0.9 -1.4,-1.9 -1.9,-3 l -14.1,0 c 1.6,5.1 4.2,9.3 7.8,12.7 4.8,5 11.8,7.5 20.9,7.5 9.1,0 16.1,-2.5 20.9,-7.5 6.4,-6.1 9.7,-14.9 9.7,-26.3 0,-3.2 -0.2,-6.1 -0.7,-8.9 l -13.6,0 c 0.6,2.6 0.9,5.6 0.9,8.9"
           class="st0"
           inkscape:connector-curvature="0"
           id="path6188" /></g><g
         transform="matrix(2.1142015,0,0,2.1142015,354.45597,487.48184)"
         id="g6190"><path
           style="fill:none;stroke:#000000"
           d="m -72.3,-511.4 c 0,-7.2 1.6,-12.7 4.7,-16.6 3.1,-3.9 7.4,-5.8 12.6,-5.8 5.2,0 9.5,2 12.6,5.9 1.3,1.7 2.4,3.7 3.2,6 l 13.8,0 c -1.4,-6.6 -4.3,-11.8 -8.6,-15.7 -4.8,-5 -11.8,-7.5 -20.9,-7.5 -9.1,0 -16.1,2.5 -20.9,7.5 -6.5,5.9 -9.7,14.6 -9.7,26.3 0,4.5 0.5,8.5 1.5,12.1 l 13.9,0 c -1.5,-3.4 -2.2,-7.4 -2.2,-12.2"
           class="st0"
           inkscape:connector-curvature="0"
           id="path6192" /></g><g
         transform="matrix(2.1142015,0,0,2.1142015,1647.8693,878.90532)"
         id="g6194"><path
           style="fill:none;stroke:#000000"
           d="m -398.8,-782.8 -17.1,93.2 c -0.4,1.8 -1.7,2.7 -3.9,2.5 -2.3,-0.2 -3.3,-1.2 -3.2,-3.1 l 0.5,-94.5 c 0.2,-2.3 1.4,-4.1 3.7,-5.4 2.3,-1.3 5,-1.9 8.3,-1.6 3.3,0.3 7,0.8 9,2.6 2,1.6 2.9,3.8 2.7,6.3"
           class="st0"
           inkscape:connector-curvature="0"
           id="path6196" /></g><g
         transform="matrix(2.1142015,0,0,2.1142015,1495.9998,325.86086)"
         id="g6198"><path
           style="fill:none;stroke:#000000"
           d="m -360.5,-399.3 5.2,-8.8 -6.6,-7.8 9.9,2.1 5.6,-8.4 1.1,10.2 9.8,2.9 -9.2,4 0.3,10.1 -6.6,-7.8 -9.5,3.5 z"
           class="st0"
           inkscape:connector-curvature="0"
           id="path6200" /></g><g
         transform="matrix(2.1142015,0,0,2.1142015,1495.9998,325.86086)"
         id="g6202"><path
           style="fill:none;stroke:#000000"
           d="m -360.5,-399.3 5.2,-8.8 -6.6,-7.8 9.9,2.1 5.6,-8.4 1.1,10.2 9.8,2.9 -9.2,4 0.3,10.1 -6.6,-7.8 -9.5,3.5 z"
           class="st0"
           inkscape:connector-curvature="0"
           id="path6204" /></g><g
         transform="matrix(2.1142015,0,0,2.1142015,1325.4227,468.82549)"
         id="g6206"><path
           style="fill:none;stroke:#000000"
           d="m -317.4,-498.4 0,0 29.7,0 0,-11.1 -31,0 0,-11.8 -13,0 0,22.9 13,0 1.3,0 z"
           class="st0"
           inkscape:connector-curvature="0"
           id="path6208" /></g><g
         transform="matrix(2.1142015,0,0,2.1142015,1322.9533,580.59339)"
         id="g6210"><path
           style="fill:none;stroke:#000000"
           d="m -316.8,-576 0.3,0 32.7,0 0,-11.3 -46.8,0 0,11.3 13,0 0.8,0 z"
           class="st0"
           inkscape:connector-curvature="0"
           id="path6212" /></g><g
         transform="matrix(2.1142015,0,0,2.1142015,1319.6086,394.37832)"
         id="g6214"><path
           style="fill:none;stroke:#000000"
           d="m -315.9,-446.8 0,-14.5 -13,0 0,26 48.4,0 0,-11.5 -35.4,0 z"
           class="st0"
           inkscape:connector-curvature="0"
           id="path6216" /></g><g
         transform="matrix(2.1142015,0,0,2.1142015,1019.9494,483.75302)"
         id="g6218"><path
           style="fill:none;stroke:#000000"
           d="m -240.3,-508.8 c 0,-7.2 1.4,-12.7 4.1,-16.6 2.7,-3.9 6.5,-5.9 11.2,-5.9 4.7,0 8.2,1.4 10.6,4.2 1.3,1.6 2.4,3.9 3.3,6.9 l 13.3,0 c -0.2,-4 -1.7,-8 -4.4,-11.9 -4.9,-7 -12.7,-10.6 -23.3,-10.6 -7.9,0 -14.5,2.6 -19.6,7.9 -5.9,6 -8.9,14.6 -8.9,25.8 0,4.4 0.5,8.3 1.4,11.9 l 14.1,0 c -1.1,-3.2 -1.8,-7 -1.8,-11.7"
           class="st0"
           inkscape:connector-curvature="0"
           id="path6220" /></g><g
         transform="matrix(2.1142015,0,0,2.1142015,1137.1595,407.34028)"
         id="g6222"><path
           style="fill:none;stroke:#000000"
           d="m -269.9,-455.8 c -2.4,3.1 -5.9,4.6 -10.5,4.6 -4.5,0 -8.1,-1.8 -11,-5.3 -0.7,-0.8 -1.2,-1.7 -1.7,-2.7 l -14.4,0 c 1.3,4.2 3.3,7.7 5.9,10.7 5.2,5.9 12.3,8.8 21.4,8.8 7.3,0 13.4,-2.2 18.1,-6.5 4.7,-4.4 7.6,-10 8.8,-17 l -13.3,0 c -0.8,3.3 -1.9,5.8 -3.3,7.4"
           class="st0"
           inkscape:connector-curvature="0"
           id="path6224" /></g><path
         style="fill:none;stroke:#000000"
         d="m 351.7,-661 -28.2,0 0,106.6 28.2,0 0,-106.6 z"
         class="st0"
         inkscape:connector-curvature="0"
         id="path6226" /><g
         transform="matrix(2.1142015,0,0,2.1142015,692.04067,394.37832)"
         id="g6228"><path
           style="fill:none;stroke:#000000"
           d="m -157.5,-446.8 -1.2,0 -2.3,0 -13.3,0 0,11.5 45.2,0 0,-11.5 -28.4,0 z"
           class="st0"
           inkscape:connector-curvature="0"
           id="path6230" /></g><g
         transform="matrix(2.1142015,0,0,2.1142015,92.591179,747.97853)"
         id="g6232"><path
           style="fill:none;stroke:#000000"
           d="m -6.2,-692 -7.2,0 0,-26.4 15.4,0 c 2.2,0 4,0.3 5.5,0.8 2.5,0.8 4.5,2.3 6.1,4.5 1.2,1.8 2.1,3.7 2.5,5.7 0.5,2.1 0.7,4 0.7,5.9 0,4.7 -1,8.7 -2.8,12 -2.6,4.4 -6.6,6.6 -11.9,6.6 l -15.3,0 0,-6.3 7.2,0.1 6.9,0 c 3.5,0 6,-1.7 7.3,-5.2 0.8,-1.9 1.1,-4.2 1.1,-6.8 0,-3.6 -0.6,-6.4 -1.7,-8.3 -1.1,-1.9 -3.4,-2.9 -6.8,-2.9 l -6.9,0 0,20.3"
           class="st0"
           inkscape:connector-curvature="0"
           id="path6234" /></g><path
         style="fill:none;stroke:#000000"
         d="m 298.3,-695.8 -15.6,0 0,-75.2 15.6,0 0,75.2 z"
         class="st0"
         inkscape:connector-curvature="0"
         id="path6236" /><g
         transform="matrix(2.1142015,0,0,2.1142015,584.27939,867.78398)"
         id="g6238"><path
           style="fill:none;stroke:#000000"
           d="m -130.3,-775.1 7.4,0 0,29.2 17.8,0 0,6.4 -25.2,0 0,-35.6 z"
           class="st0"
           inkscape:connector-curvature="0"
           id="path6240" /></g><path
         style="fill:none;stroke:#000000"
         d="m 382.8,-695.8 -15.6,0 0,-75.2 15.6,0 0,75.2 z"
         class="st0"
         inkscape:connector-curvature="0"
         id="path6242" /><g
         transform="matrix(2.1142015,0,0,2.1142015,882.7019,867.78398)"
         id="g6244"><path
           style="fill:none;stroke:#000000"
           d="m -205.6,-775.1 0,6.3 -10.6,0 0,29.3 -7.5,0 0,-29.3 -10.7,0 0,-6.3 28.8,0 z"
           class="st0"
           inkscape:connector-curvature="0"
           id="path6246" /></g><path
         style="fill:none;stroke:#000000"
         d="m 602.2,-695.8 -15.6,0 0,-75.2 15.6,0 0,75.2 z"
         class="st0"
         inkscape:connector-curvature="0"
         id="path6248" /><g
         transform="matrix(2.1142015,0,0,2.1142015,249.20108,735.4874)"
         id="g6250"><path
           style="fill:none;stroke:#000000"
           d="m -45.7,-683.4 -0.6,0 -7.3,0 0,6.4 27,0 0,-6.4 -19.1,0 z"
           class="st0"
           inkscape:connector-curvature="0"
           id="path6252" /></g><g
         transform="matrix(2.1142015,0,0,2.1142015,246.67186,839.22365)"
         id="g6254"><path
           style="fill:none;stroke:#000000"
           d="m -45.1,-755.3 18.8,0 0,-6.3 -26.1,0 0,11.9 7.3,0 0,-5.6 z"
           class="st0"
           inkscape:connector-curvature="0"
           id="path6256" /></g><g
         transform="matrix(2.1142015,0,0,2.1142015,213.7345,804.97338)"
         id="g6258"><path
           style="fill:none;stroke:#000000"
           d="m -36.7,-731.6 0,12.8 7.3,0 0,-6.6 17.3,0 0,-6.2 -16,0 -1.3,0 -7.3,0 z"
           class="st0"
           inkscape:connector-curvature="0"
           id="path6260" /></g><g
         transform="matrix(2.1142015,0,0,2.1142015,477.57099,841.84992)"
         id="g6262"><path
           style="fill:none;stroke:#000000"
           d="m -103.3,-757.1 c 0,0.7 0,1.6 0,2.9 0,1.2 0,2.2 0,2.9 l 0,4.6 6.9,0 0,-16.1 -10.7,0 -3.7,16.1 5.2,0 2.3,-10.4 z"
           class="st0"
           inkscape:connector-curvature="0"
           id="path6264" /></g><path
         style="fill:none;stroke:#000000"
         d="m 259,-695.8 14.6,0 0,-36.9 -14.6,0 0,36.9 z"
         class="st0"
         inkscape:connector-curvature="0"
         id="path6266" /><path
         style="fill:none;stroke:#000000"
         d="m 200.9,-695.8 14.6,0 0,-36.9 -14.6,0 0,36.9 z"
         class="st0"
         inkscape:connector-curvature="0"
         id="path6268" /><g
         transform="matrix(2.1142015,0,0,2.1142015,384.12096,815.58773)"
         id="g6270"><path
           style="fill:none;stroke:#000000"
           d="m -79.8,-738.9 c 0,-0.7 0,-1.7 0,-2.9 0,-1.2 0,-2.2 0,-2.9 l 2.3,10.3 5.3,0 -3.7,-16.1 -10.8,0 0,16.1 6.9,0 0,-4.5 z"
           class="st0"
           inkscape:connector-curvature="0"
           id="path6272" /></g><g
         transform="matrix(2.1142015,0,0,2.1142015,431.11945,740.95874)"
         id="g6274"><path
           style="fill:none;stroke:#000000"
           d="m -91.6,-687.2 -2.3,-9.9 -5.4,0 3.9,17.5 7.2,0 3.9,-17.5 -5.2,0 -2.1,9.9 z"
           class="st0"
           inkscape:connector-curvature="0"
           id="path6276" /></g><g
         transform="matrix(2.1142015,0,0,2.1142015,941.74668,830.90745)"
         id="g6278"><path
           style="fill:none;stroke:#000000"
           d="m -220.5,-749.6 3.9,12.1 7.6,0 -7.2,-20.3 -8.4,0 -7.2,20.3 7.4,0 3.9,-12.1 z"
           class="st0"
           inkscape:connector-curvature="0"
           id="path6280" /></g><g
         transform="matrix(2.1142015,0,0,2.1142015,996.67253,767.43996)"
         id="g6282"><path
           style="fill:none;stroke:#000000"
           d="m -234.4,-705.5 -7.6,0 -9.1,0 -7.4,0 -4.8,13.4 7.8,0 2.4,-7.3 13.1,0 2.3,7.3 8.1,0 -4.8,-13.4 z"
           class="st0"
           inkscape:connector-curvature="0"
           id="path6284" /></g><g
         transform="matrix(2.1142015,0,0,2.1142015,1063.4929,796.43793)"
         id="g6286"><path
           style="fill:none;stroke:#000000"
           d="m -251.3,-725.7 -7.3,0 0,19.8 7.3,0 0,-13.4 0,-0.5 0,-5.9 z"
           class="st0"
           inkscape:connector-curvature="0"
           id="path6288" /></g><g
         transform="matrix(2.1142015,0,0,2.1142015,1155.7537,719.7311)"
         id="g6290"><path
           style="fill:none;stroke:#000000"
           d="m -274.6,-672.5 c -0.1,-0.6 -0.2,-1.7 -0.2,-3.3 l 0,-2.4 c 0,-2.5 -0.3,-4.3 -1,-5.6 -0.7,-1.2 -1.8,-2.2 -3.5,-2.8 2,-0.7 3.4,-1.8 4.2,-3.5 0.9,-1.6 1.3,-3.3 1.3,-5 0,-1.4 -0.2,-2.6 -0.7,-3.7 -0.4,-1.1 -1,-2.1 -1.8,-3 -0.9,-1.1 -2,-1.9 -3.3,-2.5 -1.3,-0.6 -3.2,-0.9 -5.6,-0.9 l -17,0 0,13.8 7.3,0 0,-7.6 8.2,0 c 1.5,0 2.7,0.2 3.4,0.6 1.4,0.7 2,2.2 2,4.3 0,2 -0.7,3.3 -2.1,4 -0.8,0.4 -2,0.6 -3.6,0.6 l -7,0 0,5.9 6.2,0 c 2.1,0 3.5,0.4 4.2,1.1 0.8,0.8 1.1,2.3 1.2,4.5 l 0,3.3 c 0,1 0.1,2.1 0.3,3.1 0.1,0.5 0.3,1.1 0.5,1.9 l 8.2,0 0,-0.9 c -0.5,-0.3 -1,-0.9 -1.2,-1.9"
           class="st0"
           inkscape:connector-curvature="0"
           id="path6292" /></g><g
         transform="matrix(2.1142015,0,0,2.1142015,1224.5851,734.67702)"
         id="g6294"><path
           style="fill:none;stroke:#000000"
           d="m -291.9,-682.8 0,6.2 27.5,0 0,-6.3 -15.9,0 0,0.1 -11.6,0 z"
           class="st0"
           inkscape:connector-curvature="0"
           id="path6296" /></g><g
         transform="matrix(2.1142015,0,0,2.1142015,1300.6345,831.13853)"
         id="g6298"><path
           style="fill:none;stroke:#000000"
           d="m -311.1,-749.7 -15.4,19.5 9,0 15.4,-19.5 -9,0 z"
           class="st0"
           inkscape:connector-curvature="0"
           id="path6300" /></g><g
         transform="matrix(2.1142015,0,0,2.1142015,1347.6837,839.22365)"
         id="g6302"><path
           style="fill:none;stroke:#000000"
           d="m -323,-755.3 0.3,-0.3 0,-6 -27,0 0,6.3 15.6,0 2.1,0 9,0 z"
           class="st0"
           inkscape:connector-curvature="0"
           id="path6304" /></g><g
         transform="matrix(2.1142015,0,0,2.1142015,1400.3468,735.4874)"
         id="g6306"><path
           style="fill:none;stroke:#000000"
           d="m -336.3,-683.4 -0.6,0 -7.3,0 0,6.4 27,0 0,-6.4 -19.1,0 z"
           class="st0"
           inkscape:connector-curvature="0"
           id="path6308" /></g><g
         transform="matrix(2.1142015,0,0,2.1142015,1397.8176,839.22365)"
         id="g6310"><path
           style="fill:none;stroke:#000000"
           d="m -335.7,-755.3 18.8,0 0,-6.3 -26.1,0 0,11.9 7.3,0 0,-5.6 z"
           class="st0"
           inkscape:connector-curvature="0"
           id="path6312" /></g><g
         transform="matrix(2.1142015,0,0,2.1142015,1364.8802,804.97338)"
         id="g6314"><path
           style="fill:none;stroke:#000000"
           d="m -327.4,-731.6 0,12.8 7.3,0 0,-6.6 17.3,0 0,-6.2 -16,0 -1.3,0 -7.3,0 z"
           class="st0"
           inkscape:connector-curvature="0"
           id="path6316" /></g></g><g
       transform="matrix(0.98963362,0,0,0.97926537,11.496568,334.2506)"
       id="g6095_1_"><path
         style="fill:none;stroke:#000000"
         d="m 466.4,1198.9 -28,0 0,-135 28,0 0,135 0,0 z"
         class="st0"
         inkscape:connector-curvature="0"
         id="path146_1_" /><g
         transform="matrix(2.1142015,0,0,2.1142015,252.49627,609.46534)"
         id="g148_1_"><path
           style="fill:none;stroke:#000000"
           d="M -46.2,219.9 C -50,216.6 -55,215 -61.3,215 l -27.4,0 0,63.9 13.3,0 0,-22.3 0,-0.6 0,-11 0,-0.6 0,-18.4 12,0 c 3,0 5.4,0.7 7.1,2.1 1.7,1.4 2.5,3.8 2.5,7.1 0,3.3 -0.8,5.7 -2.5,7.3 -1.7,1.5 -4.1,2.3 -7.1,2.3 l -10.2,0 0,11 11.5,0 c 6.9,0 12.3,-1.6 16,-4.7 3.7,-3.1 5.6,-8.4 5.6,-16 -0.1,-6.8 -1.9,-11.9 -5.7,-15.2"
           class="st0"
           inkscape:connector-curvature="0"
           id="path150_1_" /></g><g
         transform="matrix(2.1142015,0,0,2.1142015,511.40245,487.48184)"
         id="g152_1_"><path
           style="fill:none;stroke:#000000"
           d="m -111.6,304.5 c 0,7.2 -1.6,12.7 -4.7,16.6 -3.1,3.9 -7.3,5.8 -12.6,5.8 -5.3,0 -9.5,-1.9 -12.6,-5.8 -0.7,-0.9 -1.4,-1.9 -1.9,-3 l -14.1,0 c 1.6,5.1 4.2,9.3 7.8,12.7 4.8,5 11.8,7.5 20.9,7.5 9.1,0 16.1,-2.5 20.9,-7.5 6.4,-6.1 9.7,-14.9 9.7,-26.3 0,-3.2 -0.2,-6.1 -0.7,-8.9 l -13.6,0 c 0.6,2.6 0.9,5.6 0.9,8.9"
           class="st0"
           inkscape:connector-curvature="0"
           id="path154_1_" /></g><g
         transform="matrix(2.1142015,0,0,2.1142015,354.45597,487.48184)"
         id="g156_1_"><path
           style="fill:none;stroke:#000000"
           d="m -71.9,304.5 c 0,-7.2 1.6,-12.7 4.7,-16.6 3.1,-3.9 7.4,-5.8 12.6,-5.8 5.2,0 9.5,2 12.6,5.9 1.3,1.7 2.4,3.7 3.2,6 l 13.8,0 c -1.4,-6.6 -4.3,-11.8 -8.6,-15.7 -4.8,-5 -11.8,-7.5 -20.9,-7.5 -9.1,0 -16.1,2.5 -20.9,7.5 -6.5,5.9 -9.7,14.6 -9.7,26.3 0,4.5 0.5,8.5 1.5,12.1 l 13.9,0 c -1.5,-3.4 -2.2,-7.4 -2.2,-12.2"
           class="st0"
           inkscape:connector-curvature="0"
           id="path158_1_" /></g><g
         transform="matrix(2.1142015,0,0,2.1142015,1647.8693,878.90532)"
         id="g160_1_"><path
           style="fill:none;stroke:#000000"
           d="m -398.5,33 -17.1,93.2 c -0.4,1.8 -1.7,2.7 -3.9,2.5 -2.3,-0.2 -3.3,-1.2 -3.2,-3.1 l 0.5,-94.5 c 0.2,-2.3 1.4,-4.1 3.7,-5.4 2.3,-1.3 5,-1.9 8.3,-1.6 3.3,0.3 7,0.8 9,2.6 2.1,1.7 3,3.8 2.7,6.3"
           class="st0"
           inkscape:connector-curvature="0"
           id="path162_1_" /></g><g
         transform="matrix(2.1142015,0,0,2.1142015,1495.9998,325.86086)"
         id="g164_1_"><path
           style="fill:none;stroke:#000000"
           d="m -360.1,416.6 5.2,-8.8 -6.6,-7.8 9.9,2.1 5.6,-8.4 1.1,10.2 9.8,2.9 -9.2,4 0.3,10.1 -6.6,-7.8 -9.5,3.5 z"
           class="st0"
           inkscape:connector-curvature="0"
           id="path166_1_" /></g><g
         transform="matrix(2.1142015,0,0,2.1142015,1495.9998,325.86086)"
         id="g168_1_"><path
           style="fill:none;stroke:#000000"
           d="m -360.1,416.6 5.2,-8.8 -6.6,-7.8 9.9,2.1 5.6,-8.4 1.1,10.2 9.8,2.9 -9.2,4 0.3,10.1 -6.6,-7.8 -9.5,3.5 z"
           class="st0"
           inkscape:connector-curvature="0"
           id="path170_1_" /></g><g
         transform="matrix(2.1142015,0,0,2.1142015,1325.4227,468.82549)"
         id="g172_1_"><path
           style="fill:none;stroke:#000000"
           d="m -317.1,317.4 0,0 29.7,0 0,-11.1 -31,0 0,-11.8 -13,0 0,22.9 13,0 1.3,0 z"
           class="st0"
           inkscape:connector-curvature="0"
           id="path174_1_" /></g><g
         transform="matrix(2.1142015,0,0,2.1142015,1322.9533,580.59339)"
         id="g176_1_"><path
           style="fill:none;stroke:#000000"
           d="m -316.4,239.9 0.3,0 32.7,0 0,-11.3 -46.8,0 0,11.3 13,0 0.8,0 z"
           class="st0"
           inkscape:connector-curvature="0"
           id="path178_1_" /></g><g
         transform="matrix(2.1142015,0,0,2.1142015,1319.6086,394.37832)"
         id="g180_1_"><path
           style="fill:none;stroke:#000000"
           d="m -315.6,369.1 0,-14.5 -13,0 0,26 48.4,0 0,-11.5 -35.4,0 z"
           class="st0"
           inkscape:connector-curvature="0"
           id="path182_1_" /></g><g
         transform="matrix(2.1142015,0,0,2.1142015,1019.9494,483.75302)"
         id="g184_1_"><path
           style="fill:none;stroke:#000000"
           d="m -239.9,307.1 c 0,-7.2 1.4,-12.7 4.1,-16.6 2.7,-3.9 6.5,-5.9 11.2,-5.9 4.7,0 8.2,1.4 10.6,4.2 1.3,1.6 2.4,3.9 3.3,6.9 l 13.3,0 c -0.2,-4 -1.7,-8 -4.4,-11.9 -4.9,-7 -12.7,-10.6 -23.3,-10.6 -7.9,0 -14.5,2.6 -19.6,7.9 -5.9,6 -8.9,14.6 -8.9,25.8 0,4.4 0.5,8.3 1.4,11.9 l 14.1,0 c -1.2,-3.2 -1.8,-7.1 -1.8,-11.7"
           class="st0"
           inkscape:connector-curvature="0"
           id="path186_1_" /></g><g
         transform="matrix(2.1142015,0,0,2.1142015,1137.1595,407.34028)"
         id="g188_1_"><path
           style="fill:none;stroke:#000000"
           d="m -269.5,360.1 c -2.4,3.1 -5.9,4.6 -10.5,4.6 -4.5,0 -8.1,-1.8 -11,-5.3 -0.7,-0.8 -1.2,-1.7 -1.7,-2.7 l -14.4,0 c 1.3,4.2 3.3,7.7 5.9,10.7 5.2,5.9 12.3,8.8 21.4,8.8 7.3,0 13.4,-2.2 18.1,-6.5 4.7,-4.4 7.6,-10 8.8,-17 l -13.3,0 c -0.9,3.3 -2,5.7 -3.3,7.4"
           class="st0"
           inkscape:connector-curvature="0"
           id="path190_1_" /></g><path
         style="fill:none;stroke:#000000"
         d="m 352.4,1063.9 -28.2,0 0,106.6 28.2,0 0,-106.6 z"
         class="st0"
         inkscape:connector-curvature="0"
         id="path192_1_" /><g
         transform="matrix(2.1142015,0,0,2.1142015,692.04067,394.37832)"
         id="g194_1_"><path
           style="fill:none;stroke:#000000"
           d="m -157.2,369.1 -1.2,0 -2.3,0 -13.3,0 0,11.5 45.2,0 0,-11.5 -28.4,0 z"
           class="st0"
           inkscape:connector-curvature="0"
           id="path196_1_" /></g><g
         transform="matrix(2.1142015,0,0,2.1142015,92.591179,747.97853)"
         id="g198_1_"><path
           style="fill:none;stroke:#000000"
           d="m -5.8,123.8 -7.2,0 0,-26.4 15.3,0 c 2.2,0 4,0.3 5.5,0.8 2.5,0.8 4.5,2.3 6.1,4.5 1.2,1.8 2.1,3.7 2.5,5.7 0.5,2.1 0.7,4 0.7,5.9 0,4.7 -1,8.7 -2.8,12 -2.6,4.4 -6.6,6.6 -11.9,6.6 l -15.4,0 0,-6.3 7.2,0.1 6.8,0 c 3.5,0 6,-1.7 7.3,-5.2 0.8,-1.9 1.1,-4.2 1.1,-6.8 0,-3.6 -0.6,-6.4 -1.7,-8.3 -1.1,-1.9 -3.4,-2.9 -6.8,-2.9 l -6.9,0 0,20.3"
           class="st0"
           inkscape:connector-curvature="0"
           id="path200_1_" /></g><path
         style="fill:none;stroke:#000000"
         d="m 299,1029.1 -15.6,0 0,-75.2 15.6,0 0,75.2 z"
         class="st0"
         inkscape:connector-curvature="0"
         id="path202_1_" /><g
         transform="matrix(2.1142015,0,0,2.1142015,584.27939,867.78398)"
         id="g204_1_"><path
           style="fill:none;stroke:#000000"
           d="m -129.9,40.7 7.4,0 0,29.2 17.8,0 0,6.4 -25.2,0 0,-35.6 z"
           class="st0"
           inkscape:connector-curvature="0"
           id="path206_1_" /></g><path
         style="fill:none;stroke:#000000"
         d="m 383.5,1029.1 -15.6,0 0,-75.2 15.6,0 0,75.2 z"
         class="st0"
         inkscape:connector-curvature="0"
         id="path208_1_" /><g
         transform="matrix(2.1142015,0,0,2.1142015,882.7019,867.78398)"
         id="g210_1_"><path
           style="fill:none;stroke:#000000"
           d="m -205.3,40.7 0,6.3 -10.6,0 0,29.3 -7.5,0 0,-29.3 -10.7,0 0,-6.3 28.8,0 z"
           class="st0"
           inkscape:connector-curvature="0"
           id="path212_1_" /></g><path
         style="fill:none;stroke:#000000"
         d="m 602.9,1029.1 -15.6,0 0,-75.2 15.6,0 0,75.2 z"
         class="st0"
         inkscape:connector-curvature="0"
         id="path214_1_" /><g
         transform="matrix(2.1142015,0,0,2.1142015,249.20108,735.4874)"
         id="g216_1_"><path
           style="fill:none;stroke:#000000"
           d="m -45.4,132.5 -0.6,0 -7.3,0 0,6.4 27,0 0,-6.4 -19.1,0 z"
           class="st0"
           inkscape:connector-curvature="0"
           id="path218_1_" /></g><g
         transform="matrix(2.1142015,0,0,2.1142015,246.67186,839.22365)"
         id="g220_1_"><path
           style="fill:none;stroke:#000000"
           d="m -44.7,60.6 18.8,0 0,-6.3 -26.1,0 0,11.9 7.3,0 0,-5.6 z"
           class="st0"
           inkscape:connector-curvature="0"
           id="path222_1_" /></g><g
         transform="matrix(2.1142015,0,0,2.1142015,213.7345,804.97338)"
         id="g224_1_"><path
           style="fill:none;stroke:#000000"
           d="m -36.4,84.3 0,12.8 7.3,0 0,-6.6 17.3,0 0,-6.2 -16,0 -1.3,0 -7.3,0 z"
           class="st0"
           inkscape:connector-curvature="0"
           id="path226_1_" /></g><g
         transform="matrix(2.1142015,0,0,2.1142015,477.57099,841.84992)"
         id="g228_1_"><path
           style="fill:none;stroke:#000000"
           d="m -103,58.7 c 0,0.7 0,1.6 0,2.9 0,1.2 0,2.2 0,2.9 l 0,4.6 6.9,0 0,-16.1 -10.7,0 -3.7,16.1 5.2,0 2.3,-10.4 z"
           class="st0"
           inkscape:connector-curvature="0"
           id="path230_1_" /></g><path
         style="fill:none;stroke:#000000"
         d="m 259.7,1029.1 14.6,0 0,-36.9 -14.6,0 0,36.9 z"
         class="st0"
         inkscape:connector-curvature="0"
         id="path232_1_" /><path
         style="fill:none;stroke:#000000"
         d="m 201.6,1029.1 14.6,0 0,-36.9 -14.6,0 0,36.9 z"
         class="st0"
         inkscape:connector-curvature="0"
         id="path234_1_" /><g
         transform="matrix(2.1142015,0,0,2.1142015,384.12096,815.58773)"
         id="g236_1_"><path
           style="fill:none;stroke:#000000"
           d="m -79.4,76.9 c 0,-0.7 0,-1.7 0,-2.9 0,-1.2 0,-2.2 0,-2.9 l 2.3,10.3 5.3,0 -3.7,-16.1 -10.8,0 0,16.1 6.9,0 0,-4.5 z"
           class="st0"
           inkscape:connector-curvature="0"
           id="path238_1_" /></g><g
         transform="matrix(2.1142015,0,0,2.1142015,431.11945,740.95874)"
         id="g240_1_"><path
           style="fill:none;stroke:#000000"
           d="m -91.3,128.7 -2.3,-9.9 -5.4,0 3.9,17.5 7.2,0 3.9,-17.5 -5,0 -2.3,9.9 z"
           class="st0"
           inkscape:connector-curvature="0"
           id="path242_1_" /></g><g
         transform="matrix(2.1142015,0,0,2.1142015,941.74668,830.90745)"
         id="g244_1_"><path
           style="fill:none;stroke:#000000"
           d="m -220.2,66.3 3.9,12.1 7.6,0 -7.2,-20.3 -8.4,0 -7.2,20.3 7.4,0 3.9,-12.1 z"
           class="st0"
           inkscape:connector-curvature="0"
           id="path246_1_" /></g><g
         transform="matrix(2.1142015,0,0,2.1142015,996.67253,767.43996)"
         id="g248_1_"><path
           style="fill:none;stroke:#000000"
           d="m -234.1,110.3 -7.6,0 -9.1,0 -7.4,0 -4.8,13.4 7.8,0 2.4,-7.3 13.1,0 2.3,7.3 8.1,0 -4.8,-13.4 z"
           class="st0"
           inkscape:connector-curvature="0"
           id="path250_1_" /></g><g
         transform="matrix(2.1142015,0,0,2.1142015,1063.4929,796.43793)"
         id="g252_1_"><path
           style="fill:none;stroke:#000000"
           d="m -250.9,90.2 -7.3,0 0,19.8 7.3,0 0,-13.4 0,-0.5 0,-5.9 z"
           class="st0"
           inkscape:connector-curvature="0"
           id="path254_1_" /></g><g
         transform="matrix(2.1142015,0,0,2.1142015,1155.7537,719.7311)"
         id="g256_1_"><path
           style="fill:none;stroke:#000000"
           d="m -274.2,143.4 c -0.1,-0.6 -0.2,-1.7 -0.2,-3.3 l 0,-2.4 c 0,-2.5 -0.3,-4.3 -1,-5.6 -0.7,-1.2 -1.8,-2.2 -3.5,-2.8 2,-0.7 3.4,-1.8 4.2,-3.5 0.9,-1.6 1.3,-3.3 1.3,-5 0,-1.4 -0.2,-2.6 -0.7,-3.7 -0.4,-1.1 -1,-2.1 -1.8,-3 -0.9,-1.1 -2,-1.9 -3.3,-2.5 -1.3,-0.6 -3.2,-0.9 -5.6,-0.9 l -17,0 0,13.8 7.3,0 0,-7.5 8.2,0 c 1.5,0 2.7,0.2 3.4,0.6 1.4,0.7 2,2.2 2,4.3 0,2 -0.7,3.3 -2.1,4 -0.8,0.4 -2,0.6 -3.6,0.6 l -7,0 0,5.9 6.2,0 c 2.1,0 3.5,0.4 4.2,1.1 0.8,0.8 1.1,2.3 1.2,4.5 l 0,3.3 c 0,1 0.1,2.1 0.3,3.1 0.1,0.5 0.3,1.1 0.5,1.9 l 8.2,0 0,-0.9 c -0.6,-0.4 -1,-1.1 -1.2,-2"
           class="st0"
           inkscape:connector-curvature="0"
           id="path258_1_" /></g><g
         transform="matrix(2.1142015,0,0,2.1142015,1224.5851,734.67702)"
         id="g260_1_"><path
           style="fill:none;stroke:#000000"
           d="m -291.6,133.1 0,6.2 27.5,0 0,-6.3 -15.9,0 0,0.1 -11.6,0 z"
           class="st0"
           inkscape:connector-curvature="0"
           id="path262_1_" /></g><g
         transform="matrix(2.1142015,0,0,2.1142015,1300.6345,831.13853)"
         id="g264_1_"><path
           style="fill:none;stroke:#000000"
           d="m -310.8,66.2 -15.4,19.5 9,0 15.4,-19.5 -9,0 z"
           class="st0"
           inkscape:connector-curvature="0"
           id="path266_1_" /></g><g
         transform="matrix(2.1142015,0,0,2.1142015,1347.6837,839.22365)"
         id="g268_1_"><path
           style="fill:none;stroke:#000000"
           d="m -322.7,60.6 0.3,-0.3 0,-6 -27,0 0,6.3 15.6,0 2.1,0 9,0 z"
           class="st0"
           inkscape:connector-curvature="0"
           id="path270_1_" /></g><g
         transform="matrix(2.1142015,0,0,2.1142015,1400.3468,735.4874)"
         id="g272_1_"><path
           style="fill:none;stroke:#000000"
           d="m -336,132.5 -0.6,0 -7.3,0 0,6.4 27,0 0,-6.4 -19.1,0 z"
           class="st0"
           inkscape:connector-curvature="0"
           id="path274_1_" /></g><g
         transform="matrix(2.1142015,0,0,2.1142015,1397.8176,839.22365)"
         id="g276_1_"><path
           style="fill:none;stroke:#000000"
           d="m -335.3,60.6 18.8,0 0,-6.3 -26.1,0 0,11.9 7.3,0 0,-5.6 z"
           class="st0"
           inkscape:connector-curvature="0"
           id="path278_1_" /></g><g
         transform="matrix(2.1142015,0,0,2.1142015,1364.8802,804.97338)"
         id="g280_1_"><path
           style="fill:none;stroke:#000000"
           d="m -327,84.3 0,12.8 7.3,0 0,-6.6 17.3,0 0,-6.2 -16,0 -1.3,0 -7.3,0 z"
           class="st0"
           inkscape:connector-curvature="0"
           id="path282_1_" /></g></g><rect
       style="fill:none;stroke:#000000"
       y="324.00006"
       x="0"
       id="rect213"
       height="1296"
       width="864"
       class="st0" /><line
       style="fill:none;stroke:#000000"
       id="line215"
       y2="736.80005"
       x2="895"
       y1="741.1001"
       x1="-22.9"
       class="st0" /><line
       style="fill:none;stroke:#000000"
       id="line217"
       y2="1180.8"
       x2="894.90002"
       y1="1185.1001"
       x1="-23"
       class="st0" /></g></svg>