<?xml version="1.0" encoding="utf-8"?>
<!-- Generator: Adobe Illustrator 20.1.0, SVG Export Plug-In . SVG Version: 6.00 Build 0)  -->
<svg version="1.1" id="Layer_1" xmlns="http://www.w3.org/2000/svg" xmlns:xlink="http://www.w3.org/1999/xlink" x="0px" y="0px"
	 viewBox="0 0 1296 864" style="enable-background:new 0 0 1296 864;" xml:space="preserve">
<style type="text/css">
	.st0{fill:none;stroke:#000000;stroke-width:7.200000e-02;stroke-miterlimit:10;}
</style>
<g>
	<path class="st0" d="M783.8,441.9c0,26,0,51.4,0,77.3c-25.7,0-51.2,0-77.1,0c0-25.7,0-51.3,0-77.3
		C732.2,441.9,757.7,441.9,783.8,441.9z"/>
	<path class="st0" d="M783.7,345c0,26,0,51.5,0,77.5c-25.9,0-51.4,0-77.2,0c0-25.9,0-51.5,0-77.5C732.1,345,757.5,345,783.7,345z"/>
	<path class="st0" d="M415.2,345c25.7,0,51.2,0,77.1,0c0,26,0,51.7,0,77.8c-25.7,0-51.2,0-77.1,0C415.2,396.9,415.2,371.1,415.2,345
		z"/>
	<path class="st0" d="M608.5,422c0-4.4,0-8.5,0-12.6c0-17.6-0.1-35.1,0-52.7c0.1-10.6,2.2-12.7,12.6-12.8c21.7-0.1,43.4,0,65.5,0
		c0,26.2,0,52.1,0,78.1C660.6,422,634.9,422,608.5,422z"/>
	<path class="st0" d="M492.4,228.2c-25.8,0-51.3,0-77.2,0c0-25.8,0-51.3,0-77.3c25.7,0,51.3,0,77.2,0
		C492.4,176.4,492.4,202,492.4,228.2z"/>
	<path class="st0" d="M706.7,616.6c0-25.9,0-51.3,0-77.1c25.8,0,51.3,0,77.3,0c0,25.7,0,51.2,0,77.1
		C758.2,616.6,732.7,616.6,706.7,616.6z"/>
	<path class="st0" d="M706.6,150.4c26,0,51.4,0,77.3,0c0,25.6,0,51.2,0,77.3c-25.5,0-51.2,0-77.3,0
		C706.6,202.1,706.6,176.6,706.6,150.4z"/>
	<path class="st0" d="M318.1,345c25.8,0,51.6,0,77.6,0c0,25.7,0,51.1,0,77c-25.8,0-51.5,0-77.6,0C318.1,396.4,318.1,370.9,318.1,345
		z"/>
	<path class="st0" d="M492.5,247.8c0,25.7,0,51.1,0,76.9c-25.6,0-51.2,0-77.2,0c0-25.4,0-50.9,0-76.9
		C440.8,247.8,466.3,247.8,492.5,247.8z"/>
	<path class="st0" d="M318.2,325c0-25.9,0-51.4,0-77.3c25.7,0,51,0,76.9,0c0,25.6,0,51.3,0,77.3C369.6,325,344.1,325,318.2,325z"/>
	<path class="st0" d="M804,150.4c25.6,0,50.8,0,76.5,0c0,25.9,0,51.6,0,77.7c-25.4,0-50.7,0-76.5,0C804,202.4,804,176.7,804,150.4z"
		/>
	<path class="st0" d="M706.6,248.1c26.2,0,51.8,0,77.6,0c0,25.6,0,50.8,0,76.5c-25.8,0-51.5,0-77.6,0
		C706.6,299.2,706.6,273.8,706.6,248.1z"/>
	<path class="st0" d="M803.8,324.7c0-25.6,0-50.9,0-76.6c25.9,0,51.4,0,77.3,0c0,25.5,0,50.8,0,76.6
		C855.6,324.7,830.1,324.7,803.8,324.7z"/>
	<path class="st0" d="M609.8,248.1c25.6,0,51.1,0,77,0c0,25.8,0,51.3,0,77c-25.8,0-51.1,0-77,0C609.8,299.5,609.8,274,609.8,248.1z"
		/>
	<path class="st0" d="M609.6,616.1c0-25.8,0-51.1,0-76.8c25.8,0,51.3,0,77.2,0c0,25.6,0,50.9,0,76.8
		C661.2,616.1,635.7,616.1,609.6,616.1z"/>
	<path class="st0" d="M414.8,442.3c26.1,0,51.6,0,77.5,0c0,25.7,0,51.1,0,77c-25.8,0-51.5,0-77.5,0
		C414.8,493.6,414.8,468.2,414.8,442.3z"/>
	<path class="st0" d="M900.6,345.2c26,0,51.4,0,77.3,0c0,25.6,0,51.1,0,77.1c-25.6,0-51.3,0-77.3,0
		C900.6,396.7,900.6,371.3,900.6,345.2z"/>
	<path class="st0" d="M589.3,519.3c-25.7,0-51,0-76.6,0c0-26,0-51.5,0-77.5c25.6,0,50.9,0,76.6,0
		C589.3,467.6,589.3,493.1,589.3,519.3z"/>
	<path class="st0" d="M880.9,519.3c-25.7,0-51.2,0-77.1,0c0-25.7,0-51.1,0-76.9c25.6,0,51.1,0,77.1,0
		C880.9,467.9,880.9,493.4,880.9,519.3z"/>
	<path class="st0" d="M589.5,616.2c-25.7,0-51.2,0-77.1,0c0-25.6,0-50.9,0-76.6c25.8,0,51.2,0,77.1,0
		C589.5,565.2,589.5,590.5,589.5,616.2z"/>
	<path class="st0" d="M881,345c0,25.7,0,51.1,0,76.9c-25.6,0-51.2,0-77.1,0c0-25.5,0-51,0-76.9C829.6,345,855.2,345,881,345z"/>
	<path class="st0" d="M901.2,247.5c25.7,0,50.9,0,76.6,0c0,25.6,0,51.1,0,76.9c-25.4,0-50.8,0-76.6,0
		C901.2,298.9,901.2,273.5,901.2,247.5z"/>
	<path class="st0" d="M589.9,324.8c-25.7,0-51.1,0-76.9,0c0-25.7,0-51.2,0-77.1c25.5,0,51,0,76.9,0
		C589.9,273.5,589.9,299,589.9,324.8z"/>
	<path class="st0" d="M686.4,713.6c-25.7,0-50.9,0-76.6,0c0-25.9,0-51.6,0-77.6c25.5,0,50.9,0,76.6,0
		C686.4,661.8,686.4,687.4,686.4,713.6z"/>
	<path class="st0" d="M609.7,442.1c25.7,0,50.9,0,76.5,0c0,25.6,0,51.1,0,77.1c-25.4,0-50.8,0-76.5,0
		C609.7,493.6,609.7,468.2,609.7,442.1z"/>
	<path class="st0" d="M512.8,228c0-25.8,0-51.3,0-77.4c25.5,0,51,0,76.8,0c0,25.8,0,51.3,0,77.4C564,228,538.6,228,512.8,228z"/>
	<path class="st0" d="M512.7,422c0-25.8,0-51.2,0-77c25.5,0,50.9,0,76.7,0c0,25.6,0,51,0,77C564.1,422,538.7,422,512.7,422z"/>
</g>
<rect class="st0" width="1296" height="864"/>
</svg>
