<?xml version="1.0" encoding="utf-8"?>
<!-- Generator: Adobe Illustrator 20.1.0, SVG Export Plug-In . SVG Version: 6.00 Build 0)  -->
<svg version="1.1" id="_1170px_grid" xmlns="http://www.w3.org/2000/svg" xmlns:xlink="http://www.w3.org/1999/xlink" x="0px"
	 y="0px" viewBox="0 0 1560 272" style="enable-background:new 0 0 1560 272;" xml:space="preserve">
<style type="text/css">
	.st0{fill:#ED474E;stroke:#ED474E;stroke-miterlimit:10;}
	.st1{fill:#436CA9;stroke:#436CA9;stroke-miterlimit:10;}
</style>
<path class="st0" d="M769.8,175.3l29.7,77.1c3,7.5,7.5,10.5,13.5,10.5h42c9,0,12-7.5,9-15l-33.5-81c22.4-10.1,39-30.2,39-71.5v-6.5
	c0-70.1-48.4-79.9-91.2-79.9l-74.8,0.1c-7.5,0-12,3-12,12v229.7c0,7.5,4.5,12,12,12H741c7.5,0,12-4.5,12-12l-0.3-63.8h0v-65.1v-2.3
	V62.3h28.2c12,0,26.3,4.5,26.3,28.6v2.6c0,24-14.3,28.6-26.3,28.6h-21v53.3"/>
<path class="st0" d="M1022.3,262.5h-37.5c-7.5,0-12-4.5-12-12l-0.5-68.2L906.8,23.8c-3-7.5,0-13.5,9-13.5h42c6,0,10.5,1.5,13.5,9
	l31.9,81l31.1-81c3-7.5,7.5-9,13.5-9h43.5c9,0,12,6,9,13.5L1034,182.3l0.3,68.2C1034.3,258,1029.8,262.5,1022.3,262.5z"/>
<path class="st0" d="M203.3,21.6v28.5c0,9-4.5,12-12,12l-90.8,0.6v45.7l90.5,0.3c7.5,0,12,3,12,12v28.5c0,7.5-4.5,12-12,12
	l-90.5,0.4v47.8l91.4-0.2c7.5,0,12,3,12,12v30c0,7.5-4.5,12-12,12H50.9c-7.5,0-12-4.5-12-12V21.6c0-7.5,4.5-12,12-12h140.5
	C198.8,9.6,203.3,14.1,203.3,21.6z"/>
<title>encrypt</title>
<path class="st0" d="M556.2,213.9h3.2c17.2-0.3,26.2-10.8,29.2-27.3c0-7.5,4.5-12,12-12h37.5c7.5,0,12,4.5,12,12
	c-4.5,55.5-31.5,81.1-93.9,80.6c-68.2,0-98-37-98-124.7v-13c0-87.7,29.9-124.7,98-124.7C621.6,5,647.1,29,650.1,95.1
	c0,7.5-4.5,12-12,12h-37.5c-7.5,0-12-4.5-12-12c-1.5-22.5-9-37.5-29.2-37h-3.2c-30.8,0-35.4,27.6-35.4,71.5v13
	C520.8,186.3,525.3,213.9,556.2,213.9z"/>
<path class="st0" d="M1473.4,262.9h-37.5c-7.5,0-12-4.5-12-12l-0.1-188.6l-44.9-0.6c-7.5,0-12-3-12-12V21.1c0-7.5,4.5-12,12-12
	h151.5c7.5,0,12,3,12,12v28.5c0,7.5-4.5,12-12,12l-45,0.6l-0.1,188.6C1485.4,258.4,1480.9,262.9,1473.4,262.9z"/>
<path class="st0" d="M405.8,262.9h-41.6c-6.1,0.1-11.7-3.5-14.3-9l-61.9-131.2l1.5,48.7l0.1,79.5c0,7.5-4.3,12-11.5,12h-33
	c-7.2,0-11.5-3-11.5-12V21.1c0-7.5,4.3-12,11.5-12h41.6c5.7,0,10,3,12.9,9l62.8,130.5l-1.5-48.7l0.5-78.8c0-7.5,4.3-12,11.5-12h33
	c7.2,0,11.5,3,11.5,12v229.7C417.2,258.4,412.9,262.9,405.8,262.9z"/>
<path class="st0" d="M1230.2,9.1l-80.9,0.1c-7.5,0-12,3-12,12v229.7c0,7.5,4.5,12,12,12h39c7.5,0,12-4.5,12-12l-0.6-75.6v-53.2V62.4
	h33c12,0,26.3,4.6,26.3,28.6v2.6c0,24-14.3,28.6-26.3,28.6H1207v53.2h23.2c42.8,0,91.2-9.7,91.2-79.9V89
	C1321.5,18.8,1273.1,9.1,1230.2,9.1z"/>
<polygon class="st1" points="867.3,0.9 675.3,142.5 675.3,155.8 884.3,1.6 884.3,0.9 "/>
<polygon class="st1" points="675.3,187.9 884.3,33.8 884.3,20.5 675.3,174.7 "/>
<polygon class="st1" points="675.3,220.1 884.3,66 884.3,52.7 675.3,206.9 "/>
<polygon class="st1" points="675.3,252.3 884.3,98.2 884.3,84.9 675.3,239.1 "/>
<polygon class="st1" points="692.8,0.9 675.3,13.8 675.3,27 710.7,0.9 "/>
<polygon class="st1" points="736.4,0.9 675.3,45.9 675.3,59.2 754.3,0.9 "/>
<polygon class="st1" points="780,0.9 675.3,78.1 675.3,91.4 798,0.9 "/>
<polygon class="st1" points="823.7,0.9 675.3,110.3 675.3,123.6 841.6,0.9 "/>
<polygon class="st1" points="693.5,271.1 884.3,130.3 884.3,117.1 675.5,271.1 "/>
<polygon class="st1" points="737.1,271.1 884.3,162.5 884.3,149.3 719.1,271.1 "/>
<polygon class="st1" points="780.7,271.1 884.3,194.7 884.3,181.5 762.8,271.1 "/>
<polygon class="st1" points="824.4,271.1 884.3,226.9 884.3,213.6 806.4,271.1 "/>
<polygon class="st1" points="868,271.1 884.3,259.1 884.3,245.8 850,271.1 "/>
<path class="st1" d="M238,11.2c0.2-0.8,0.3-1.6,0.3-2.4c0-4.8-3.9-8.8-8.8-8.8c-4.8,0-8.8,3.9-8.8,8.8c0,4.8,3.9,8.8,8.8,8.8
	c1.8,0,3.4-0.5,4.8-1.4C235.1,14,236.3,12.3,238,11.2z"/>
<path class="st1" d="M270.7,8.8c0-4.8-3.9-8.8-8.8-8.8c-4.8,0-8.8,3.9-8.8,8.8c0,0.1,0,0.2,0,0.4h17.5C270.7,9,270.7,8.9,270.7,8.8z
	"/>
<path class="st1" d="M298.5,16.2c2.4-1.6,4-4.3,4-7.4c0-4.8-3.9-8.8-8.8-8.8C289,0,285,3.9,285,8.8c0,0.1,0,0.2,0,0.4h1.6
	C291.8,9.1,295.7,11.5,298.5,16.2z"/>
<path class="st1" d="M309.8,33.5c4.8,0,8.8-3.9,8.8-8.8c0-4.8-3.9-8.8-8.8-8.8c-3.9,0-7.2,2.6-8.3,6.1l5.2,10.9
	C307.7,33.2,308.7,33.5,309.8,33.5z"/>
<circle class="st1" cx="325.8" cy="8.8" r="8.8"/>
<circle class="st1" cx="341.8" cy="24.7" r="8.8"/>
<path class="st1" d="M366.2,10.8c0.2-0.7,0.3-1.4,0.3-2.1c0-4.8-3.9-8.8-8.8-8.8c-4.8,0-8.8,3.9-8.8,8.8c0,4.8,3.9,8.8,8.8,8.8
	c1.6,0,3-0.4,4.3-1.1C362.8,14,364.2,12.1,366.2,10.8z"/>
<path class="st1" d="M398.8,8.8c0-4.8-3.9-8.8-8.8-8.8c-4.8,0-8.8,3.9-8.8,8.8c0,0.1,0,0.2,0,0.4h17.5C398.8,9,398.8,8.9,398.8,8.8z
	"/>
<path class="st1" d="M416.5,15.7c1.5,1.2,3.3,1.8,5.4,1.8c4.8,0,8.8-3.9,8.8-8.8c0-4.8-3.9-8.8-8.8-8.8c-4.8,0-8.8,3.9-8.8,8.8
	c0,0.8,0.1,1.6,0.3,2.4C414.9,12.2,415.9,13.7,416.5,15.7z"/>
<path class="st1" d="M229.6,31.8c-4.8,0-8.8,3.9-8.8,8.8c0,4.8,3.9,8.8,8.8,8.8c1.5,0,2.8-0.4,4-1V32.8
	C232.4,32.2,231,31.8,229.6,31.8z"/>
<path class="st1" d="M229.6,63.6c-4.8,0-8.8,3.9-8.8,8.8c0,4.8,3.9,8.8,8.8,8.8c1.5,0,2.8-0.4,4-1V64.6
	C232.4,64,231,63.6,229.6,63.6z"/>
<path class="st1" d="M229.6,95.4c-4.8,0-8.8,3.9-8.8,8.8c0,4.8,3.9,8.8,8.8,8.8c1.5,0,2.8-0.4,4-1V96.4
	C232.4,95.8,231,95.4,229.6,95.4z"/>
<path class="st1" d="M229.6,127.2c-4.8,0-8.8,3.9-8.8,8.8c0,4.8,3.9,8.8,8.8,8.8c1.5,0,2.8-0.4,4-1v-15.6
	C232.4,127.6,231,127.2,229.6,127.2z"/>
<path class="st1" d="M229.6,159c-4.8,0-8.8,3.9-8.8,8.8c0,4.8,3.9,8.8,8.8,8.8c1.5,0,2.8-0.4,4-1V160C232.4,159.4,231,159,229.6,159
	z"/>
<path class="st1" d="M229.6,190.8c-4.8,0-8.8,3.9-8.8,8.8c0,4.8,3.9,8.8,8.8,8.8c1.5,0,2.8-0.4,4-1v-15.6
	C232.4,191.2,231,190.8,229.6,190.8z"/>
<path class="st1" d="M229.6,222.6c-4.8,0-8.8,3.9-8.8,8.8c0,4.8,3.9,8.8,8.8,8.8c1.5,0,2.8-0.4,4-1v-15.6
	C232.4,223,231,222.6,229.6,222.6z"/>
<path class="st1" d="M234.2,255.8c-1.3-0.8-2.9-1.3-4.6-1.3c-4.8,0-8.8,3.9-8.8,8.8c0,4.8,3.9,8.8,8.8,8.8c4.8,0,8.8-3.9,8.8-8.8
	c0-0.7-0.1-1.3-0.2-1.9C236.2,260.2,234.9,258.4,234.2,255.8z"/>
<path class="st1" d="M253.2,263.2c0,4.8,3.9,8.8,8.8,8.8c4.8,0,8.8-3.9,8.8-8.8c0-0.1,0-0.2,0-0.4h-17.5
	C253.2,263,253.2,263.1,253.2,263.2z"/>
<path class="st1" d="M318.6,56.5c0-3.1-1.6-5.9-4.1-7.4l4,8.4C318.6,57.1,318.6,56.8,318.6,56.5z"/>
<path class="st1" d="M288.7,146.1c1.3,1,2.8,1.5,4.4,1.5c2,0,3.9-1,5.5-2.6l-10.6-22.5L288.7,146.1z"/>
<path class="st1" d="M289.5,175.4c1.3,0.7,2.8,1.2,4.3,1.2c4.8,0,8.8-3.9,8.8-8.8c0-4.8-3.9-8.8-8.8-8.8c-1.7,0-3.3,0.5-4.7,1.4
	l0.3,11L289.5,175.4z"/>
<path class="st1" d="M309.8,174.9c-4.8,0-8.8,3.9-8.8,8.8c0,4.8,3.9,8.8,8.8,8.8c3.8,0,7.1-2.5,8.3-5.9l-5.2-11.1
	C311.9,175.1,310.9,174.9,309.8,174.9z"/>
<path class="st1" d="M293.8,208.4c4.8,0,8.8-3.9,8.8-8.8c0-4.8-3.9-8.8-8.8-8.8c-1.6,0-3,0.4-4.3,1.1l0,15.3
	C290.8,208,292.2,208.4,293.8,208.4z"/>
<circle class="st1" cx="309.8" cy="215.5" r="8.8"/>
<path class="st1" d="M293.8,240.2c4.8,0,8.8-3.9,8.8-8.8c0-4.8-3.9-8.8-8.8-8.8c-1.6,0-3,0.4-4.3,1.1l0,15.3
	C290.8,239.8,292.3,240.2,293.8,240.2z"/>
<circle class="st1" cx="309.8" cy="247.3" r="8.8"/>
<path class="st1" d="M285.4,260.6c-0.3,0.8-0.4,1.7-0.4,2.6c0,4.8,3.9,8.8,8.8,8.8c4.8,0,8.8-3.9,8.8-8.8c0-4.8-3.9-8.8-8.8-8.8
	c-1.9,0-3.7,0.6-5.1,1.6C288,258,286.9,259.5,285.4,260.6z"/>
<circle class="st1" cx="325.8" cy="40.6" r="8.8"/>
<circle class="st1" cx="341.8" cy="56.5" r="8.8"/>
<path class="st1" d="M334.5,72.4c0-4.8-3.9-8.8-8.8-8.8c-1.4,0-2.7,0.3-3.9,0.9l7.6,15.8C332.5,78.9,334.5,75.9,334.5,72.4z"/>
<path class="st1" d="M341.8,97.1c4.8,0,8.8-3.9,8.8-8.8c0-4.8-3.9-8.8-8.8-8.8c-4.6,0-8.4,3.6-8.7,8.1l3.8,7.9
	C338.2,96.5,339.9,97.1,341.8,97.1z"/>
<path class="st1" d="M356.1,125.2c0-4.8-3.9-8.8-8.8-8.8c-0.2,0-0.3,0-0.5,0l7,14.6C355.3,129.4,356.1,127.4,356.1,125.2z"/>
<path class="st1" d="M317,199.6c0,4.8,3.9,8.8,8.8,8.8c0.8,0,1.7-0.1,2.4-0.3l-7.4-15.7C318.5,194,317,196.6,317,199.6z"/>
<circle class="st1" cx="325.8" cy="231.4" r="8.8"/>
<path class="st1" d="M341.8,238.5c-4.8,0-8.8,3.9-8.8,8.8c0,4.8,3.9,8.8,8.8,8.8c3,0,5.7-1.5,7.3-3.9l-6.4-13.6
	C342.3,238.6,342,238.5,341.8,238.5z"/>
<circle class="st1" cx="325.8" cy="263.2" r="8.8"/>
<path class="st1" d="M357.7,31.8c-4.8,0-8.8,3.9-8.8,8.8c0,4.8,3.9,8.8,8.8,8.8c1.2,0,2.4-0.3,3.5-0.7l0.1-16.1
	C360.1,32.1,358.9,31.8,357.7,31.8z"/>
<path class="st1" d="M357.7,63.6c-4.8,0-8.8,3.9-8.8,8.8c0,4.8,3.9,8.8,8.8,8.8c1.2,0,2.3-0.2,3.3-0.6l0.1-16.2
	C360,63.9,358.9,63.6,357.7,63.6z"/>
<path class="st1" d="M360.9,96c-1-0.4-2.1-0.6-3.2-0.6c-4.8,0-8.8,3.9-8.8,8.8c0,4.8,3.9,8.8,8.8,8.8c1.3,0,2.5-0.3,3.6-0.8
	l-0.4-12.3L360.9,96z"/>
<path class="st1" d="M351.7,256.8c-1.7,1.6-2.8,3.9-2.8,6.4c0,4.8,3.9,8.8,8.8,8.8c4.8,0,8.8-3.9,8.8-8.8c0-0.1,0-0.2,0-0.4h-2.2
	C359.2,262.9,354.6,260.6,351.7,256.8z"/>
<path class="st1" d="M381.2,263.2c0,4.8,3.9,8.8,8.8,8.8c4.8,0,8.8-3.9,8.8-8.8c0-0.1,0-0.2,0-0.4h-17.5
	C381.3,263,381.2,263.1,381.2,263.2z"/>
<path class="st1" d="M421.9,49.3c4.8,0,8.8-3.9,8.8-8.8c0-4.8-3.9-8.8-8.8-8.8c-1.7,0-3.3,0.5-4.6,1.3V48
	C418.6,48.9,420.2,49.3,421.9,49.3z"/>
<path class="st1" d="M421.9,81.2c4.8,0,8.8-3.9,8.8-8.8c0-4.8-3.9-8.8-8.8-8.8c-1.7,0-3.3,0.5-4.6,1.3v14.9
	C418.6,80.7,420.2,81.2,421.9,81.2z"/>
<path class="st1" d="M421.9,113c4.8,0,8.8-3.9,8.8-8.8c0-4.8-3.9-8.8-8.8-8.8c-1.7,0-3.3,0.5-4.6,1.3v14.9
	C418.6,112.5,420.2,113,421.9,113z"/>
<path class="st1" d="M421.9,144.8c4.8,0,8.8-3.9,8.8-8.8c0-4.8-3.9-8.8-8.8-8.8c-1.7,0-3.3,0.5-4.6,1.3v14.9
	C418.6,144.3,420.2,144.8,421.9,144.8z"/>
<path class="st1" d="M421.9,176.6c4.8,0,8.8-3.9,8.8-8.8c0-4.8-3.9-8.8-8.8-8.8c-1.7,0-3.3,0.5-4.6,1.3v14.9
	C418.6,176.1,420.2,176.6,421.9,176.6z"/>
<path class="st1" d="M421.9,208.4c4.8,0,8.8-3.9,8.8-8.8c0-4.8-3.9-8.8-8.8-8.8c-1.7,0-3.3,0.5-4.6,1.3V207
	C418.6,207.9,420.2,208.4,421.9,208.4z"/>
<path class="st1" d="M421.9,240.2c4.8,0,8.8-3.9,8.8-8.8c0-4.8-3.9-8.8-8.8-8.8c-1.7,0-3.3,0.5-4.6,1.3v14.9
	C418.6,239.7,420.2,240.2,421.9,240.2z"/>
<path class="st1" d="M413.7,260.1c-0.4,1-0.6,2-0.6,3.1c0,4.8,3.9,8.8,8.8,8.8c4.8,0,8.8-3.9,8.8-8.8c0-4.8-3.9-8.8-8.8-8.8
	c-2.2,0-4.2,0.8-5.7,2.1C415.6,258,414.8,259.2,413.7,260.1z"/>
<circle class="st1" cx="1130.9" cy="8.8" r="8.8"/>
<path class="st1" d="M1172,8.8c0-4.8-3.9-8.8-8.8-8.8s-8.8,3.9-8.8,8.8c0,0.2,0,0.3,0,0.5l17.5,0C1172,9,1172,8.9,1172,8.8z"/>
<path class="st1" d="M1203.9,8.8c0-4.8-3.9-8.8-8.8-8.8s-8.8,3.9-8.8,8.8c0,0.1,0,0.3,0,0.4l17.5,0C1203.9,9,1203.9,8.9,1203.9,8.8z
	"/>
<path class="st1" d="M1235.8,9.1c0-0.1,0-0.2,0-0.4c0-4.8-3.9-8.8-8.8-8.8s-8.8,3.9-8.8,8.8c0,0.1,0,0.2,0,0.3l11.9,0
	C1232.1,9.1,1234,9.1,1235.8,9.1z"/>
<path class="st1" d="M1267.8,8.8c0-4.8-3.9-8.8-8.8-8.8s-8.8,3.9-8.8,8.8c0,0.4,0,0.8,0.1,1.2c5.6,0.5,11.2,1.4,16.6,2.6
	C1267.4,11.4,1267.8,10.1,1267.8,8.8z"/>
<circle class="st1" cx="1291.3" cy="8.8" r="8.8"/>
<path class="st1" d="M1303.7,32.7c1.1,0.5,2.3,0.8,3.6,0.8c4.8,0,8.8-3.9,8.8-8.8c0-4.8-3.9-8.8-8.8-8.8s-8.8,3.9-8.8,8.8
	c0,1.3,0.3,2.6,0.8,3.7C1300.9,29.7,1302.3,31.1,1303.7,32.7z"/>
<circle class="st1" cx="1323.2" cy="8.8" r="8.8"/>
<path class="st1" d="M1130.9,31.8c-4.8,0-8.8,3.9-8.8,8.8c0,4.8,3.9,8.8,8.8,8.8c2.6,0,4.9-1.1,6.5-2.9V34.7
	C1135.8,32.9,1133.5,31.8,1130.9,31.8z"/>
<path class="st1" d="M1130.9,63.6c-4.8,0-8.8,3.9-8.8,8.8c0,4.8,3.9,8.8,8.8,8.8c2.6,0,4.9-1.1,6.5-2.9V66.5
	C1135.8,64.7,1133.5,63.6,1130.9,63.6z"/>
<path class="st1" d="M1130.9,95.4c-4.8,0-8.8,3.9-8.8,8.8c0,4.8,3.9,8.8,8.8,8.8c2.6,0,4.9-1.1,6.5-2.9V98.3
	C1135.8,96.5,1133.5,95.4,1130.9,95.4z"/>
<path class="st1" d="M1130.9,127.2c-4.8,0-8.8,3.9-8.8,8.8c0,4.8,3.9,8.8,8.8,8.8c2.6,0,4.9-1.1,6.5-2.9v-11.8
	C1135.8,128.3,1133.5,127.2,1130.9,127.2z"/>
<path class="st1" d="M1130.9,159c-4.8,0-8.8,3.9-8.8,8.8c0,4.8,3.9,8.8,8.8,8.8c2.6,0,4.9-1.1,6.5-2.9v-11.8
	C1135.8,160.2,1133.5,159,1130.9,159z"/>
<path class="st1" d="M1130.9,190.8c-4.8,0-8.8,3.9-8.8,8.8c0,4.8,3.9,8.8,8.8,8.8c2.6,0,4.9-1.1,6.5-2.9v-11.8
	C1135.8,192,1133.5,190.8,1130.9,190.8z"/>
<path class="st1" d="M1130.9,222.6c-4.8,0-8.8,3.9-8.8,8.8c0,4.8,3.9,8.8,8.8,8.8c2.6,0,4.9-1.1,6.5-2.9v-11.8
	C1135.8,223.8,1133.5,222.6,1130.9,222.6z"/>
<circle class="st1" cx="1130.9" cy="263.2" r="8.8"/>
<path class="st1" d="M1154.5,263.2c0,4.8,3.9,8.8,8.8,8.8s8.8-3.9,8.8-8.8c0-0.1,0-0.2,0-0.3h-17.5
	C1154.5,263,1154.5,263.1,1154.5,263.2z"/>
<path class="st1" d="M1211.1,67.4c3.5,0,6.5-2.1,7.9-5.1h-15.9C1204.6,65.4,1207.6,67.4,1211.1,67.4z"/>
<path class="st1" d="M1243.3,68.7c2.2,0,4.1-0.8,5.7-2.1c-4.2-2.8-9.2-3.9-14.1-4.2C1236,66,1239.3,68.7,1243.3,68.7z"/>
<path class="st1" d="M1205.1,74.9c0-3.6-2.2-6.8-5.4-8.1v16.2C1202.9,81.6,1205.1,78.5,1205.1,74.9z"/>
<circle class="st1" cx="1212.4" cy="89.5" r="8.8"/>
<path class="st1" d="M1205.1,104.2c0-3.6-2.2-6.8-5.4-8.1v16.2C1202.9,110.9,1205.1,107.8,1205.1,104.2z"/>
<circle class="st1" cx="1211.1" cy="215.5" r="8.8"/>
<circle class="st1" cx="1211.1" cy="247.3" r="8.8"/>
<path class="st1" d="M1188.4,262.9h-2c0,0.1,0,0.2,0,0.3c0,4.8,3.9,8.8,8.8,8.8s8.8-3.9,8.8-8.8c0-3.2-1.7-6-4.3-7.5
	C1198.1,260.3,1194.1,262.9,1188.4,262.9z"/>
<circle class="st1" cx="1228.3" cy="74.9" r="8.8"/>
<circle class="st1" cx="1244.3" cy="89.5" r="8.8"/>
<circle class="st1" cx="1228.3" cy="105.4" r="8.8"/>
<path class="st1" d="M1243.1,111.3c-4.8,0-8.8,3.9-8.8,8.8c0,0.7,0.1,1.4,0.2,2c5.7-0.2,11.8-1.6,16.5-5.7
	C1249.6,113.4,1246.6,111.3,1243.1,111.3z"/>
<path class="st1" d="M1234.3,183.7c0,4.8,3.9,8.8,8.8,8.8s8.8-3.9,8.8-8.8c0-4.6-3.5-8.3-8-8.7c-0.8,0-1.7,0.1-2.5,0.1
	C1237.3,175.9,1234.3,179.5,1234.3,183.7z"/>
<circle class="st1" cx="1243.1" cy="215.5" r="8.8"/>
<circle class="st1" cx="1227.1" cy="231.4" r="8.8"/>
<circle class="st1" cx="1243.1" cy="247.3" r="8.8"/>
<circle class="st1" cx="1227.1" cy="263.2" r="8.8"/>
<path class="st1" d="M1258.5,83.6c-1-6.5-3.3-11.1-6.3-14.3c-1.2,1.5-2,3.4-2,5.6C1250.2,79.6,1253.9,83.4,1258.5,83.6z"/>
<path class="st1" d="M1250.2,104.2c0,3.3,1.8,6.2,4.5,7.7c2.4-3.9,4-9.3,4.3-16.5c0,0,0,0,0,0C1254.1,95.4,1250.2,99.3,1250.2,104.2
	z"/>
<path class="st1" d="M1259,176.6c3.4,0,6.3-1.9,7.8-4.7c-4.5,1-9.1,1.8-13.8,2.3C1254.5,175.7,1256.7,176.6,1259,176.6z"/>
<circle class="st1" cx="1275" cy="183.7" r="8.8"/>
<circle class="st1" cx="1259" cy="199.6" r="8.8"/>
<circle class="st1" cx="1275" cy="215.5" r="8.8"/>
<circle class="st1" cx="1259" cy="231.4" r="8.8"/>
<circle class="st1" cx="1275" cy="247.3" r="8.8"/>
<circle class="st1" cx="1259" cy="263.2" r="8.8"/>
<path class="st1" d="M1299.5,155.9c1.5,2.8,4.4,4.8,7.8,4.8c4.8,0,8.8-3.9,8.8-8.8c0-3.9-2.6-7.3-6.2-8.4
	C1306.9,148.3,1303.4,152.4,1299.5,155.9z"/>
<path class="st1" d="M1282.6,167.8c0,4.8,3.9,8.8,8.8,8.8s8.8-3.9,8.8-8.8c0-3.6-2.2-6.7-5.3-8.1c-3.8,2.7-7.9,5-12.1,6.9
	C1282.6,167,1282.6,167.4,1282.6,167.8z"/>
<circle class="st1" cx="1307.3" cy="183.7" r="8.8"/>
<circle class="st1" cx="1291.3" cy="199.6" r="8.8"/>
<circle class="st1" cx="1307.3" cy="215.5" r="8.8"/>
<circle class="st1" cx="1291.3" cy="231.4" r="8.8"/>
<circle class="st1" cx="1307.3" cy="247.3" r="8.8"/>
<circle class="st1" cx="1291.3" cy="263.2" r="8.8"/>
<circle class="st1" cx="1323.2" cy="40.6" r="8.8"/>
<path class="st1" d="M1332,72.4c0-4.8-3.9-8.8-8.8-8.8c-1.5,0-2.9,0.4-4.1,1c1,5,1.8,10.4,2.1,16.3c0.6,0.2,1.3,0.2,2,0.2
	C1328.1,81.2,1332,77.2,1332,72.4z"/>
<path class="st1" d="M1323.2,113c4.8,0,8.8-3.9,8.8-8.8c0-4.8-3.9-8.8-8.8-8.8c-0.6,0-1.2,0.1-1.8,0.2c0,6.1-0.4,11.7-1.1,16.9
	C1321.3,112.8,1322.2,113,1323.2,113z"/>
<path class="st1" d="M1314.4,136c0,4.8,3.9,8.8,8.8,8.8s8.8-3.9,8.8-8.8c0-4.8-3.9-8.8-8.8-8.8c-3,0-5.7,1.5-7.3,3.9
	c-0.4,1.2-0.9,2.3-1.3,3.4C1314.5,135,1314.4,135.5,1314.4,136z"/>
<circle class="st1" cx="1323.2" cy="167.8" r="8.8"/>
<circle class="st1" cx="1323.2" cy="199.6" r="8.8"/>
<circle class="st1" cx="1323.2" cy="231.4" r="8.8"/>
<circle class="st1" cx="1323.2" cy="263.2" r="8.8"/>
<rect y="27.1" class="st1" width="203.8" height="17.3"/>
<rect y="126.8" class="st1" width="203.3" height="17.3"/>
<rect y="227.6" class="st1" width="204.5" height="17.3"/>
<rect x="901.3" y="27.1" class="st1" width="203.8" height="17.3"/>
<rect x="901.3" y="126.8" class="st1" width="203.3" height="17.3"/>
<rect x="901.3" y="227.6" class="st1" width="204.5" height="17.3"/>
<path class="st1" d="M458.2,142.5v-13c0-80.4,25.1-118.2,81.8-123.9V0.9h-91.1v270.2H540v-4.7C483.3,260.7,458.2,222.9,458.2,142.5z
	"/>
<path class="st1" d="M572,266.7v4.4h85.8v-68.3H648C640.5,242.7,617.4,263.3,572,266.7z"/>
<path class="st1" d="M649,81.2h8.8V0.9H572v4.5C621.4,9.1,643.7,30.7,649,81.2z"/>
<path class="st1" d="M650.1,95.4c-0.1,7.3-4.6,11.6-12,11.6h-37.5c-7.5,0-12-4.5-12-12c-1.5-22.5-9-37.5-29.2-37h-3.2
	c-30.8,0-35.4,27.6-35.4,71.5v13c0,43.8,4.5,71.4,35.4,71.4h3.2c17.2-0.3,26.2-10.8,29.2-27.3c0-7.5,4.5-12,12-12h37.5
	c7.5,0,12,4.5,12,12c0,0.4-0.1,0.9-0.1,1.3h7.9V95.4H650.1z"/>
<g>
	<rect x="1434.5" y="0.9" class="st1" width="47.3" height="8.2"/>
	<path class="st1" d="M1423.9,250.9l-0.1-188.6l-44.9-0.6c-7.5,0-12-3-12-12V21.1c0-7.5,4.5-12,12-12h25.6V0.9H1351v270.2h88.7v-8.2
		h-3.7C1428.4,262.9,1423.9,258.4,1423.9,250.9z"/>
	<path class="st1" d="M1511.9,0.9v8.2h18.6c7.5,0,12,3,12,12v28.5c0,7.5-4.5,12-12,12l-45,0.6l-0.1,188.6c0,7.5-4.5,12-12,12h-4.4
		v8.2h91V0.9H1511.9z"/>
</g>
<path class="st1" d="M1202.4,183.7c0,4.8,3.9,8.8,8.8,8.8s8.8-3.9,8.8-8.8c0-3.9-2.6-7.2-6.1-8.3h-5.4
	C1204.9,176.5,1202.4,179.8,1202.4,183.7z"/>
<circle class="st1" cx="1227.1" cy="199.6" r="8.8"/>
<path class="st1" d="M1199.8,160.2V175c2.5-1.5,4.1-4.3,4.1-7.4C1203.9,164.5,1202.3,161.7,1199.8,160.2z"/>
<path class="st1" d="M1199.8,135.9v14.9c2.5-1.5,4.1-4.3,4.1-7.4C1203.9,140.2,1202.2,137.4,1199.8,135.9z"/>
<path class="st1" d="M1207,122.1h12.5c0.2-0.8,0.4-1.6,0.4-2.5c0-3.9-2.6-7.2-6.1-8.3h-5.4c-3.5,1.1-6.1,4.4-6.1,8.3
	c0,3.3,1.9,6.3,4.6,7.7V122.1z"/>
<path class="st1" d="M1230.2,175.4h-7.3c1.2,0.6,2.6,1,4.1,1c1.5,0,2.9-0.4,4.1-1C1230.9,175.4,1230.6,175.4,1230.2,175.4z"/>
</svg>
