<?xml version="1.0" encoding="utf-8"?>
<!-- Generator: Adobe Illustrator 20.1.0, SVG Export Plug-In . SVG Version: 6.00 Build 0)  -->
<svg version="1.1" id="Layer_1" xmlns="http://www.w3.org/2000/svg" xmlns:xlink="http://www.w3.org/1999/xlink" x="0px" y="0px"
	 viewBox="0 0 1296 864" style="enable-background:new 0 0 1296 864;" xml:space="preserve" width="18in" height="12in">
<style type="text/css">
	.st0{display:none;}
	.st1{display:inline;fill:#EC484F;stroke:#EC484F;stroke-miterlimit:10;}
	.st2{display:inline;fill:#456DAA;stroke:#456DAA;stroke-miterlimit:10;}
	.st3{display:inline;}
	.st4{fill:#456DAA;stroke:#456DAA;stroke-miterlimit:10;}
	.st5{fill:#2E3192;stroke:#ED1C24;stroke-miterlimit:10;}
	.st6{fill:none;stroke:#000000;stroke-miterlimit:10;}
</style>
<g class="st0">
	<path class="st1" d="M640.5,792.5l21.9,56.9c2.2,5.5,5.5,7.8,10,7.8h31c6.6,0,8.9-5.5,6.6-11.1l-24.7-59.8
		c16.5-7.5,28.8-22.3,28.8-52.8v-4.8c0-51.8-35.7-59-67.3-59l-55.2,0.1c-5.5,0-8.9,2.2-8.9,8.9v169.6c0,5.5,3.3,8.9,8.9,8.9h27.7
		c5.5,0,8.9-3.3,8.9-8.9l-0.2-47.1l0,0v-48.1v-1.7v-42.3h20.8c8.9,0,19.4,3.3,19.4,21.1v1.9c0,17.7-10.6,21.1-19.4,21.1h-15.5v39.4"
		/>
	<path class="st1" d="M826.9,856.9h-27.7c-5.5,0-8.9-3.3-8.9-8.9l-0.4-50.4l-48.4-117c-2.2-5.5,0-10,6.6-10h31c4.4,0,7.8,1.1,10,6.6
		l23.6,59.8l23-59.8c2.2-5.5,5.5-6.6,10-6.6h32.1c6.6,0,8.9,4.4,6.6,10l-49,117l0.2,50.4C835.8,853.6,832.5,856.9,826.9,856.9z"/>
	<path class="st1" d="M222.1,679v21c0,6.6-3.3,8.9-8.9,8.9l-67.1,0.4v33.7l66.8,0.2c5.5,0,8.9,2.2,8.9,8.9v21c0,5.5-3.3,8.9-8.9,8.9
		l-66.8,0.3v35.3l67.5-0.1c5.5,0,8.9,2.2,8.9,8.9v22.2c0,5.5-3.3,8.9-8.9,8.9H109.6c-5.5,0-8.9-3.3-8.9-8.9V679
		c0-5.5,3.3-8.9,8.9-8.9h103.8C218.8,670.2,222.1,673.5,222.1,679z"/>
	<path class="st1" d="M482.7,821h2.4c12.7-0.2,19.3-8,21.6-20.2c0-5.5,3.3-8.9,8.9-8.9h27.7c5.5,0,8.9,3.3,8.9,8.9
		c-3.3,41-23.3,59.9-69.3,59.5c-50.4,0-72.4-27.3-72.4-92.1v-9.6c0-64.8,22.1-92.1,72.4-92.1c48.3,0.1,67.1,17.9,69.3,66.7
		c0,5.5-3.3,8.9-8.9,8.9h-27.7c-5.5,0-8.9-3.3-8.9-8.9c-1.1-16.6-6.6-27.7-21.6-27.3h-2.4c-22.7,0-26.1,20.4-26.1,52.8v9.6
		C456.6,800.6,459.9,821,482.7,821z"/>
	<path class="st1" d="M1160,857.2h-27.7c-5.5,0-8.9-3.3-8.9-8.9l-0.1-139.3l-33.2-0.4c-5.5,0-8.9-2.2-8.9-8.9v-21.1
		c0-5.5,3.3-8.9,8.9-8.9h111.9c5.5,0,8.9,2.2,8.9,8.9v21c0,5.5-3.3,8.9-8.9,8.9l-33.2,0.4l-0.1,139.3
		C1168.9,853.9,1165.6,857.2,1160,857.2z"/>
	<path class="st1" d="M371.7,857.2h-30.7c-4.5,0.1-8.6-2.6-10.6-6.6l-45.7-96.9l1.1,36l0.1,58.7c0,5.5-3.2,8.9-8.5,8.9H253
		c-5.3,0-8.5-2.2-8.5-8.9V678.6c0-5.5,3.2-8.9,8.5-8.9h30.7c4.2,0,7.4,2.2,9.5,6.6l46.4,96.4l-1.1-36l0.4-58.2
		c0-5.5,3.2-8.9,8.5-8.9h24.4c5.3,0,8.5,2.2,8.5,8.9v169.6C380.1,853.9,376.9,857.2,371.7,857.2z"/>
	<path class="st1" d="M980.5,669.8l-59.7,0.1c-5.5,0-8.9,2.2-8.9,8.9v169.6c0,5.5,3.3,8.9,8.9,8.9h28.8c5.5,0,8.9-3.3,8.9-8.9
		l-0.4-55.8v-39.3v-44.1h24.4c8.9,0,19.4,3.4,19.4,21.1v1.9c0,17.7-10.6,21.1-19.4,21.1h-19v39.3h17.1c31.6,0,67.3-7.2,67.3-59v-4.8
		C1047.9,676.9,1012.1,669.8,980.5,669.8z"/>
	<polygon class="st2" points="712.5,663.7 570.7,768.3 570.7,778.1 725,664.2 725,663.7 	"/>
	<polygon class="st2" points="570.7,801.8 725,688 725,678.2 570.7,792.1 	"/>
	<polygon class="st2" points="570.7,825.6 725,711.8 725,702 570.7,815.9 	"/>
	<polygon class="st2" points="570.7,849.4 725,735.6 725,725.8 570.7,839.6 	"/>
	<polygon class="st2" points="583.6,663.7 570.7,673.3 570.7,683 596.8,663.7 	"/>
	<polygon class="st2" points="615.8,663.7 570.7,697 570.7,706.8 629,663.7 	"/>
	<polygon class="st2" points="648,663.7 570.7,720.7 570.7,730.6 661.3,663.7 	"/>
	<polygon class="st2" points="680.3,663.7 570.7,744.5 570.7,754.3 693.5,663.7 	"/>
	<polygon class="st2" points="584.1,863.3 725,759.3 725,749.5 570.8,863.3 	"/>
	<polygon class="st2" points="616.3,863.3 725,783.1 725,773.3 603,863.3 	"/>
	<polygon class="st2" points="648.5,863.3 725,806.8 725,797.1 635.3,863.3 	"/>
	<polygon class="st2" points="680.8,863.3 725,830.6 725,820.8 667.5,863.3 	"/>
	<polygon class="st2" points="713,863.3 725,854.4 725,844.6 699.7,863.3 	"/>
	<path class="st2" d="M247.8,671.3c0.1-0.6,0.2-1.2,0.2-1.8c0-3.5-2.9-6.5-6.5-6.5c-3.5,0-6.5,2.9-6.5,6.5c0,3.5,2.9,6.5,6.5,6.5
		c1.3,0,2.5-0.4,3.5-1C245.6,673.4,246.5,672.1,247.8,671.3z"/>
	<path class="st2" d="M271.9,669.6c0-3.5-2.9-6.5-6.5-6.5c-3.5,0-6.5,2.9-6.5,6.5c0,0.1,0,0.1,0,0.3h12.9
		C271.9,669.7,271.9,669.6,271.9,669.6z"/>
	<path class="st2" d="M292.4,675c1.8-1.2,3-3.2,3-5.5c0-3.5-2.9-6.5-6.5-6.5c-3.5,0-6.4,2.9-6.4,6.5c0,0.1,0,0.1,0,0.3h1.2
		C287.5,669.8,290.4,671.6,292.4,675z"/>
	<path class="st2" d="M300.8,687.8c3.5,0,6.5-2.9,6.5-6.5c0-3.5-2.9-6.5-6.5-6.5c-2.9,0-5.3,1.9-6.1,4.5l3.8,8
		C299.2,687.6,300,687.8,300.8,687.8z"/>
	<circle class="st2" cx="312.6" cy="669.6" r="6.5"/>
	<circle class="st2" cx="324.4" cy="681.3" r="6.5"/>
	<path class="st2" d="M342.4,671c0.1-0.5,0.2-1,0.2-1.6c0-3.5-2.9-6.5-6.5-6.5c-3.5,0-6.5,2.9-6.5,6.5c0,3.5,2.9,6.5,6.5,6.5
		c1.2,0,2.2-0.3,3.2-0.8C339.9,673.4,340.9,672,342.4,671z"/>
	<path class="st2" d="M366.5,669.6c0-3.5-2.9-6.5-6.5-6.5c-3.5,0-6.5,2.9-6.5,6.5c0,0.1,0,0.1,0,0.3h12.9
		C366.5,669.7,366.5,669.6,366.5,669.6z"/>
	<path class="st2" d="M379.6,674.7c1.1,0.9,2.4,1.3,4,1.3c3.5,0,6.5-2.9,6.5-6.5c0-3.5-2.9-6.5-6.5-6.5c-3.5,0-6.5,2.9-6.5,6.5
		c0,0.6,0.1,1.2,0.2,1.8C378.4,672.1,379.1,673.2,379.6,674.7z"/>
	<path class="st2" d="M241.6,686.5c-3.5,0-6.5,2.9-6.5,6.5c0,3.5,2.9,6.5,6.5,6.5c1.1,0,2.1-0.3,3-0.7v-11.5
		C243.6,686.8,242.6,686.5,241.6,686.5z"/>
	<path class="st2" d="M241.6,710c-3.5,0-6.5,2.9-6.5,6.5c0,3.5,2.9,6.5,6.5,6.5c1.1,0,2.1-0.3,3-0.7v-11.5
		C243.6,710.3,242.6,710,241.6,710z"/>
	<path class="st2" d="M241.6,733.5c-3.5,0-6.5,2.9-6.5,6.5c0,3.5,2.9,6.5,6.5,6.5c1.1,0,2.1-0.3,3-0.7v-11.5
		C243.6,733.8,242.6,733.5,241.6,733.5z"/>
	<path class="st2" d="M241.6,757c-3.5,0-6.5,2.9-6.5,6.5c0,3.5,2.9,6.5,6.5,6.5c1.1,0,2.1-0.3,3-0.7v-11.5
		C243.6,757.3,242.6,757,241.6,757z"/>
	<path class="st2" d="M241.6,780.5c-3.5,0-6.5,2.9-6.5,6.5c0,3.5,2.9,6.5,6.5,6.5c1.1,0,2.1-0.3,3-0.7v-11.5
		C243.6,780.8,242.6,780.5,241.6,780.5z"/>
	<path class="st2" d="M241.6,804c-3.5,0-6.5,2.9-6.5,6.5c0,3.5,2.9,6.5,6.5,6.5c1.1,0,2.1-0.3,3-0.7v-11.5
		C243.6,804.3,242.6,804,241.6,804z"/>
	<path class="st2" d="M241.6,827.4c-3.5,0-6.5,2.9-6.5,6.5c0,3.5,2.9,6.5,6.5,6.5c1.1,0,2.1-0.3,3-0.7v-11.5
		C243.6,827.7,242.6,827.4,241.6,827.4z"/>
	<path class="st2" d="M244.9,852c-1-0.6-2.1-1-3.4-1c-3.5,0-6.5,2.9-6.5,6.5c0,3.5,2.9,6.5,6.5,6.5c3.5,0,6.5-2.9,6.5-6.5
		c0-0.5-0.1-1-0.1-1.4C246.4,855.2,245.5,853.9,244.9,852z"/>
	<path class="st2" d="M259,857.4c0,3.5,2.9,6.5,6.5,6.5c3.5,0,6.5-2.9,6.5-6.5c0-0.1,0-0.1,0-0.3h-12.9
		C259,857.3,259,857.4,259,857.4z"/>
	<path class="st2" d="M307.3,704.8c0-2.3-1.2-4.4-3-5.5l3,6.2C307.3,705.2,307.3,705,307.3,704.8z"/>
	<path class="st2" d="M285.2,771c1,0.7,2.1,1.1,3.2,1.1c1.5,0,2.9-0.7,4.1-1.9l-7.8-16.6L285.2,771z"/>
	<path class="st2" d="M285.8,792.6c1,0.5,2.1,0.9,3.2,0.9c3.5,0,6.5-2.9,6.5-6.5c0-3.5-2.9-6.5-6.5-6.5c-1.3,0-2.4,0.4-3.5,1
		l0.2,8.1L285.8,792.6z"/>
	<path class="st2" d="M300.8,792.2c-3.5,0-6.5,2.9-6.5,6.5c0,3.5,2.9,6.5,6.5,6.5c2.8,0,5.2-1.8,6.1-4.4l-3.8-8.2
		C302.3,792.4,301.6,792.2,300.8,792.2z"/>
	<path class="st2" d="M289,817c3.5,0,6.5-2.9,6.5-6.5c0-3.5-2.9-6.5-6.5-6.5c-1.2,0-2.2,0.3-3.2,0.8v11.3
		C286.7,816.7,287.8,817,289,817z"/>
	<circle class="st2" cx="300.8" cy="822.2" r="6.5"/>
	<path class="st2" d="M289,840.4c3.5,0,6.5-2.9,6.5-6.5c0-3.5-2.9-6.5-6.5-6.5c-1.2,0-2.2,0.3-3.2,0.8v11.3
		C286.7,840.1,287.9,840.4,289,840.4z"/>
	<circle class="st2" cx="300.8" cy="845.7" r="6.5"/>
	<path class="st2" d="M282.8,855.5c-0.2,0.6-0.3,1.3-0.3,1.9c0,3.5,2.9,6.5,6.5,6.5c3.5,0,6.5-2.9,6.5-6.5c0-3.5-2.9-6.5-6.5-6.5
		c-1.4,0-2.7,0.4-3.8,1.2C284.7,853.6,283.9,854.7,282.8,855.5z"/>
	<circle class="st2" cx="312.6" cy="693" r="6.5"/>
	<circle class="st2" cx="324.4" cy="704.8" r="6.5"/>
	<path class="st2" d="M319,716.5c0-3.5-2.9-6.5-6.5-6.5c-1,0-2,0.2-2.9,0.7l5.6,11.7C317.5,721.3,319,719.1,319,716.5z"/>
	<path class="st2" d="M324.4,734.8c3.5,0,6.5-2.9,6.5-6.5c0-3.5-2.9-6.5-6.5-6.5c-3.4,0-6.2,2.7-6.4,6l2.8,5.8
		C321.7,734.3,323,734.8,324.4,734.8z"/>
	<path class="st2" d="M335,755.5c0-3.5-2.9-6.5-6.5-6.5c-0.1,0-0.2,0-0.4,0l5.2,10.8C334.4,758.6,335,757.1,335,755.5z"/>
	<path class="st2" d="M306.1,810.5c0,3.5,2.9,6.5,6.5,6.5c0.6,0,1.3-0.1,1.8-0.2l-5.5-11.6C307.2,806.3,306.1,808.2,306.1,810.5z"/>
	<circle class="st2" cx="312.6" cy="833.9" r="6.5"/>
	<path class="st2" d="M324.4,839.2c-3.5,0-6.5,2.9-6.5,6.5c0,3.5,2.9,6.5,6.5,6.5c2.2,0,4.2-1.1,5.4-2.9l-4.7-10
		C324.8,839.3,324.6,839.2,324.4,839.2z"/>
	<circle class="st2" cx="312.6" cy="857.4" r="6.5"/>
	<path class="st2" d="M336.1,686.5c-3.5,0-6.5,2.9-6.5,6.5c0,3.5,2.9,6.5,6.5,6.5c0.9,0,1.8-0.2,2.6-0.5l0.1-11.9
		C337.9,686.8,337,686.5,336.1,686.5z"/>
	<path class="st2" d="M336.1,710c-3.5,0-6.5,2.9-6.5,6.5c0,3.5,2.9,6.5,6.5,6.5c0.9,0,1.7-0.1,2.4-0.4l0.1-12
		C337.8,710.3,337,710,336.1,710z"/>
	<path class="st2" d="M338.5,734c-0.7-0.3-1.6-0.4-2.4-0.4c-3.5,0-6.5,2.9-6.5,6.5c0,3.5,2.9,6.5,6.5,6.5c1,0,1.8-0.2,2.7-0.6
		l-0.3-9.1V734z"/>
	<path class="st2" d="M331.7,852.7c-1.3,1.2-2.1,2.9-2.1,4.7c0,3.5,2.9,6.5,6.5,6.5c3.5,0,6.5-2.9,6.5-6.5c0-0.1,0-0.1,0-0.3H341
		C337.3,857.2,333.9,855.5,331.7,852.7z"/>
	<path class="st2" d="M353.5,857.4c0,3.5,2.9,6.5,6.5,6.5c3.5,0,6.5-2.9,6.5-6.5c0-0.1,0-0.1,0-0.3h-12.9
		C353.6,857.3,353.5,857.4,353.5,857.4z"/>
	<path class="st2" d="M383.6,699.5c3.5,0,6.5-2.9,6.5-6.5c0-3.5-2.9-6.5-6.5-6.5c-1.3,0-2.4,0.4-3.4,1v11.1
		C381.1,699.2,382.3,699.5,383.6,699.5z"/>
	<path class="st2" d="M383.6,723c3.5,0,6.5-2.9,6.5-6.5c0-3.5-2.9-6.5-6.5-6.5c-1.3,0-2.4,0.4-3.4,1v11
		C381.1,722.7,382.3,723,383.6,723z"/>
	<path class="st2" d="M383.6,746.5c3.5,0,6.5-2.9,6.5-6.5c0-3.5-2.9-6.5-6.5-6.5c-1.3,0-2.4,0.4-3.4,1v11
		C381.1,746.1,382.3,746.5,383.6,746.5z"/>
	<path class="st2" d="M383.6,770c3.5,0,6.5-2.9,6.5-6.5c0-3.5-2.9-6.5-6.5-6.5c-1.3,0-2.4,0.4-3.4,1v11
		C381.1,769.6,382.3,770,383.6,770z"/>
	<path class="st2" d="M383.6,793.5c3.5,0,6.5-2.9,6.5-6.5c0-3.5-2.9-6.5-6.5-6.5c-1.3,0-2.4,0.4-3.4,1v11
		C381.1,793.1,382.3,793.5,383.6,793.5z"/>
	<path class="st2" d="M383.6,817c3.5,0,6.5-2.9,6.5-6.5c0-3.5-2.9-6.5-6.5-6.5c-1.3,0-2.4,0.4-3.4,1v11
		C381.1,816.6,382.3,817,383.6,817z"/>
	<path class="st2" d="M383.6,840.4c3.5,0,6.5-2.9,6.5-6.5c0-3.5-2.9-6.5-6.5-6.5c-1.3,0-2.4,0.4-3.4,1v11
		C381.1,840.1,382.3,840.4,383.6,840.4z"/>
	<path class="st2" d="M377.5,855.1c-0.3,0.7-0.4,1.5-0.4,2.3c0,3.5,2.9,6.5,6.5,6.5c3.5,0,6.5-2.9,6.5-6.5c0-3.5-2.9-6.5-6.5-6.5
		c-1.6,0-3.1,0.6-4.2,1.6C378.9,853.6,378.3,854.5,377.5,855.1z"/>
	<circle class="st2" cx="907.1" cy="669.6" r="6.5"/>
	<path class="st2" d="M937.5,669.6c0-3.5-2.9-6.5-6.5-6.5c-3.6,0-6.5,2.9-6.5,6.5c0,0.1,0,0.2,0,0.4h12.9
		C937.5,669.7,937.5,669.6,937.5,669.6z"/>
	<path class="st2" d="M961,669.6c0-3.5-2.9-6.5-6.5-6.5c-3.6,0-6.5,2.9-6.5,6.5c0,0.1,0,0.2,0,0.3H961
		C961,669.7,961,669.6,961,669.6z"/>
	<path class="st2" d="M984.6,669.8c0-0.1,0-0.1,0-0.3c0-3.5-2.9-6.5-6.5-6.5c-3.6,0-6.5,2.9-6.5,6.5c0,0.1,0,0.1,0,0.2h8.8
		C981.9,669.8,983.3,669.8,984.6,669.8z"/>
	<path class="st2" d="M1008.2,669.6c0-3.5-2.9-6.5-6.5-6.5s-6.5,2.9-6.5,6.5c0,0.3,0,0.6,0.1,0.9c4.1,0.4,8.3,1,12.3,1.9
		C1007.9,671.5,1008.2,670.5,1008.2,669.6z"/>
	<circle class="st2" cx="1025.6" cy="669.6" r="6.5"/>
	<path class="st2" d="M1034.7,687.2c0.8,0.4,1.7,0.6,2.7,0.6c3.5,0,6.5-2.9,6.5-6.5c0-3.5-2.9-6.5-6.5-6.5c-3.6,0-6.5,2.9-6.5,6.5
		c0,1,0.2,1.9,0.6,2.7C1032.7,685,1033.7,686,1034.7,687.2z"/>
	<circle class="st2" cx="1049.1" cy="669.6" r="6.5"/>
	<path class="st2" d="M907.1,686.5c-3.5,0-6.5,2.9-6.5,6.5c0,3.5,2.9,6.5,6.5,6.5c1.9,0,3.6-0.8,4.8-2.1v-8.7
		C910.7,687.4,909,686.5,907.1,686.5z"/>
	<path class="st2" d="M907.1,710c-3.5,0-6.5,2.9-6.5,6.5c0,3.5,2.9,6.5,6.5,6.5c1.9,0,3.6-0.8,4.8-2.1v-8.7
		C910.7,710.8,909,710,907.1,710z"/>
	<path class="st2" d="M907.1,733.5c-3.5,0-6.5,2.9-6.5,6.5c0,3.5,2.9,6.5,6.5,6.5c1.9,0,3.6-0.8,4.8-2.1v-8.7
		C910.7,734.3,909,733.5,907.1,733.5z"/>
	<path class="st2" d="M907.1,757c-3.5,0-6.5,2.9-6.5,6.5c0,3.5,2.9,6.5,6.5,6.5c1.9,0,3.6-0.8,4.8-2.1v-8.7
		C910.7,757.8,909,757,907.1,757z"/>
	<path class="st2" d="M907.1,780.5c-3.5,0-6.5,2.9-6.5,6.5c0,3.5,2.9,6.5,6.5,6.5c1.9,0,3.6-0.8,4.8-2.1v-8.7
		C910.7,781.4,909,780.5,907.1,780.5z"/>
	<path class="st2" d="M907.1,804c-3.5,0-6.5,2.9-6.5,6.5c0,3.5,2.9,6.5,6.5,6.5c1.9,0,3.6-0.8,4.8-2.1v-8.7
		C910.7,804.8,909,804,907.1,804z"/>
	<path class="st2" d="M907.1,827.4c-3.5,0-6.5,2.9-6.5,6.5c0,3.5,2.9,6.5,6.5,6.5c1.9,0,3.6-0.8,4.8-2.1v-8.7
		C910.7,828.3,909,827.4,907.1,827.4z"/>
	<circle class="st2" cx="907.1" cy="857.4" r="6.5"/>
	<path class="st2" d="M924.6,857.4c0,3.5,2.9,6.5,6.5,6.5c3.6,0,6.5-2.9,6.5-6.5c0-0.1,0-0.1,0-0.2h-12.9
		C924.6,857.3,924.6,857.4,924.6,857.4z"/>
	<path class="st2" d="M966.4,712.8c2.6,0,4.8-1.6,5.8-3.8h-11.7C961.6,711.4,963.8,712.8,966.4,712.8z"/>
	<path class="st2" d="M990.1,713.8c1.6,0,3-0.6,4.2-1.6c-3.1-2.1-6.8-2.9-10.4-3.1C984.7,711.8,987.2,713.8,990.1,713.8z"/>
	<path class="st2" d="M961.9,718.4c0-2.7-1.6-5-4-6v12C960.3,723.3,961.9,721,961.9,718.4z"/>
	<circle class="st2" cx="967.3" cy="729.2" r="6.5"/>
	<path class="st2" d="M961.9,740c0-2.7-1.6-5-4-6v12C960.3,745,961.9,742.7,961.9,740z"/>
	<circle class="st2" cx="966.4" cy="822.2" r="6.5"/>
	<circle class="st2" cx="966.4" cy="845.7" r="6.5"/>
	<path class="st2" d="M949.6,857.2h-1.5c0,0.1,0,0.1,0,0.2c0,3.5,2.9,6.5,6.5,6.5c3.6,0,6.5-2.9,6.5-6.5c0-2.4-1.3-4.4-3.2-5.5
		C956.8,855.3,953.8,857.2,949.6,857.2z"/>
	<circle class="st2" cx="979.1" cy="718.4" r="6.5"/>
	<circle class="st2" cx="990.9" cy="729.2" r="6.5"/>
	<circle class="st2" cx="979.1" cy="740.9" r="6.5"/>
	<path class="st2" d="M990,745.3c-3.5,0-6.5,2.9-6.5,6.5c0,0.5,0.1,1,0.1,1.5c4.2-0.1,8.7-1.2,12.2-4.2
		C994.8,746.8,992.6,745.3,990,745.3z"/>
	<path class="st2" d="M983.5,798.7c0,3.5,2.9,6.5,6.5,6.5s6.5-2.9,6.5-6.5c0-3.4-2.6-6.1-5.9-6.4c-0.6,0-1.3,0.1-1.8,0.1
		C985.7,793,983.5,795.6,983.5,798.7z"/>
	<circle class="st2" cx="990" cy="822.2" r="6.5"/>
	<circle class="st2" cx="978.2" cy="833.9" r="6.5"/>
	<circle class="st2" cx="990" cy="845.7" r="6.5"/>
	<circle class="st2" cx="978.2" cy="857.4" r="6.5"/>
	<path class="st2" d="M1001.4,724.8c-0.7-4.8-2.4-8.2-4.7-10.6c-0.9,1.1-1.5,2.5-1.5,4.1C995.2,721.8,998,724.7,1001.4,724.8z"/>
	<path class="st2" d="M995.2,740c0,2.4,1.3,4.6,3.3,5.7c1.8-2.9,3-6.9,3.2-12.2l0,0C998.1,733.5,995.2,736.4,995.2,740z"/>
	<path class="st2" d="M1001.7,793.5c2.5,0,4.7-1.4,5.8-3.5c-3.3,0.7-6.7,1.3-10.2,1.7C998.4,792.8,1000,793.5,1001.7,793.5z"/>
	<circle class="st2" cx="1013.5" cy="798.7" r="6.5"/>
	<circle class="st2" cx="1001.7" cy="810.5" r="6.5"/>
	<circle class="st2" cx="1013.5" cy="822.2" r="6.5"/>
	<circle class="st2" cx="1001.7" cy="833.9" r="6.5"/>
	<circle class="st2" cx="1013.5" cy="845.7" r="6.5"/>
	<circle class="st2" cx="1001.7" cy="857.4" r="6.5"/>
	<path class="st2" d="M1031.6,778.2c1.1,2.1,3.2,3.5,5.8,3.5c3.5,0,6.5-2.9,6.5-6.5c0-2.9-1.9-5.4-4.6-6.2
		C1037.1,772.6,1034.5,775.6,1031.6,778.2z"/>
	<path class="st2" d="M1019.2,787c0,3.5,2.9,6.5,6.5,6.5c3.6,0,6.5-2.9,6.5-6.5c0-2.7-1.6-4.9-3.9-6c-2.8,2-5.8,3.7-8.9,5.1
		C1019.2,786.4,1019.2,786.7,1019.2,787z"/>
	<circle class="st2" cx="1037.4" cy="798.7" r="6.5"/>
	<circle class="st2" cx="1025.6" cy="810.5" r="6.5"/>
	<circle class="st2" cx="1037.4" cy="822.2" r="6.5"/>
	<circle class="st2" cx="1025.6" cy="833.9" r="6.5"/>
	<circle class="st2" cx="1037.4" cy="845.7" r="6.5"/>
	<circle class="st2" cx="1025.6" cy="857.4" r="6.5"/>
	<circle class="st2" cx="1049.1" cy="693" r="6.5"/>
	<path class="st2" d="M1055.6,716.5c0-3.5-2.9-6.5-6.5-6.5c-1.1,0-2.1,0.3-3,0.7c0.7,3.7,1.3,7.7,1.6,12c0.4,0.1,1,0.1,1.5,0.1
		C1052.8,723,1055.6,720.1,1055.6,716.5z"/>
	<path class="st2" d="M1049.1,746.5c3.5,0,6.5-2.9,6.5-6.5c0-3.5-2.9-6.5-6.5-6.5c-0.4,0-0.9,0.1-1.3,0.1c0,4.5-0.3,8.6-0.8,12.5
		C1047.7,746.4,1048.4,746.5,1049.1,746.5z"/>
	<path class="st2" d="M1042.6,763.5c0,3.5,2.9,6.5,6.5,6.5c3.6,0,6.5-2.9,6.5-6.5c0-3.5-2.9-6.5-6.5-6.5c-2.2,0-4.2,1.1-5.4,2.9
		c-0.3,0.9-0.7,1.7-1,2.5C1042.7,762.8,1042.6,763.1,1042.6,763.5z"/>
	<circle class="st2" cx="1049.1" cy="787" r="6.5"/>
	<circle class="st2" cx="1049.1" cy="810.5" r="6.5"/>
	<circle class="st2" cx="1049.1" cy="833.9" r="6.5"/>
	<circle class="st2" cx="1049.1" cy="857.4" r="6.5"/>
	<rect x="72" y="683.1" class="st2" width="150.5" height="12.8"/>
	<rect x="72" y="756.7" class="st2" width="150.1" height="12.8"/>
	<rect x="72" y="831.1" class="st2" width="151" height="12.8"/>
	<rect x="737.6" y="683.1" class="st2" width="150.5" height="12.8"/>
	<rect x="737.6" y="756.7" class="st2" width="150.1" height="12.8"/>
	<rect x="737.6" y="831.1" class="st2" width="151" height="12.8"/>
	<path class="st2" d="M410.4,768.3v-9.6c0-59.4,18.5-87.3,60.4-91.5v-3.5h-67.3v199.5h67.3v-3.5
		C428.9,855.6,410.4,827.7,410.4,768.3z"/>
	<path class="st2" d="M494.4,860v3.2h63.4v-50.4h-7.2C545,842.3,527.9,857.5,494.4,860z"/>
	<path class="st2" d="M551.3,723h6.5v-59.3h-63.4v3.3C530.9,669.8,547.3,685.7,551.3,723z"/>
	<path class="st2" d="M552.1,733.5c-0.1,5.4-3.4,8.6-8.9,8.6h-27.7c-5.5,0-8.9-3.3-8.9-8.9c-1.1-16.6-6.6-27.7-21.6-27.3h-2.4
		c-22.7,0-26.1,20.4-26.1,52.8v9.6c0,32.3,3.3,52.7,26.1,52.7h2.4c12.7-0.2,19.3-8,21.6-20.2c0-5.5,3.3-8.9,8.9-8.9h27.7
		c5.5,0,8.9,3.3,8.9,8.9c0,0.3-0.1,0.7-0.1,1h5.8v-68.3H552.1z"/>
	<g class="st3">
		<rect x="1131.3" y="663.7" class="st4" width="34.9" height="6.1"/>
		<path class="st4" d="M1123.5,848.3l-0.1-139.3l-33.2-0.4c-5.5,0-8.9-2.2-8.9-8.9v-21.1c0-5.5,3.3-8.9,8.9-8.9h18.9v-6.1h-39.5
			v199.5h65.5v-6.1h-2.7C1126.8,857.2,1123.5,853.9,1123.5,848.3z"/>
		<path class="st4" d="M1188.5,663.7v6.1h13.7c5.5,0,8.9,2.2,8.9,8.9v21c0,5.5-3.3,8.9-8.9,8.9L1169,709l-0.1,139.3
			c0,5.5-3.3,8.9-8.9,8.9h-3.2v6.1h67.2V663.7H1188.5z"/>
	</g>
	<path class="st2" d="M959.9,798.7c0,3.5,2.9,6.5,6.5,6.5s6.5-2.9,6.5-6.5c0-2.9-1.9-5.3-4.5-6.1h-4
		C961.8,793.4,959.9,795.8,959.9,798.7z"/>
	<circle class="st2" cx="978.2" cy="810.5" r="6.5"/>
	<path class="st2" d="M958,781.4v10.9c1.8-1.1,3-3.2,3-5.5C961,784.5,959.9,782.5,958,781.4z"/>
	<path class="st2" d="M958,763.4v11c1.8-1.1,3-3.2,3-5.5C961,766.6,959.8,764.5,958,763.4z"/>
	<path class="st2" d="M963.3,753.2h9.2c0.1-0.6,0.3-1.2,0.3-1.8c0-2.9-1.9-5.3-4.5-6.1h-4c-2.6,0.8-4.5,3.2-4.5,6.1
		c0,2.4,1.4,4.7,3.4,5.7L963.3,753.2L963.3,753.2z"/>
	<path class="st2" d="M980.5,792.6h-5.4c0.9,0.4,1.9,0.7,3,0.7c1.1,0,2.1-0.3,3-0.7C981,792.6,980.8,792.6,980.5,792.6z"/>
</g>
<g>
	<path class="st5" d="M640.5,236.7l21.9,56.9c2.2,5.5,5.5,7.8,10,7.8h31c6.6,0,8.9-5.5,6.6-11.1l-24.7-59.8
		c16.5-7.5,28.8-22.3,28.8-52.8v-4.8c0-51.8-35.7-59-67.3-59l-55.2,0.1c-5.5,0-8.9,2.2-8.9,8.9v169.6c0,5.5,3.3,8.9,8.9,8.9h27.7
		c5.5,0,8.9-3.3,8.9-8.9l-0.2-47.1l0,0v-48.1v-1.7v-42.3h20.8c8.9,0,19.4,3.3,19.4,21.1v1.9c0,17.7-10.6,21.1-19.4,21.1h-15.5v39.4"
		/>
	<path class="st5" d="M826.9,301.1h-27.7c-5.5,0-8.9-3.3-8.9-8.9l-0.4-50.4l-48.4-117c-2.2-5.5,0-10,6.6-10h31c4.4,0,7.8,1.1,10,6.6
		l23.6,59.8l23-59.8c2.2-5.5,5.5-6.6,10-6.6h32.1c6.6,0,8.9,4.4,6.6,10l-49,117l0.2,50.4C835.8,297.8,832.5,301.1,826.9,301.1z"/>
	<path class="st5" d="M222.1,117.2v21c0,6.6-3.3,8.9-8.9,8.9l-67.1,0.4v33.7l66.8,0.2c5.5,0,8.9,2.2,8.9,8.9v21
		c0,5.5-3.3,8.9-8.9,8.9l-66.8,0.3v35.3l67.5-0.1c5.5,0,8.9,2.2,8.9,8.9v22.2c0,5.5-3.3,8.9-8.9,8.9H109.6c-5.5,0-8.9-3.3-8.9-8.9
		V117.2c0-5.5,3.3-8.9,8.9-8.9h103.8C218.8,108.4,222.1,111.7,222.1,117.2z"/>
	<path class="st5" d="M482.7,265.2h2.4c12.7-0.2,19.3-8,21.6-20.2c0-5.5,3.3-8.9,8.9-8.9h27.7c5.5,0,8.9,3.3,8.9,8.9
		c-3.3,41-23.3,59.9-69.3,59.5c-50.4,0-72.4-27.3-72.4-92.1v-9.6c0-64.8,22.1-92.1,72.4-92.1c48.3,0.1,67.1,17.9,69.3,66.7
		c0,5.5-3.3,8.9-8.9,8.9h-27.7c-5.5,0-8.9-3.3-8.9-8.9c-1.1-16.6-6.6-27.7-21.6-27.3h-2.4c-22.7,0-26.1,20.4-26.1,52.8v9.6
		C456.6,244.8,459.9,265.2,482.7,265.2z"/>
	<path class="st5" d="M1160,301.4h-27.7c-5.5,0-8.9-3.3-8.9-8.9l-0.1-139.3l-33.2-0.4c-5.5,0-8.9-2.2-8.9-8.9v-21.1
		c0-5.5,3.3-8.9,8.9-8.9h111.9c5.5,0,8.9,2.2,8.9,8.9v21c0,5.5-3.3,8.9-8.9,8.9l-33.2,0.4l-0.1,139.3
		C1168.9,298.1,1165.6,301.4,1160,301.4z"/>
	<path class="st5" d="M371.7,301.4h-30.7c-4.5,0.1-8.6-2.6-10.6-6.6l-45.7-96.9l1.1,36l0.1,58.7c0,5.5-3.2,8.9-8.5,8.9H253
		c-5.3,0-8.5-2.2-8.5-8.9V122.9c0-5.5,3.2-8.9,8.5-8.9h30.7c4.2,0,7.4,2.2,9.5,6.6l46.4,96.4l-1.1-36l0.4-58.2
		c0-5.5,3.2-8.9,8.5-8.9h24.4c5.3,0,8.5,2.2,8.5,8.9v169.6C380.1,298.1,376.9,301.4,371.7,301.4z"/>
	<path class="st5" d="M980.5,114l-59.7,0.1c-5.5,0-8.9,2.2-8.9,8.9v169.6c0,5.5,3.3,8.9,8.9,8.9h28.8c5.5,0,8.9-3.3,8.9-8.9
		l-0.4-55.8v-39.3v-44.1h24.4c8.9,0,19.4,3.4,19.4,21.1v1.9c0,17.7-10.6,21.1-19.4,21.1h-19v39.3h17.1c31.6,0,67.3-7.2,67.3-59V173
		C1047.9,121.2,1012.1,114,980.5,114z"/>
	<rect x="100.7" y="364.8" class="st5" width="18" height="18"/>
</g>
<polyline class="st6" points="1296,432 1296,864 0,864 0,0 1296,0 1296,432 "/>
<g>
	<polygon class="st5" points="712.5,539.9 570.7,644.5 570.7,654.3 725,540.5 725,539.9 	"/>
	<polygon class="st5" points="570.7,678 725,564.2 725,554.4 570.7,668.3 	"/>
	<polygon class="st5" points="570.7,701.8 725,588 725,578.2 570.7,692.1 	"/>
	<polygon class="st5" points="570.7,725.6 725,611.8 725,602 570.7,715.8 	"/>
	<polygon class="st5" points="583.6,539.9 570.7,549.5 570.7,559.2 596.8,539.9 	"/>
	<polygon class="st5" points="615.8,539.9 570.7,573.2 570.7,583 629,539.9 	"/>
	<polygon class="st5" points="648,539.9 570.7,596.9 570.7,606.8 661.3,539.9 	"/>
	<polygon class="st5" points="680.3,539.9 570.7,620.7 570.7,630.5 693.5,539.9 	"/>
	<polygon class="st5" points="584.1,739.5 725,635.5 725,625.7 570.8,739.5 	"/>
	<polygon class="st5" points="616.3,739.5 725,659.3 725,649.5 603,739.5 	"/>
	<polygon class="st5" points="648.5,739.5 725,683.1 725,673.3 635.3,739.5 	"/>
	<polygon class="st5" points="680.8,739.5 725,706.8 725,697 667.5,739.5 	"/>
	<polygon class="st5" points="713,739.5 725,730.6 725,720.8 699.7,739.5 	"/>
	<path class="st5" d="M247.8,547.5c0.1-0.6,0.2-1.2,0.2-1.8c0-3.5-2.9-6.5-6.5-6.5c-3.5,0-6.5,2.9-6.5,6.5c0,3.5,2.9,6.5,6.5,6.5
		c1.3,0,2.5-0.4,3.5-1C245.6,549.6,246.5,548.4,247.8,547.5z"/>
	<path class="st5" d="M271.9,545.8c0-3.5-2.9-6.5-6.5-6.5c-3.5,0-6.5,2.9-6.5,6.5c0,0.1,0,0.1,0,0.3h12.9
		C271.9,545.9,271.9,545.8,271.9,545.8z"/>
	<path class="st5" d="M292.4,551.2c1.8-1.2,3-3.2,3-5.5c0-3.5-2.9-6.5-6.5-6.5c-3.5,0-6.4,2.9-6.4,6.5c0,0.1,0,0.1,0,0.3h1.2
		C287.5,546,290.4,547.8,292.4,551.2z"/>
	<path class="st5" d="M300.8,564c3.5,0,6.5-2.9,6.5-6.5c0-3.5-2.9-6.5-6.5-6.5c-2.9,0-5.3,1.9-6.1,4.5l3.8,8
		C299.2,563.8,300,564,300.8,564z"/>
	<circle class="st5" cx="312.6" cy="545.8" r="6.5"/>
	<circle class="st5" cx="324.4" cy="557.5" r="6.5"/>
	<path class="st5" d="M342.4,547.2c0.1-0.5,0.2-1,0.2-1.6c0-3.5-2.9-6.5-6.5-6.5c-3.5,0-6.5,2.9-6.5,6.5c0,3.5,2.9,6.5,6.5,6.5
		c1.2,0,2.2-0.3,3.2-0.8C339.9,549.6,340.9,548.2,342.4,547.2z"/>
	<path class="st5" d="M366.5,545.8c0-3.5-2.9-6.5-6.5-6.5c-3.5,0-6.5,2.9-6.5,6.5c0,0.1,0,0.1,0,0.3h12.9
		C366.5,545.9,366.5,545.8,366.5,545.8z"/>
	<path class="st5" d="M379.6,550.9c1.1,0.9,2.4,1.3,4,1.3c3.5,0,6.5-2.9,6.5-6.5c0-3.5-2.9-6.5-6.5-6.5c-3.5,0-6.5,2.9-6.5,6.5
		c0,0.6,0.1,1.2,0.2,1.8C378.4,548.3,379.1,549.4,379.6,550.9z"/>
	<path class="st5" d="M241.6,562.8c-3.5,0-6.5,2.9-6.5,6.5c0,3.5,2.9,6.5,6.5,6.5c1.1,0,2.1-0.3,3-0.7v-11.5
		C243.6,563.1,242.6,562.8,241.6,562.8z"/>
	<path class="st5" d="M241.6,586.2c-3.5,0-6.5,2.9-6.5,6.5c0,3.5,2.9,6.5,6.5,6.5c1.1,0,2.1-0.3,3-0.7V587
		C243.6,586.5,242.6,586.2,241.6,586.2z"/>
	<path class="st5" d="M241.6,609.7c-3.5,0-6.5,2.9-6.5,6.5c0,3.5,2.9,6.5,6.5,6.5c1.1,0,2.1-0.3,3-0.7v-11.5
		C243.6,610,242.6,609.7,241.6,609.7z"/>
	<path class="st5" d="M241.6,633.2c-3.5,0-6.5,2.9-6.5,6.5c0,3.5,2.9,6.5,6.5,6.5c1.1,0,2.1-0.3,3-0.7v-11.5
		C243.6,633.5,242.6,633.2,241.6,633.2z"/>
	<path class="st5" d="M241.6,656.7c-3.5,0-6.5,2.9-6.5,6.5c0,3.5,2.9,6.5,6.5,6.5c1.1,0,2.1-0.3,3-0.7v-11.5
		C243.6,657,242.6,656.7,241.6,656.7z"/>
	<path class="st5" d="M241.6,680.2c-3.5,0-6.5,2.9-6.5,6.5c0,3.5,2.9,6.5,6.5,6.5c1.1,0,2.1-0.3,3-0.7v-11.5
		C243.6,680.5,242.6,680.2,241.6,680.2z"/>
	<path class="st5" d="M241.6,703.7c-3.5,0-6.5,2.9-6.5,6.5c0,3.5,2.9,6.5,6.5,6.5c1.1,0,2.1-0.3,3-0.7v-11.5
		C243.6,704,242.6,703.7,241.6,703.7z"/>
	<path class="st5" d="M244.9,728.2c-1-0.6-2.1-1-3.4-1c-3.5,0-6.5,2.9-6.5,6.5c0,3.5,2.9,6.5,6.5,6.5c3.5,0,6.5-2.9,6.5-6.5
		c0-0.5-0.1-1-0.1-1.4C246.4,731.4,245.5,730.1,244.9,728.2z"/>
	<path class="st5" d="M259,733.6c0,3.5,2.9,6.5,6.5,6.5c3.5,0,6.5-2.9,6.5-6.5c0-0.1,0-0.1,0-0.3h-12.9
		C259,733.5,259,733.6,259,733.6z"/>
	<path class="st5" d="M307.3,581c0-2.3-1.2-4.4-3-5.5l3,6.2C307.3,581.4,307.3,581.2,307.3,581z"/>
	<path class="st5" d="M285.2,647.2c1,0.7,2.1,1.1,3.2,1.1c1.5,0,2.9-0.7,4.1-1.9l-7.8-16.6L285.2,647.2z"/>
	<path class="st5" d="M285.8,668.8c1,0.5,2.1,0.9,3.2,0.9c3.5,0,6.5-2.9,6.5-6.5c0-3.5-2.9-6.5-6.5-6.5c-1.3,0-2.4,0.4-3.5,1
		l0.2,8.1L285.8,668.8z"/>
	<path class="st5" d="M300.8,668.4c-3.5,0-6.5,2.9-6.5,6.5c0,3.5,2.9,6.5,6.5,6.5c2.8,0,5.2-1.8,6.1-4.4l-3.8-8.2
		C302.3,668.6,301.6,668.4,300.8,668.4z"/>
	<path class="st5" d="M289,693.2c3.5,0,6.5-2.9,6.5-6.5c0-3.5-2.9-6.5-6.5-6.5c-1.2,0-2.2,0.3-3.2,0.8v11.3
		C286.7,692.9,287.8,693.2,289,693.2z"/>
	<circle class="st5" cx="300.8" cy="698.4" r="6.5"/>
	<path class="st5" d="M289,716.7c3.5,0,6.5-2.9,6.5-6.5c0-3.5-2.9-6.5-6.5-6.5c-1.2,0-2.2,0.3-3.2,0.8v11.3
		C286.7,716.4,287.9,716.7,289,716.7z"/>
	<circle class="st5" cx="300.8" cy="721.9" r="6.5"/>
	<path class="st5" d="M282.8,731.7c-0.2,0.6-0.3,1.3-0.3,1.9c0,3.5,2.9,6.5,6.5,6.5c3.5,0,6.5-2.9,6.5-6.5c0-3.5-2.9-6.5-6.5-6.5
		c-1.4,0-2.7,0.4-3.8,1.2C284.7,729.8,283.9,730.9,282.8,731.7z"/>
	<circle class="st5" cx="312.6" cy="569.3" r="6.5"/>
	<circle class="st5" cx="324.4" cy="581" r="6.5"/>
	<path class="st5" d="M319,592.7c0-3.5-2.9-6.5-6.5-6.5c-1,0-2,0.2-2.9,0.7l5.6,11.7C317.5,597.5,319,595.3,319,592.7z"/>
	<path class="st5" d="M324.4,611c3.5,0,6.5-2.9,6.5-6.5c0-3.5-2.9-6.5-6.5-6.5c-3.4,0-6.2,2.7-6.4,6l2.8,5.8
		C321.7,610.5,323,611,324.4,611z"/>
	<path class="st5" d="M335,631.7c0-3.5-2.9-6.5-6.5-6.5c-0.1,0-0.2,0-0.4,0l5.2,10.8C334.4,634.8,335,633.4,335,631.7z"/>
	<path class="st5" d="M306.1,686.7c0,3.5,2.9,6.5,6.5,6.5c0.6,0,1.3-0.1,1.8-0.2l-5.5-11.6C307.2,682.5,306.1,684.5,306.1,686.7z"/>
	<circle class="st5" cx="312.6" cy="710.2" r="6.5"/>
	<path class="st5" d="M324.4,715.4c-3.5,0-6.5,2.9-6.5,6.5c0,3.5,2.9,6.5,6.5,6.5c2.2,0,4.2-1.1,5.4-2.9l-4.7-10
		C324.8,715.5,324.6,715.4,324.4,715.4z"/>
	<circle class="st5" cx="312.6" cy="733.6" r="6.5"/>
	<path class="st5" d="M336.1,562.8c-3.5,0-6.5,2.9-6.5,6.5c0,3.5,2.9,6.5,6.5,6.5c0.9,0,1.8-0.2,2.6-0.5l0.1-11.9
		C337.9,563,337,562.8,336.1,562.8z"/>
	<path class="st5" d="M336.1,586.2c-3.5,0-6.5,2.9-6.5,6.5c0,3.5,2.9,6.5,6.5,6.5c0.9,0,1.7-0.1,2.4-0.4l0.1-12
		C337.8,586.5,337,586.2,336.1,586.2z"/>
	<path class="st5" d="M338.5,610.2c-0.7-0.3-1.6-0.4-2.4-0.4c-3.5,0-6.5,2.9-6.5,6.5c0,3.5,2.9,6.5,6.5,6.5c1,0,1.8-0.2,2.7-0.6
		l-0.3-9.1V610.2z"/>
	<path class="st5" d="M331.7,728.9c-1.3,1.2-2.1,2.9-2.1,4.7c0,3.5,2.9,6.5,6.5,6.5c3.5,0,6.5-2.9,6.5-6.5c0-0.1,0-0.1,0-0.3H341
		C337.3,733.4,333.9,731.7,331.7,728.9z"/>
	<path class="st5" d="M353.5,733.6c0,3.5,2.9,6.5,6.5,6.5c3.5,0,6.5-2.9,6.5-6.5c0-0.1,0-0.1,0-0.3h-12.9
		C353.6,733.5,353.5,733.6,353.5,733.6z"/>
	<path class="st5" d="M383.6,575.7c3.5,0,6.5-2.9,6.5-6.5c0-3.5-2.9-6.5-6.5-6.5c-1.3,0-2.4,0.4-3.4,1v11.1
		C381.1,575.4,382.3,575.7,383.6,575.7z"/>
	<path class="st5" d="M383.6,599.2c3.5,0,6.5-2.9,6.5-6.5c0-3.5-2.9-6.5-6.5-6.5c-1.3,0-2.4,0.4-3.4,1v11
		C381.1,598.9,382.3,599.2,383.6,599.2z"/>
	<path class="st5" d="M383.6,622.7c3.5,0,6.5-2.9,6.5-6.5c0-3.5-2.9-6.5-6.5-6.5c-1.3,0-2.4,0.4-3.4,1v11
		C381.1,622.4,382.3,622.7,383.6,622.7z"/>
	<path class="st5" d="M383.6,646.2c3.5,0,6.5-2.9,6.5-6.5c0-3.5-2.9-6.5-6.5-6.5c-1.3,0-2.4,0.4-3.4,1v11
		C381.1,645.8,382.3,646.2,383.6,646.2z"/>
	<path class="st5" d="M383.6,669.7c3.5,0,6.5-2.9,6.5-6.5c0-3.5-2.9-6.5-6.5-6.5c-1.3,0-2.4,0.4-3.4,1v11
		C381.1,669.3,382.3,669.7,383.6,669.7z"/>
	<path class="st5" d="M383.6,693.2c3.5,0,6.5-2.9,6.5-6.5c0-3.5-2.9-6.5-6.5-6.5c-1.3,0-2.4,0.4-3.4,1v11
		C381.1,692.8,382.3,693.2,383.6,693.2z"/>
	<path class="st5" d="M383.6,716.7c3.5,0,6.5-2.9,6.5-6.5c0-3.5-2.9-6.5-6.5-6.5c-1.3,0-2.4,0.4-3.4,1v11
		C381.1,716.3,382.3,716.7,383.6,716.7z"/>
	<path class="st5" d="M377.5,731.3c-0.3,0.7-0.4,1.5-0.4,2.3c0,3.5,2.9,6.5,6.5,6.5c3.5,0,6.5-2.9,6.5-6.5c0-3.5-2.9-6.5-6.5-6.5
		c-1.6,0-3.1,0.6-4.2,1.6C378.9,729.8,378.3,730.7,377.5,731.3z"/>
	<circle class="st5" cx="907.1" cy="545.8" r="6.5"/>
	<path class="st5" d="M937.5,545.8c0-3.5-2.9-6.5-6.5-6.5c-3.6,0-6.5,2.9-6.5,6.5c0,0.1,0,0.2,0,0.4h12.9
		C937.5,545.9,937.5,545.8,937.5,545.8z"/>
	<path class="st5" d="M961,545.8c0-3.5-2.9-6.5-6.5-6.5c-3.6,0-6.5,2.9-6.5,6.5c0,0.1,0,0.2,0,0.3H961
		C961,545.9,961,545.8,961,545.8z"/>
	<path class="st5" d="M984.6,546c0-0.1,0-0.1,0-0.3c0-3.5-2.9-6.5-6.5-6.5c-3.6,0-6.5,2.9-6.5,6.5c0,0.1,0,0.1,0,0.2h8.8
		C981.9,546,983.3,546,984.6,546z"/>
	<path class="st5" d="M1008.2,545.8c0-3.5-2.9-6.5-6.5-6.5s-6.5,2.9-6.5,6.5c0,0.3,0,0.6,0.1,0.9c4.1,0.4,8.3,1,12.3,1.9
		C1007.9,547.7,1008.2,546.7,1008.2,545.8z"/>
	<circle class="st5" cx="1025.6" cy="545.8" r="6.5"/>
	<path class="st5" d="M1034.7,563.4c0.8,0.4,1.7,0.6,2.7,0.6c3.5,0,6.5-2.9,6.5-6.5c0-3.5-2.9-6.5-6.5-6.5c-3.6,0-6.5,2.9-6.5,6.5
		c0,1,0.2,1.9,0.6,2.7C1032.7,561.2,1033.7,562.2,1034.7,563.4z"/>
	<circle class="st5" cx="1049.1" cy="545.8" r="6.5"/>
	<path class="st5" d="M907.1,562.8c-3.5,0-6.5,2.9-6.5,6.5c0,3.5,2.9,6.5,6.5,6.5c1.9,0,3.6-0.8,4.8-2.1v-8.7
		C910.7,563.6,909,562.8,907.1,562.8z"/>
	<path class="st5" d="M907.1,586.2c-3.5,0-6.5,2.9-6.5,6.5c0,3.5,2.9,6.5,6.5,6.5c1.9,0,3.6-0.8,4.8-2.1v-8.7
		C910.7,587.1,909,586.2,907.1,586.2z"/>
	<path class="st5" d="M907.1,609.7c-3.5,0-6.5,2.9-6.5,6.5c0,3.5,2.9,6.5,6.5,6.5c1.9,0,3.6-0.8,4.8-2.1v-8.7
		C910.7,610.5,909,609.7,907.1,609.7z"/>
	<path class="st5" d="M907.1,633.2c-3.5,0-6.5,2.9-6.5,6.5c0,3.5,2.9,6.5,6.5,6.5c1.9,0,3.6-0.8,4.8-2.1v-8.7
		C910.7,634,909,633.2,907.1,633.2z"/>
	<path class="st5" d="M907.1,656.7c-3.5,0-6.5,2.9-6.5,6.5c0,3.5,2.9,6.5,6.5,6.5c1.9,0,3.6-0.8,4.8-2.1v-8.7
		C910.7,657.6,909,656.7,907.1,656.7z"/>
	<path class="st5" d="M907.1,680.2c-3.5,0-6.5,2.9-6.5,6.5c0,3.5,2.9,6.5,6.5,6.5c1.9,0,3.6-0.8,4.8-2.1v-8.7
		C910.7,681.1,909,680.2,907.1,680.2z"/>
	<path class="st5" d="M907.1,703.7c-3.5,0-6.5,2.9-6.5,6.5c0,3.5,2.9,6.5,6.5,6.5c1.9,0,3.6-0.8,4.8-2.1v-8.7
		C910.7,704.5,909,703.7,907.1,703.7z"/>
	<circle class="st5" cx="907.1" cy="733.6" r="6.5"/>
	<path class="st5" d="M924.6,733.6c0,3.5,2.9,6.5,6.5,6.5c3.6,0,6.5-2.9,6.5-6.5c0-0.1,0-0.1,0-0.2h-12.9
		C924.6,733.5,924.6,733.6,924.6,733.6z"/>
	<path class="st5" d="M966.4,589c2.6,0,4.8-1.6,5.8-3.8h-11.7C961.6,587.6,963.8,589,966.4,589z"/>
	<path class="st5" d="M990.1,590c1.6,0,3-0.6,4.2-1.6c-3.1-2.1-6.8-2.9-10.4-3.1C984.7,588,987.2,590,990.1,590z"/>
	<path class="st5" d="M961.9,594.6c0-2.7-1.6-5-4-6v12C960.3,599.5,961.9,597.2,961.9,594.6z"/>
	<circle class="st5" cx="967.3" cy="605.4" r="6.5"/>
	<path class="st5" d="M961.9,616.2c0-2.7-1.6-5-4-6v12C960.3,621.2,961.9,618.9,961.9,616.2z"/>
	<circle class="st5" cx="966.4" cy="698.4" r="6.5"/>
	<circle class="st5" cx="966.4" cy="721.9" r="6.5"/>
	<path class="st5" d="M949.6,733.4h-1.5c0,0.1,0,0.1,0,0.2c0,3.5,2.9,6.5,6.5,6.5c3.6,0,6.5-2.9,6.5-6.5c0-2.4-1.3-4.4-3.2-5.5
		C956.8,731.5,953.8,733.4,949.6,733.4z"/>
	<circle class="st5" cx="979.1" cy="594.6" r="6.5"/>
	<circle class="st5" cx="990.9" cy="605.4" r="6.5"/>
	<circle class="st5" cx="979.1" cy="617.1" r="6.5"/>
	<path class="st5" d="M990,621.5c-3.5,0-6.5,2.9-6.5,6.5c0,0.5,0.1,1,0.1,1.5c4.2-0.1,8.7-1.2,12.2-4.2
		C994.8,623,992.6,621.5,990,621.5z"/>
	<path class="st5" d="M983.5,674.9c0,3.5,2.9,6.5,6.5,6.5s6.5-2.9,6.5-6.5c0-3.4-2.6-6.1-5.9-6.4c-0.6,0-1.3,0.1-1.8,0.1
		C985.7,669.2,983.5,671.8,983.5,674.9z"/>
	<circle class="st5" cx="990" cy="698.4" r="6.5"/>
	<circle class="st5" cx="978.2" cy="710.2" r="6.5"/>
	<circle class="st5" cx="990" cy="721.9" r="6.5"/>
	<circle class="st5" cx="978.2" cy="733.6" r="6.5"/>
	<path class="st5" d="M1001.4,601c-0.7-4.8-2.4-8.2-4.7-10.6c-0.9,1.1-1.5,2.5-1.5,4.1C995.2,598.1,998,600.9,1001.4,601z"/>
	<path class="st5" d="M995.2,616.2c0,2.4,1.3,4.6,3.3,5.7c1.8-2.9,3-6.9,3.2-12.2l0,0C998.1,609.7,995.2,612.6,995.2,616.2z"/>
	<path class="st5" d="M1001.7,669.7c2.5,0,4.7-1.4,5.8-3.5c-3.3,0.7-6.7,1.3-10.2,1.7C998.4,669,1000,669.7,1001.7,669.7z"/>
	<circle class="st5" cx="1013.5" cy="674.9" r="6.5"/>
	<circle class="st5" cx="1001.7" cy="686.7" r="6.5"/>
	<circle class="st5" cx="1013.5" cy="698.4" r="6.5"/>
	<circle class="st5" cx="1001.7" cy="710.2" r="6.5"/>
	<circle class="st5" cx="1013.5" cy="721.9" r="6.5"/>
	<circle class="st5" cx="1001.7" cy="733.6" r="6.5"/>
	<path class="st5" d="M1031.6,654.4c1.1,2.1,3.2,3.5,5.8,3.5c3.5,0,6.5-2.9,6.5-6.5c0-2.9-1.9-5.4-4.6-6.2
		C1037.1,648.8,1034.5,651.8,1031.6,654.4z"/>
	<path class="st5" d="M1019.2,663.2c0,3.5,2.9,6.5,6.5,6.5c3.6,0,6.5-2.9,6.5-6.5c0-2.7-1.6-4.9-3.9-6c-2.8,2-5.8,3.7-8.9,5.1
		C1019.2,662.6,1019.2,662.9,1019.2,663.2z"/>
	<circle class="st5" cx="1037.4" cy="674.9" r="6.5"/>
	<circle class="st5" cx="1025.6" cy="686.7" r="6.5"/>
	<circle class="st5" cx="1037.4" cy="698.4" r="6.5"/>
	<circle class="st5" cx="1025.6" cy="710.2" r="6.5"/>
	<circle class="st5" cx="1037.4" cy="721.9" r="6.5"/>
	<circle class="st5" cx="1025.6" cy="733.6" r="6.5"/>
	<circle class="st5" cx="1049.1" cy="569.3" r="6.5"/>
	<path class="st5" d="M1055.6,592.7c0-3.5-2.9-6.5-6.5-6.5c-1.1,0-2.1,0.3-3,0.7c0.7,3.7,1.3,7.7,1.6,12c0.4,0.1,1,0.1,1.5,0.1
		C1052.8,599.2,1055.6,596.3,1055.6,592.7z"/>
	<path class="st5" d="M1049.1,622.7c3.5,0,6.5-2.9,6.5-6.5c0-3.5-2.9-6.5-6.5-6.5c-0.4,0-0.9,0.1-1.3,0.1c0,4.5-0.3,8.6-0.8,12.5
		C1047.7,622.6,1048.4,622.7,1049.1,622.7z"/>
	<path class="st5" d="M1042.6,639.7c0,3.5,2.9,6.5,6.5,6.5c3.6,0,6.5-2.9,6.5-6.5c0-3.5-2.9-6.5-6.5-6.5c-2.2,0-4.2,1.1-5.4,2.9
		c-0.3,0.9-0.7,1.7-1,2.5C1042.7,639,1042.6,639.3,1042.6,639.7z"/>
	<circle class="st5" cx="1049.1" cy="663.2" r="6.5"/>
	<circle class="st5" cx="1049.1" cy="686.7" r="6.5"/>
	<circle class="st5" cx="1049.1" cy="710.2" r="6.5"/>
	<circle class="st5" cx="1049.1" cy="733.6" r="6.5"/>
	<rect x="72" y="559.3" class="st5" width="150.5" height="12.8"/>
	<rect x="72" y="632.9" class="st5" width="150.1" height="12.8"/>
	<rect x="72" y="707.3" class="st5" width="151" height="12.8"/>
	<rect x="737.6" y="559.3" class="st5" width="150.5" height="12.8"/>
	<rect x="737.6" y="632.9" class="st5" width="150.1" height="12.8"/>
	<rect x="737.6" y="707.3" class="st5" width="151" height="12.8"/>
	<path class="st5" d="M410.4,644.5v-9.6c0-59.4,18.5-87.3,60.4-91.5v-3.5h-67.3v199.5h67.3V736C428.9,731.8,410.4,703.9,410.4,644.5
		z"/>
	<path class="st5" d="M494.4,736.2v3.2h63.4V689h-7.2C545,718.5,527.9,733.7,494.4,736.2z"/>
	<path class="st5" d="M551.3,599.2h6.5v-59.3h-63.4v3.3C530.9,546,547.3,561.9,551.3,599.2z"/>
	<path class="st5" d="M552.1,609.7c-0.1,5.4-3.4,8.6-8.9,8.6h-27.7c-5.5,0-8.9-3.3-8.9-8.9c-1.1-16.6-6.6-27.7-21.6-27.3h-2.4
		c-22.7,0-26.1,20.4-26.1,52.8v9.6c0,32.3,3.3,52.7,26.1,52.7h2.4c12.7-0.2,19.3-8,21.6-20.2c0-5.5,3.3-8.9,8.9-8.9h27.7
		c5.5,0,8.9,3.3,8.9,8.9c0,0.3-0.1,0.7-0.1,1h5.8v-68.3H552.1z"/>
	<g>
		<rect x="1131.3" y="539.9" class="st5" width="34.9" height="6.1"/>
		<path class="st5" d="M1123.5,724.6l-0.1-139.3l-33.2-0.4c-5.5,0-8.9-2.2-8.9-8.9v-21.1c0-5.5,3.3-8.9,8.9-8.9h18.9v-6.1h-39.5
			v199.5h65.5v-6.1h-2.7C1126.8,733.4,1123.5,730.1,1123.5,724.6z"/>
		<path class="st5" d="M1188.5,539.9v6.1h13.7c5.5,0,8.9,2.2,8.9,8.9v21c0,5.5-3.3,8.9-8.9,8.9l-33.2,0.4l-0.1,139.3
			c0,5.5-3.3,8.9-8.9,8.9h-3.2v6.1h67.2V539.9H1188.5z"/>
	</g>
	<path class="st5" d="M959.9,674.9c0,3.5,2.9,6.5,6.5,6.5s6.5-2.9,6.5-6.5c0-2.9-1.9-5.3-4.5-6.1h-4
		C961.8,669.6,959.9,672,959.9,674.9z"/>
	<circle class="st5" cx="978.2" cy="686.7" r="6.5"/>
	<path class="st5" d="M958,657.6v10.9c1.8-1.1,3-3.2,3-5.5C961,660.8,959.9,658.7,958,657.6z"/>
	<path class="st5" d="M958,639.6v11c1.8-1.1,3-3.2,3-5.5C961,642.8,959.8,640.7,958,639.6z"/>
	<path class="st5" d="M963.3,629.4h9.2c0.1-0.6,0.3-1.2,0.3-1.8c0-2.9-1.9-5.3-4.5-6.1h-4c-2.6,0.8-4.5,3.2-4.5,6.1
		c0,2.4,1.4,4.7,3.4,5.7L963.3,629.4L963.3,629.4z"/>
	<path class="st5" d="M980.5,668.8h-5.4c0.9,0.4,1.9,0.7,3,0.7c1.1,0,2.1-0.3,3-0.7C981,668.8,980.8,668.8,980.5,668.8z"/>
	<rect x="100.7" y="796.8" class="st5" width="18" height="18"/>
</g>
<polyline class="st6" points="1296,432 0,432 1296,432 "/>
</svg>
