<?xml version="1.0" encoding="UTF-8" standalone="no"?>
<!-- Generator: Adobe Illustrator 20.1.0, SVG Export Plug-In . SVG Version: 6.00 Build 0)  -->

<svg
   xmlns:dc="http://purl.org/dc/elements/1.1/"
   xmlns:cc="http://creativecommons.org/ns#"
   xmlns:rdf="http://www.w3.org/1999/02/22-rdf-syntax-ns#"
   xmlns:svg="http://www.w3.org/2000/svg"
   xmlns="http://www.w3.org/2000/svg"
   xmlns:sodipodi="http://sodipodi.sourceforge.net/DTD/sodipodi-0.dtd"
   xmlns:inkscape="http://www.inkscape.org/namespaces/inkscape"
   version="1.1"
   id="Layer_1"
   x="0px"
   y="0px"
   viewBox="0 0 1080 1620"
   xml:space="preserve"
   inkscape:version="0.91 r13725"
   sodipodi:docname="end-mass-survailence.svg"
   width="12in"
   height="18in"><metadata
   id="metadata115"><rdf:RDF><cc:Work
       rdf:about=""><dc:format>image/svg+xml</dc:format><dc:type
         rdf:resource="http://purl.org/dc/dcmitype/StillImage" /><dc:title></dc:title></cc:Work></rdf:RDF></metadata><defs
   id="defs113" /><sodipodi:namedview
   pagecolor="#ffffff"
   bordercolor="#666666"
   borderopacity="1"
   objecttolerance="10"
   gridtolerance="10"
   guidetolerance="10"
   inkscape:pageopacity="0"
   inkscape:pageshadow="2"
   inkscape:window-width="1280"
   inkscape:window-height="738"
   id="namedview111"
   showgrid="false"
   units="in"
   inkscape:zoom="0.18209877"
   inkscape:cx="-405.45763"
   inkscape:cy="642.50847"
   inkscape:window-x="-8"
   inkscape:window-y="-8"
   inkscape:window-maximized="1"
   inkscape:current-layer="Layer_1" />
<style
   type="text/css"
   id="style3">
	.st0{stroke:#000000;stroke-width:7.200000e-02;stroke-miterlimit:10;}
	.st1{fill:none;stroke:#000000;stroke-width:7.200000e-02;stroke-miterlimit:10;}
</style>

<g
   id="g5"
   transform="matrix(1.25,0,0,1.25,0,7.5e-6)"
   style="fill:#000000;stroke:#000000;stroke-opacity:1;stroke-width:0.072;stroke-miterlimit:4;stroke-dasharray:none;fill-opacity:1">
	<path
   class="st0"
   d="m 111.8,208.7 c 1.7,-5 5.4,-7 10.4,-7.6 4.1,-0.5 8.2,-1.5 12.9,-2.4 1.2,6.4 2.5,12.7 3.8,19.8 -3.5,-1.1 -6.5,3.4 -9.6,-1.2 -0.6,-0.9 -4.4,0.4 -6.7,0.6 -0.2,5.9 -5.1,3.1 -7.9,5 -1,-3.8 -2,-7.3 -3,-10.8 0.1,-1.2 0.1,-2.3 0.1,-3.4 z"
   id="path7"
   inkscape:connector-curvature="0"
   style="fill:#000000;stroke:#000000;stroke-opacity:1;stroke-width:0.072;stroke-miterlimit:4;stroke-dasharray:none;fill-opacity:1" />
	<path
   class="st0"
   d="m 154.6,195.3 c 8.2,3.4 6.5,11.4 8.6,18.1 -3.4,0.2 -6.6,3.5 -9.5,-0.9 -0.3,-0.4 -2,0.1 -3.5,0.2 -1,-5.3 -2,-10.4 -3.1,-15.8 1.4,-0.6 2.8,-1.1 4.1,-1.6 1.1,0 2.2,0 3.4,0 z"
   id="path9"
   inkscape:connector-curvature="0"
   style="fill:#000000;stroke:#000000;stroke-opacity:1;stroke-width:0.072;stroke-miterlimit:4;stroke-dasharray:none;fill-opacity:1" />
	<path
   class="st0"
   d="m 311.6,780.3 c 1.5,1.2 3.2,2.2 4.6,3.6 27.6,28.9 60.5,49.2 99.3,58.5 74.6,17.9 140.9,1 197.3,-51.2 36.1,-33.5 57.3,-75.5 63.4,-124.3 8.1,-65.1 -10.3,-122.4 -54.9,-170.8 -31.4,-34 -70.3,-55.4 -115.9,-63.2 -63,-10.8 -119.9,4.2 -169.9,44.2 -7.1,5.7 -13.3,12.4 -20,18.5 -1.2,1.1 -2.6,1.8 -3.9,2.8 -0.4,-0.2 -0.7,-0.4 -1.1,-0.6 0.5,-2 0.8,-4.1 1.5,-6.1 12.8,-38 30.4,-73.7 51.9,-107.5 22.5,-35.5 48.4,-68.5 78,-98.3 13.9,-14 28.4,-27.3 43,-40.5 11,-10 19,-10.1 31,-1.1 73.4,55 134.9,120.9 180.9,200.6 23.7,41.1 40.7,84.9 49.6,131.7 5.5,29.1 7,58.5 4.8,88 -5.2,68.8 -29.9,130.9 -66,188.9 -33.4,53.7 -75.1,100.4 -122,142.5 -15,13.4 -31.1,25.5 -46.7,38.1 -2,1.7 -4.4,3 -6.7,4.3 -6.9,3.7 -13.9,3.8 -20,-1.3 -10.7,-9 -21.4,-18 -31.5,-27.6 -39.2,-37.5 -73.1,-79.2 -101.1,-125.7 -18.4,-30.6 -33.7,-62.6 -45.1,-96.5 -0.7,-2 -1.1,-4.2 -1.7,-6.2 0.4,-0.2 0.8,-0.5 1.2,-0.8 z"
   id="path11"
   inkscape:connector-curvature="0"
   style="fill:#000000;stroke:#000000;stroke-opacity:1;stroke-width:0.072;stroke-miterlimit:4;stroke-dasharray:none;fill-opacity:1" />
	<path
   class="st0"
   d="m 438.2,586 c 25.7,0 51.4,0 77.2,0 1.8,0 3.7,-0.1 5.4,-0.5 4.2,-1.1 6.5,-4.5 5,-8.6 -1.4,-4 -3.2,-8.2 -5.8,-11.5 -7.4,-9.3 -15.3,-18.1 -23,-27.2 -2,-2.3 -3.7,-4.9 -5.1,-7.6 -2.4,-4.6 -2.4,-9.1 1.1,-13.3 3.6,-4.3 8.3,-4.8 13.4,-3.6 1.1,0.2 2.2,0.6 3.1,1.2 23.3,13.8 46.7,27.5 67.2,45.4 17.9,15.6 27.8,35.2 30.7,58.6 3,23.6 1.1,46.7 -7.4,69.2 -9.6,25.6 -31.8,42.2 -59.1,42.5 -48.1,0.4 -96.2,0.1 -144.3,0.1 -6.4,0 -10.9,-3.4 -12.7,-9 -1.7,-5.3 0.3,-11.5 5.1,-14.3 2.5,-1.4 5.8,-2.2 8.7,-2.2 19.4,-0.2 38.9,-0.1 58.3,-0.1 1.4,0 2.8,0 4.2,-0.3 3.7,-0.7 5.8,-3.6 5.6,-7.2 -0.2,-3.6 -2.6,-6.2 -6.3,-6.6 -2.5,-0.2 -5,-0.1 -7.5,-0.1 -31.7,0 -63.5,0 -95.2,0 -6.5,0 -11.7,-4.2 -12.7,-10 -1.2,-6.5 1.8,-12.5 7.7,-14.6 2.3,-0.8 4.9,-1.1 7.4,-1.1 31.2,-0.1 62.3,0 93.5,0 1.1,0 2.2,0 3.4,0 6.7,0 9.8,-2.2 9.9,-6.9 0,-4.7 -3.1,-7 -9.8,-7 -39.6,0 -79.1,0 -118.7,0 -10.1,0 -16.5,-8.4 -13.3,-17.3 1.9,-5.3 6.7,-8.3 13.2,-8.3 38,0 76,0 114.1,0 1.8,0 3.6,0 5.5,0 5.8,-0.1 9,-2.6 9,-7 0,-4.4 -3.4,-7.1 -9,-7.1 -32,0 -64,0 -96,0 -2.1,0 -4.3,0 -6.2,-0.5 -5.7,-1.6 -9.4,-7.7 -8.7,-13.7 0.7,-5.9 5.3,-10.5 11.3,-11.1 2.2,-0.2 4.5,-0.2 6.7,-0.2 24.6,-0.1 49.4,-0.1 74.1,-0.1 z"
   id="path13"
   inkscape:connector-curvature="0"
   style="fill:#000000;stroke:#000000;stroke-opacity:1;stroke-width:0.072;stroke-miterlimit:4;stroke-dasharray:none;fill-opacity:1" />
	<path
   class="st0"
   d="m 306.5,974.6 c -3.5,-0.2 -6.8,3.5 -9.4,-1.2 -0.1,-0.3 -1.5,0.1 -2.4,0.3 -9.6,1.8 -19.1,3.5 -28.7,5.3 -0.2,5.9 -5.2,2.9 -6.5,3.9 -2.4,-0.7 -3.8,-1.1 -5.2,-1.6 -0.7,-0.3 -1.6,-0.5 -2.1,-1 -3.3,-4.3 -6.6,-8.6 -10.3,-13.5 7.9,-1.5 15.1,-3 22.4,-4.4 9.8,-1.9 19.7,-3.7 29.6,-5.5 5.3,-1 9.2,1.4 10.4,6.5 0.9,3.4 1.4,7 2.2,11.2 z"
   id="path15"
   inkscape:connector-curvature="0"
   style="fill:#000000;stroke:#000000;stroke-opacity:1;stroke-width:0.072;stroke-miterlimit:4;stroke-dasharray:none;fill-opacity:1" />
	<path
   class="st0"
   d="m 187.1,608.1 c -1.2,-6.5 -2.4,-12.7 -3.7,-19.7 3.5,0.9 6.6,-3.7 9.4,1.2 0.2,0.4 2.1,0.1 3.2,-0.1 12.3,-2.3 24.6,-4.6 36.9,-7.1 2.6,-0.5 4.4,-0.3 6,2.1 2.7,4 5.8,7.7 9.1,12.1 -20.6,3.9 -40.5,7.7 -60.9,11.5 z"
   id="path17"
   inkscape:connector-curvature="0"
   style="fill:#000000;stroke:#000000;stroke-opacity:1;stroke-width:0.072;stroke-miterlimit:4;stroke-dasharray:none;fill-opacity:1" />
	<path
   class="st0"
   d="m 298.3,864 c -1.6,5.8 -2.9,10.9 -4.6,15.9 -0.4,1.1 -2.3,2.2 -3.6,2.5 -13.5,2.7 -27.1,5.2 -40.6,7.8 -0.7,3.3 -0.7,3.3 -8.4,4.5 -0.8,-4.2 -1.9,-8.4 -2.3,-12.6 -0.4,-3.8 2.7,-7.3 7,-8.1 12.8,-2.6 25.7,-5 38.6,-7.4 4.3,-0.9 8.7,-1.7 13.9,-2.6 z"
   id="path19"
   inkscape:connector-curvature="0"
   style="fill:#000000;stroke:#000000;stroke-opacity:1;stroke-width:0.072;stroke-miterlimit:4;stroke-dasharray:none;fill-opacity:1" />
	<path
   class="st0"
   d="m 324.2,1001.5 c -1.6,5.9 -2.9,11.1 -4.7,16.2 -0.3,1 -2.2,1.9 -3.5,2.2 -12.6,2.5 -25.1,4.8 -37.7,7.3 -1.4,0.3 -4.1,-0.3 -3.3,2.8 0.1,0.2 -1.2,1 -1.9,1.1 -1.9,0.5 -3.8,0.7 -6.2,1.2 -0.8,-4.4 -1.9,-8.5 -2.2,-12.8 -0.3,-4.2 3,-7.4 8.3,-8.4 12.4,-2.4 24.9,-4.7 37.3,-7 4.4,-0.8 8.8,-1.6 13.9,-2.6 z"
   id="path21"
   inkscape:connector-curvature="0"
   style="fill:#000000;stroke:#000000;stroke-opacity:1;stroke-width:0.072;stroke-miterlimit:4;stroke-dasharray:none;fill-opacity:1" />
	<path
   class="st0"
   d="m 141.1,315.4 c -0.3,5.5 -5.1,3.1 -8.3,5 -0.9,-4.7 -2,-9 -2.3,-13.3 -0.3,-4.2 3.1,-7.3 8.4,-8.3 11.1,-2.1 22.2,-4.1 33.2,-6.2 5.7,-1.1 11.4,-2.2 17.8,-3.4 -1.6,5.9 -3,11.2 -4.7,16.4 -0.3,1 -2.3,1.8 -3.6,2 -13.5,2.7 -27,5.2 -40.5,7.8 z"
   id="path23"
   inkscape:connector-curvature="0"
   style="fill:#000000;stroke:#000000;stroke-opacity:1;stroke-width:0.072;stroke-miterlimit:4;stroke-dasharray:none;fill-opacity:1" />
	<path
   class="st0"
   d="m 200.8,413.9 c 0.9,4.8 1.9,9.9 2.9,15.5 -20.3,3.8 -40.2,7.6 -60.9,11.5 1.7,-6 3.2,-11.4 4.9,-16.7 0.2,-0.6 1.1,-1.3 1.7,-1.5 16.8,-3.2 33.7,-6.2 50.5,-9.3 0.2,0 0.3,0.2 0.9,0.5 z"
   id="path25"
   inkscape:connector-curvature="0"
   style="fill:#000000;stroke:#000000;stroke-opacity:1;stroke-width:0.072;stroke-miterlimit:4;stroke-dasharray:none;fill-opacity:1" />
	<path
   class="st0"
   d="m 199.2,405.1 c -20.3,3.8 -40.2,7.6 -60.9,11.5 1.7,-6.1 3.2,-11.5 4.8,-16.9 0.2,-0.6 1.2,-1.1 1.9,-1.3 16.4,-3.1 32.8,-6.2 49.2,-9.3 0.5,-0.1 1.1,0.1 1.9,0.1 1,5.1 2,10.2 3.1,15.9 z"
   id="path27"
   inkscape:connector-curvature="0"
   style="fill:#000000;stroke:#000000;stroke-opacity:1;stroke-width:0.072;stroke-miterlimit:4;stroke-dasharray:none;fill-opacity:1" />
	<path
   class="st0"
   d="m 277,817.5 c 1.3,6.8 2.4,12.9 3.6,19.5 -3.4,-0.3 -6.6,3.6 -9.4,-1.4 -3.4,0.7 -7.1,1.3 -10.7,2.1 -2,0.4 -4.5,-0.3 -4.7,3.3 -0.1,1.6 -6.8,2.1 -8,0.8 -1.2,-1.3 -7.4,-1.3 -7.6,0.1 -0.7,5.5 -5.3,2.5 -8.2,4.6 -0.8,-4.8 -1.8,-8.9 -2.1,-13.2 -0.3,-3.7 1.8,-6.9 5.3,-7.7 13.7,-2.9 27.5,-5.4 41.8,-8.1 z"
   id="path29"
   inkscape:connector-curvature="0"
   style="fill:#000000;stroke:#000000;stroke-opacity:1;stroke-width:0.072;stroke-miterlimit:4;stroke-dasharray:none;fill-opacity:1" />
	<path
   class="st0"
   d="m 186.8,340.1 c 1.3,6.8 2.4,12.9 3.7,19.3 -2.7,0.6 -5.1,1.1 -7.5,1.6 0,-0.4 0.1,-0.8 0.1,-1.2 -1.6,-0.3 -3.3,-1.1 -4.9,-0.9 -3.3,0.3 -6.6,1.1 -9.9,1.7 -0.8,0.2 -1.7,0.5 -2.1,1.1 -2.6,3.9 -4.7,4.3 -9.1,1.7 -0.9,-0.5 -2.4,-0.1 -3.6,0 -1.1,0.1 -2.2,0.4 -3.3,0.7 -0.4,5.6 -5.1,3.2 -8.4,4.8 -0.8,-4.7 -1.9,-8.9 -2.1,-13.1 -0.2,-3.7 1.9,-6.8 5.4,-7.6 13.7,-2.9 27.5,-5.4 41.7,-8.1 z"
   id="path31"
   inkscape:connector-curvature="0"
   style="fill:#000000;stroke:#000000;stroke-opacity:1;stroke-width:0.072;stroke-miterlimit:4;stroke-dasharray:none;fill-opacity:1" />
	<path
   class="st0"
   d="m 290.7,890.9 c 1,5.4 2,10.3 3,15.9 -5.5,1.1 -11,2.2 -16.5,3.3 -7,1.3 -14,2.7 -20.9,4 -0.8,0.2 -2.2,0.3 -2.3,0.6 -0.7,5.3 -5.2,3 -8.4,4.5 -1.4,-7.6 -2.8,-14.8 -4.2,-22.3 2.8,-0.6 5.2,-1.1 7.6,-1.7 0,0.5 0,0.9 0,1.4 1.9,0.3 3.9,1.1 5.7,0.7 11,-1.9 21.9,-4.1 32.8,-6.2 0.9,-0.2 1.9,-0.2 3.2,-0.2 z"
   id="path33"
   inkscape:connector-curvature="0"
   style="fill:#000000;stroke:#000000;stroke-opacity:1;stroke-width:0.072;stroke-miterlimit:4;stroke-dasharray:none;fill-opacity:1" />
	<path
   class="st0"
   d="m 276.5,1082.5 c 3.6,0.8 6.7,-3.4 9.7,1.3 0.5,0.8 4.1,-0.4 6.3,-0.7 1.1,-4.3 5.9,-5.6 9,-2.7 0.5,0.4 1.4,0.6 2.1,0.5 2.9,-0.4 5.8,-0.8 8.6,-1.6 2.1,-0.6 4.9,0.3 5.6,-3.6 0.2,-1.1 4.6,-1.4 7.4,-2.2 0.8,4.5 1.7,8.4 2,12.4 0.4,4.5 -1.8,7.7 -6.2,8.6 -10.6,2.1 -21.3,4.2 -32,6 -6.4,1.1 -9.3,-1.2 -10.7,-7.6 -0.5,-3.1 -1,-6.3 -1.8,-10.4 z"
   id="path35"
   inkscape:connector-curvature="0"
   style="fill:#000000;stroke:#000000;stroke-opacity:1;stroke-width:0.072;stroke-miterlimit:4;stroke-dasharray:none;fill-opacity:1" />
	<path
   class="st0"
   d="m 165,491.9 c 3.5,0.7 6.6,-3.4 9.5,1.2 0.9,1.4 5.6,-1.3 7.1,-2.7 1.3,-1.3 3.7,-1.9 5.7,-2.2 1,-0.2 2.3,1 3.1,2.3 3.5,-0.7 7.1,-1.2 10.6,-2 2,-0.5 4.5,0.1 5.3,-3.4 0.3,-1.2 4.6,-1.5 7.4,-2.3 0.8,4.5 1.7,8.4 2.1,12.4 0.4,4.8 -1.9,7.8 -6.5,8.7 -10.4,2.1 -20.8,4.1 -31.2,5.9 -6.8,1.2 -9.7,-1 -11.2,-7.9 -0.7,-3 -1.2,-6 -1.9,-10 z"
   id="path37"
   inkscape:connector-curvature="0"
   style="fill:#000000;stroke:#000000;stroke-opacity:1;stroke-width:0.072;stroke-miterlimit:4;stroke-dasharray:none;fill-opacity:1" />
	<path
   class="st0"
   d="m 114.6,224.3 c 3.6,0.5 6.7,-3.4 9.8,1.1 0.4,0.6 5.3,1 6.9,-2.8 0.5,-1.3 3.6,-1.8 5.6,-2.1 1,-0.1 2.2,1.1 4.2,2.1 2.3,-0.4 5.8,-0.9 9.2,-1.7 2.1,-0.5 4.9,0.3 5.6,-3.6 0.2,-1.1 4.6,-1.4 7.4,-2.1 0.8,4.5 1.7,8.4 2,12.4 0.4,4.5 -1.9,7.7 -6.2,8.6 -10.6,2.1 -21.3,4.2 -32,6 -6.4,1.1 -9.2,-1.2 -10.6,-7.6 -0.6,-3.2 -1.1,-6.3 -1.9,-10.3 z"
   id="path39"
   inkscape:connector-curvature="0"
   style="fill:#000000;stroke:#000000;stroke-opacity:1;stroke-width:0.072;stroke-miterlimit:4;stroke-dasharray:none;fill-opacity:1" />
	<path
   class="st0"
   d="m 182.5,316.1 c 1,5.5 2,10.5 3,16 -16.2,3.1 -32.1,6.1 -48.7,9.2 -1.2,-6.4 -2.4,-12.6 -3.7,-19.6 3.4,0.7 6.3,-3.7 9.3,1 0.4,0.6 2.6,0.1 4,-0.1 11,-2.1 21.9,-4.2 32.8,-6.3 0.9,-0.2 1.9,-0.1 3.3,-0.2 z"
   id="path41"
   inkscape:connector-curvature="0"
   style="fill:#000000;stroke:#000000;stroke-opacity:1;stroke-width:0.072;stroke-miterlimit:4;stroke-dasharray:none;fill-opacity:1" />
	<path
   class="st0"
   d="m 316.7,1028.4 c 1,5.5 2,10.5 3,16 -16.2,3.1 -32.1,6.1 -48.7,9.2 -1.2,-6.4 -2.4,-12.6 -3.8,-19.6 3.3,0.6 6.3,-3.7 9.3,0.9 0.4,0.6 2.6,0.1 4,-0.1 11,-2.1 21.9,-4.2 32.8,-6.3 1,-0.1 2,-0.1 3.4,-0.1 z"
   id="path43"
   inkscape:connector-curvature="0"
   style="fill:#000000;stroke:#000000;stroke-opacity:1;stroke-width:0.072;stroke-miterlimit:4;stroke-dasharray:none;fill-opacity:1" />
	<path
   class="st0"
   d="m 245.9,921.1 c 2.7,-0.6 5,-1.1 7.2,-1.6 0,0.4 0,0.8 0,1.2 2.1,0.3 4.2,1.1 6.2,0.8 11.8,-2 23.5,-4.4 35.8,-6.7 1.1,5.5 2.1,10.7 3.2,16.4 -16.4,3.1 -32.4,6.1 -48.7,9.2 -1.2,-6.5 -2.4,-12.6 -3.7,-19.3 z"
   id="path45"
   inkscape:connector-curvature="0"
   style="fill:#000000;stroke:#000000;stroke-opacity:1;stroke-width:0.072;stroke-miterlimit:4;stroke-dasharray:none;fill-opacity:1" />
	<path
   class="st0"
   d="m 124.1,273 c 3.3,0.6 6.6,-3.5 9.2,1.2 0.2,0.3 1.6,0.1 2.4,-0.1 8.9,-1.7 17.8,-3.3 26.7,-5 0.7,-0.1 1.8,-0.4 1.8,-0.7 0.6,-5.7 5.6,-2.4 8.3,-5.1 0.8,5.1 1.8,9.2 2.1,13.3 0.4,4.3 -2,7.4 -6.2,8.2 -10.8,2.2 -21.6,4.2 -32.4,6 -5.9,1 -8.9,-1.4 -10.2,-7.2 -0.5,-2.4 -1,-4.9 -1.5,-7.4 0,-0.7 0,-1.5 -0.2,-3.2 z"
   id="path47"
   inkscape:connector-curvature="0"
   style="fill:#000000;stroke:#000000;stroke-opacity:1;stroke-width:0.072;stroke-miterlimit:4;stroke-dasharray:none;fill-opacity:1" />
	<path
   class="st0"
   d="m 307,976.6 c 0.7,4.1 1.6,7.9 1.9,11.8 0.4,4.8 -1.8,7.9 -6.4,8.8 -10.4,2.1 -20.7,4.1 -31.2,5.9 -6.9,1.2 -9.9,-1 -11.3,-7.8 -0.7,-3.1 -1.2,-6.2 -1.9,-10.1 3.4,0.8 6.6,-3.7 9.4,1.2 0.2,0.4 2.1,0.1 3.2,-0.1 8.5,-1.6 16.9,-3.2 25.4,-4.9 0.8,-0.2 1.8,-0.2 2.3,-0.7 3.8,-3.6 3.7,-3.6 8.6,-4.1 z"
   id="path49"
   inkscape:connector-curvature="0"
   style="fill:#000000;stroke:#000000;stroke-opacity:1;stroke-width:0.072;stroke-miterlimit:4;stroke-dasharray:none;fill-opacity:1" />
	<path
   class="st0"
   d="m 241.1,627.6 c 0.9,4.7 1.8,8.4 2.3,12.1 0.6,4.8 -1.8,8.4 -6.5,9.3 -13.4,2.6 -26.8,5.1 -40.7,7.7 -1,-5.3 -2.1,-10.4 -3.1,-15.8 0.8,-0.3 1.4,-0.8 2.1,-0.9 11.6,-2.2 23.3,-4.5 34.9,-6.7 1.6,-0.3 2.5,-0.4 3.5,-2.5 0.7,-1.7 4.5,-2 7.5,-3.2 z"
   id="path51"
   inkscape:connector-curvature="0"
   style="fill:#000000;stroke:#000000;stroke-opacity:1;stroke-width:0.072;stroke-miterlimit:4;stroke-dasharray:none;fill-opacity:1" />
	<path
   class="st0"
   d="m 240.9,626.4 c -3.6,-0.3 -6.9,3.6 -9.5,-1.2 -0.2,-0.3 -1.8,0.2 -2.8,0.4 -12.2,2.3 -24.4,4.5 -37,6.9 -1,-5.5 -2,-10.7 -3.1,-16.3 14.1,-2.7 27.8,-5.4 41.5,-7.8 3.8,-0.7 7.4,2 8.4,6 1,3.7 1.6,7.6 2.5,12 z"
   id="path53"
   inkscape:connector-curvature="0"
   style="fill:#000000;stroke:#000000;stroke-opacity:1;stroke-width:0.072;stroke-miterlimit:4;stroke-dasharray:none;fill-opacity:1" />
	<path
   class="st0"
   d="m 177.9,559.4 c -1.1,-5.7 -2,-10.8 -3.1,-16.4 11.1,-2.1 21.9,-4 32.6,-6.3 2.9,-0.6 7,0.7 8.4,-4.2 0.3,-1.1 4.5,-1.2 8.1,-1.9 -0.9,3.9 -1.8,6.9 -2.1,9.9 -0.9,8.7 -5.1,12.8 -14.2,13.5 -9.8,0.9 -19.5,3.5 -29.7,5.4 z"
   id="path55"
   inkscape:connector-curvature="0"
   style="fill:#000000;stroke:#000000;stroke-opacity:1;stroke-width:0.072;stroke-miterlimit:4;stroke-dasharray:none;fill-opacity:1" />
	<path
   class="st0"
   d="m 173.3,535.1 c -1.1,-5.6 -2,-10.8 -3.1,-16.3 9.9,-1.9 19.7,-2.9 28.9,-5.7 9.2,-2.8 15,-0.4 19.2,7.9 1.3,2.5 3.1,4.7 4.3,7.6 -3.3,0 -6.4,4.4 -9.2,-0.4 -0.2,-0.4 -1.8,0 -2.7,0.1 -12.2,2.2 -24.5,4.5 -37.4,6.8 z"
   id="path57"
   inkscape:connector-curvature="0"
   style="fill:#000000;stroke:#000000;stroke-opacity:1;stroke-width:0.072;stroke-miterlimit:4;stroke-dasharray:none;fill-opacity:1" />
	<path
   class="st0"
   d="m 172.8,460.5 c -1.1,-5.6 -2,-10.7 -3.1,-16.4 11.9,-2.2 23.5,-4.4 35.6,-6.7 1.1,5.6 2,10.7 3.1,16.3 -12,2.3 -23.7,4.5 -35.6,6.8 z"
   id="path59"
   inkscape:connector-curvature="0"
   style="fill:#000000;stroke:#000000;stroke-opacity:1;stroke-width:0.072;stroke-miterlimit:4;stroke-dasharray:none;fill-opacity:1" />
	<path
   class="st0"
   d="m 158.3,367.4 c 3.6,0 7,-3.4 9.5,1.4 3.8,-0.7 7.6,-1.5 11.4,-2.3 1.8,-0.3 3.6,0.2 4,-3 0.1,-1.1 4.5,-1.7 7.7,-2.7 0.8,5.2 1.9,9.7 2,14.3 0.1,3.7 -2.6,6.1 -6.2,6.9 -5.7,1.3 -11.4,2.4 -17.2,3.3 -4,0.6 -7.9,-1.9 -8.9,-5.9 -0.9,-3.6 -1.4,-7.5 -2.3,-12 z"
   id="path61"
   inkscape:connector-curvature="0"
   style="fill:#000000;stroke:#000000;stroke-opacity:1;stroke-width:0.072;stroke-miterlimit:4;stroke-dasharray:none;fill-opacity:1" />
	<path
   class="st0"
   d="m 262.2,739.7 c -3.5,-0.1 -6.9,3.5 -9.3,-1.4 -3.8,0.7 -7.6,1.5 -11.4,2.2 -1.8,0.3 -3.3,0.3 -4.2,2.9 -0.5,1.5 -4.7,1.8 -7.5,2.7 -0.8,-4.3 -1.7,-7.8 -2.1,-11.4 -0.7,-5.4 1.9,-8.8 7.2,-9.9 5.2,-1.1 10.4,-2.1 15.6,-3 4.2,-0.8 8.1,1.7 9.4,5.8 0.5,1.5 0.7,3 1,4.5 0.4,2.3 0.8,4.6 1.3,7.6 z"
   id="path63"
   inkscape:connector-curvature="0"
   style="fill:#000000;stroke:#000000;stroke-opacity:1;stroke-width:0.072;stroke-miterlimit:4;stroke-dasharray:none;fill-opacity:1" />
	<path
   class="st0"
   d="m 271.5,788.3 c -3.7,0.1 -7.1,3.4 -9.4,-1.4 -3,0.5 -6.1,0.8 -9,1.7 -2.4,0.7 -6,-0.5 -6.8,3.9 -0.2,1 -4.4,1.3 -7.3,2 -0.8,-4.4 -1.7,-8.3 -2.1,-12.2 -0.4,-4.7 2.2,-8 7,-8.9 5.3,-1.1 10.7,-2.1 16,-3.1 4.1,-0.7 8,1.6 9.1,5.6 1.1,3.9 1.6,7.9 2.5,12.4 z"
   id="path65"
   inkscape:connector-curvature="0"
   style="fill:#000000;stroke:#000000;stroke-opacity:1;stroke-width:0.072;stroke-miterlimit:4;stroke-dasharray:none;fill-opacity:1" />
	<path
   class="st0"
   d="m 217.6,681.4 c -0.9,-4.8 -1.9,-8.8 -2.3,-12.9 -0.4,-3.8 2.8,-7.5 6.8,-8.3 5.4,-1.1 10.9,-2.2 16.4,-3.1 4.2,-0.7 8,1.7 9.2,6 1,3.7 1.6,7.6 2.4,11.8 -3.3,0 -6.6,3.7 -9.5,-1 -0.2,-0.3 -1.8,0.2 -2.8,0.3 -3.3,0.6 -6.6,1.2 -9.8,1.8 -0.7,0.1 -1.8,0.3 -1.9,0.6 -0.6,5.3 -5.2,3 -8.5,4.8 z"
   id="path67"
   inkscape:connector-curvature="0"
   style="fill:#000000;stroke:#000000;stroke-opacity:1;stroke-width:0.072;stroke-miterlimit:4;stroke-dasharray:none;fill-opacity:1" />
	<path
   class="st0"
   d="m 281,838.5 c 0.8,4.5 1.6,8.3 2.2,12.1 0.6,4.5 -1.8,8 -6.2,9 -5.7,1.3 -11.4,2.4 -17.2,3.3 -4.3,0.7 -7.9,-2.2 -9.2,-6.8 -0.1,-0.4 -0.2,-0.8 -0.3,-1.2 -0.6,-3.1 -1.1,-6.3 -1.8,-9.9 3.3,0 6.5,-3.5 9.4,1 0.2,0.3 1.8,-0.2 2.7,-0.3 3.3,-0.6 6.6,-1.2 9.8,-1.8 0.7,-0.1 1.8,-0.3 1.9,-0.6 0.9,-5.2 5.4,-3.1 8.7,-4.8 z"
   id="path69"
   inkscape:connector-curvature="0"
   style="fill:#000000;stroke:#000000;stroke-opacity:1;stroke-width:0.072;stroke-miterlimit:4;stroke-dasharray:none;fill-opacity:1" />
	<path
   class="st0"
   d="m 297,1057 c 1.2,6.5 2.4,12.7 3.8,19.8 -3.4,-1.1 -6.3,3.5 -9.4,-1.1 -0.7,-1 -4.4,0.2 -6.6,0.4 -0.6,3.8 -0.6,3.8 -8.5,4.6 -0.8,-4 -1.8,-8.1 -2.2,-12.2 -0.4,-3.7 2.4,-7.3 6.3,-8.2 5.3,-1.3 10.7,-2.2 16.6,-3.3 z"
   id="path71"
   inkscape:connector-curvature="0"
   style="fill:#000000;stroke:#000000;stroke-opacity:1;stroke-width:0.072;stroke-miterlimit:4;stroke-dasharray:none;fill-opacity:1" />
	<path
   class="st0"
   d="m 189.2,485.9 c -3.6,-0.3 -6.7,3.1 -9.8,-1 -0.5,-0.7 -5.9,-1.5 -6.8,3 -0.1,0.7 -1.9,1.2 -3,1.5 -1.5,0.4 -3,0.5 -5,0.7 -0.8,-4.3 -1.9,-8.4 -2.2,-12.7 -0.3,-3.7 2.6,-7 6.6,-8 5.3,-1.2 10.6,-2.1 16.3,-3.2 1.3,6.6 2.5,12.8 3.9,19.7 z"
   id="path73"
   inkscape:connector-curvature="0"
   style="fill:#000000;stroke:#000000;stroke-opacity:1;stroke-width:0.072;stroke-miterlimit:4;stroke-dasharray:none;fill-opacity:1" />
	<path
   class="st0"
   d="m 222.6,799 c 4,0.6 7.1,-3.3 10.1,1.2 0.5,0.8 4.2,-0.4 6.4,-0.7 0.5,-5.9 5.1,-3.3 8.6,-4.9 -0.1,6.6 5.4,13.1 -0.5,18.6 -4.5,4.2 -11.3,5.2 -16.9,3.3 -7.6,-2.7 -4.9,-10.9 -7.7,-17.5 z"
   id="path75"
   inkscape:connector-curvature="0"
   style="fill:#000000;stroke:#000000;stroke-opacity:1;stroke-width:0.072;stroke-miterlimit:4;stroke-dasharray:none;fill-opacity:1" />
	<path
   class="st0"
   d="m 238.5,746.1 c -0.1,6.5 5.4,13 -0.5,18.4 -4.5,4.2 -11.3,5.2 -16.9,3.2 -7.6,-2.7 -5,-10.9 -7.7,-17.4 3.8,0.7 6.5,-3.5 9.7,1 1.4,2 7,-0.9 7.6,-3.9 2.4,-0.4 4.8,-0.8 7.8,-1.3 z"
   id="path77"
   inkscape:connector-curvature="0"
   style="fill:#000000;stroke:#000000;stroke-opacity:1;stroke-width:0.072;stroke-miterlimit:4;stroke-dasharray:none;fill-opacity:1" />
	<path
   class="st0"
   d="m 201.5,686.2 c 2.9,-0.6 5.3,-1.2 7.6,-1.7 3,3.7 6.1,3 9.4,-0.9 1.4,-1.6 4.7,-1.6 8,-2.6 -0.2,6.8 5,13.1 -0.3,18.6 -4.4,4.5 -11.2,5.3 -16.9,3.7 -8.1,-2.4 -5.1,-11 -7.8,-17.1 z"
   id="path79"
   inkscape:connector-curvature="0"
   style="fill:#000000;stroke:#000000;stroke-opacity:1;stroke-width:0.072;stroke-miterlimit:4;stroke-dasharray:none;fill-opacity:1" />
	<path
   class="st0"
   d="m 241.8,698.3 c -1,-5.2 -2,-10.5 -3,-15.5 3.8,-2.1 5.9,-6.9 11.1,-5.4 4.1,12.2 5,20 -8.1,20.9 z"
   id="path81"
   inkscape:connector-curvature="0"
   style="fill:#000000;stroke:#000000;stroke-opacity:1;stroke-width:0.072;stroke-miterlimit:4;stroke-dasharray:none;fill-opacity:1" />
	<path
   class="st0"
   d="m 132.3,250.2 c 1,5.1 1.9,10.3 2.8,15 -3.7,2.5 -5.9,7.4 -11.7,5.4 -0.7,-3.6 -1.8,-7.6 -2.1,-11.7 -0.5,-5.4 4.2,-8.9 11,-8.7 z"
   id="path83"
   inkscape:connector-curvature="0"
   style="fill:#000000;stroke:#000000;stroke-opacity:1;stroke-width:0.072;stroke-miterlimit:4;stroke-dasharray:none;fill-opacity:1" />
	<path
   class="st0"
   d="m 183,586 c -0.7,-3.6 -1.7,-7.5 -2.1,-11.5 -0.5,-5.3 3.8,-8.8 11,-8.9 1,5.1 2,10.2 2.9,15.3 -3.8,2.1 -5.8,7.2 -11.8,5.1 z"
   id="path85"
   inkscape:connector-curvature="0"
   style="fill:#000000;stroke:#000000;stroke-opacity:1;stroke-width:0.072;stroke-miterlimit:4;stroke-dasharray:none;fill-opacity:1" />
	<path
   class="st0"
   d="m 172.3,262.3 c -3.5,-0.4 -6.7,3.6 -9.4,-1.2 -0.2,-0.4 -2,0.1 -3.6,0.1 -1,-5.3 -2,-10.5 -3,-15.7 8.7,-2.9 12.6,-0.7 14.2,7.8 0.6,2.8 1.1,5.5 1.8,9 z"
   id="path87"
   inkscape:connector-curvature="0"
   style="fill:#000000;stroke:#000000;stroke-opacity:1;stroke-width:0.072;stroke-miterlimit:4;stroke-dasharray:none;fill-opacity:1" />
	<path
   class="st0"
   d="m 325,1071.9 c -3.4,-0.4 -6.7,3.7 -9.3,-1.1 -0.2,-0.4 -2,0.1 -3.6,0.1 -1,-5.3 -2,-10.5 -3,-15.7 8.7,-2.9 12.6,-0.7 14.2,7.8 0.5,2.8 1,5.6 1.7,8.9 z"
   id="path89"
   inkscape:connector-curvature="0"
   style="fill:#000000;stroke:#000000;stroke-opacity:1;stroke-width:0.072;stroke-miterlimit:4;stroke-dasharray:none;fill-opacity:1" />
	<path
   class="st0"
   d="m 232.3,847.6 c 3.9,0.4 7.1,-3 9.6,1.4 0.3,0.5 2.1,0.1 3.2,0.1 0.3,1 0.6,1.8 0.8,2.6 0.8,4.3 1.5,8.7 2.3,13 -7.9,3 -12.4,0.6 -14,-7.1 -0.6,-3.3 -1.2,-6.4 -1.9,-10 z"
   id="path91"
   inkscape:connector-curvature="0"
   style="fill:#000000;stroke:#000000;stroke-opacity:1;stroke-width:0.072;stroke-miterlimit:4;stroke-dasharray:none;fill-opacity:1" />
	<path
   class="st0"
   d="m 263.1,811.5 c -1,-5.1 -2,-10.3 -3,-15.3 3.7,-2.1 5.4,-7.2 11,-5.5 6.8,9.4 3.3,19.5 -8,20.8 z"
   id="path93"
   inkscape:connector-curvature="0"
   style="fill:#000000;stroke:#000000;stroke-opacity:1;stroke-width:0.072;stroke-miterlimit:4;stroke-dasharray:none;fill-opacity:1" />
	<path
   class="st0"
   d="m 262.4,740.1 c 1,5.7 2.1,9.9 2.4,14.1 0.4,5.2 -3.3,8 -10.9,8.5 -1,-5.1 -2,-10.3 -3,-15.9 3.6,-2 7.1,-4.1 11.5,-6.7 z"
   id="path95"
   inkscape:connector-curvature="0"
   style="fill:#000000;stroke:#000000;stroke-opacity:1;stroke-width:0.072;stroke-miterlimit:4;stroke-dasharray:none;fill-opacity:1" />
	<path
   class="st0"
   d="m 210.1,662.8 c 1,5.2 1.9,10.3 2.9,15.3 -3.8,1.8 -5.5,7.4 -11.8,5.2 -0.6,-3.8 -1.8,-8.4 -1.8,-13 -0.1,-4.6 3.9,-7.1 10.7,-7.5 z"
   id="path97"
   inkscape:connector-curvature="0"
   style="fill:#000000;stroke:#000000;stroke-opacity:1;stroke-width:0.072;stroke-miterlimit:4;stroke-dasharray:none;fill-opacity:1" />
	<path
   class="st0"
   d="m 142.2,370.6 c 2.7,-0.5 5,-1.5 7.2,-1.3 1.8,0.2 3.3,1.9 5.9,3.6 0.8,4 1.7,9.1 2.7,14.2 -7.7,3.2 -12.7,0.6 -14.1,-6.9 -0.6,-3 -1.1,-6 -1.7,-9.6 z"
   id="path99"
   inkscape:connector-curvature="0"
   style="fill:#000000;stroke:#000000;stroke-opacity:1;stroke-width:0.072;stroke-miterlimit:4;stroke-dasharray:none;fill-opacity:1" />
	<path
   class="st0"
   d="m 213.4,481.2 c -3.6,0.1 -6.9,3.3 -9.5,-1.2 -0.2,-0.4 -2,0.1 -3.4,0.2 -1,-5.3 -2,-10.5 -3,-15.6 8,-3.4 12.6,-0.9 14.1,7.5 0.6,2.9 1.1,5.8 1.8,9.1 z"
   id="path101"
   inkscape:connector-curvature="0"
   style="fill:#000000;stroke:#000000;stroke-opacity:1;stroke-width:0.072;stroke-miterlimit:4;stroke-dasharray:none;fill-opacity:1" />
	<path
   class="st0"
   d="m 231.4,776.1 c 1,5.1 2,10.2 2.9,15.2 -3.7,2.4 -5.7,7.2 -11.8,5.2 -0.6,-3.6 -1.7,-7.9 -1.9,-12.2 -0.1,-5.1 3.9,-7.9 10.8,-8.2 z"
   id="path103"
   inkscape:connector-curvature="0"
   style="fill:#000000;stroke:#000000;stroke-opacity:1;stroke-width:0.072;stroke-miterlimit:4;stroke-dasharray:none;fill-opacity:1" />
	<path
   class="st0"
   d="m 213.8,748.7 c -4.4,-16 -2.7,-20.4 8.3,-21.3 0.5,2.6 1.1,5.2 1.6,7.9 0.5,2.6 0.9,5.2 1.2,6.7 -1.9,2.3 -2.9,4.4 -4.5,5.3 -1.8,1 -4.3,0.9 -6.6,1.4 z"
   id="path105"
   inkscape:connector-curvature="0"
   style="fill:#000000;stroke:#000000;stroke-opacity:1;stroke-width:0.072;stroke-miterlimit:4;stroke-dasharray:none;fill-opacity:1" />
	<path
   class="st0"
   d="m 170.9,460.8 c -4,0.8 -7.3,1.4 -11.2,2.2 -1,-5.5 -2,-10.7 -3.1,-16.3 3.8,-0.8 7.2,-1.4 11.2,-2.2 1,5.4 2,10.7 3.1,16.3 z"
   id="path107"
   inkscape:connector-curvature="0"
   style="fill:#000000;stroke:#000000;stroke-opacity:1;stroke-width:0.072;stroke-miterlimit:4;stroke-dasharray:none;fill-opacity:1" />
</g><rect
   class="st1"
   width="1080"
   height="1620"
   id="rect109"
   x="0"
   y="-3.7060547e-006"
   style="fill:none;stroke:#000000;stroke-opacity:1;stroke-width:0.09;stroke-miterlimit:4;stroke-dasharray:none" />
</svg>