<?xml version="1.0" encoding="utf-8"?>
<!-- Generator: Adobe Illustrator 20.1.0, SVG Export Plug-In . SVG Version: 6.00 Build 0)  -->
<svg version="1.1" id="Layer_1" xmlns="http://www.w3.org/2000/svg" xmlns:xlink="http://www.w3.org/1999/xlink" x="0px" y="0px"
	 viewBox="0 0 1612 1644" style="enable-background:new 0 0 1612 1644;" xml:space="preserve">
<style type="text/css">
	.st0{fill:#101010;}
</style>
<path class="st0" d="M1446.8,776.8c0,26.5,0,53.1,0,79.6c-2.9,6.3-1.9,13.3-2.5,19.8c-2.5,28.7-7,57-13.6,85
	c-27.2,115.6-81.5,216.8-163.8,302.5c-85.3,88.8-187.8,148.8-307.1,179.6c-32.8,8.5-66.2,14.3-100,17.4c-7.5,0.7-15.4-0.5-22.7,2.5
	c-26.5,0-53.1,0-79.6,0c-0.3-1.1-1.1-1.3-2.1-1.3c-29.2-1.3-58.2-5.2-86.6-11.7c-8.8-2-19.6,0.5-25.7-9.3c0,0-1.3,0.5-1.5,0.9
	c-1.6,3.2-4.1,1.5-6.2,1c-102.2-26.8-192.7-75.6-271.1-146.4c-66.5-60-118.5-131-155.7-212.8c-30-66.1-48.4-135.1-55.4-207.4
	c-0.7-7.1,0.5-14.5-2.5-21.3c0-26.5,0-53.1,0-79.6c1.7-0.8,1.3-2.3,1.3-3.7c0.6-22.2,3.8-44.2,7.5-66.1
	c10.6-62.2,29.8-121.7,58-178.1c47.5-95.1,114.2-174,200.1-236.8c41.1-30,85-54.8,131.9-74.3c60.6-25.1,123.4-41,188.8-46.9
	c6.8-0.6,14,0.6,20.5-2.4c26.1,0,52.1,0,78.2,0c6.8,3,14.2,1.8,21.2,2.4c45.9,3.9,90.7,13.2,134.6,26.9
	c74,23.1,141.4,58.6,202.7,106.1c71.4,55.4,128.9,122.6,172.2,201.8c42.8,78.1,68.3,161.6,76.4,250.4
	C1445,762.1,1443.9,769.7,1446.8,776.8z M324.7,424.5c7,2.9,5.7,5.7,2.3,9.9c-24,30-45.8,61.5-63.5,95.7
	c-4.2,8.2-8.5,16.4-12.5,24.7c-4,8.3-8,16.6-11.2,25.2c-2.9,7.9-6.6,15.4-9.5,23.3c-17.8,48.4-29.3,98.3-35,149.5
	c-0.7,6.6,0.9,13.7-4.1,19.4c5,7,1.2,14.5,1,21.8c-1.3,57.2,3.9,113.7,17.8,169.3c1.1,4.5,5.4,9.4,0.8,14.5c-0.7,0.8-0.1,2,0.9,2.2
	c4.5,0.8,4.1,4.7,4.9,7.7c12.6,42.3,29.4,82.8,50.7,121.4c31.3,56.5,70.5,106.8,117.6,150.9c11.8,11,23.9,21.5,36.6,31.4
	c104.5,82.2,223.2,126,355.9,131.5c46,1.9,91.7-1.9,137-10.7c111.4-21.6,209-70.7,293.1-146.7c48.7-44,89-94.7,121.2-151.9
	c2-3.5,3.5-7.6,8.8-6.8c-1.2-3.8-1.5-7.1,0.7-11.1c5.3-9.7,10-19.8,14.6-29.9c32.2-71.1,50-145.8,53.3-223.7
	c3-69.8-5.7-138.2-26.3-205c-12.9-41.7-29.9-81.7-51.4-119.6c-34.2-60.2-77-113.4-129.3-158.9c-44.7-38.9-93.9-70.8-147.8-95.5
	c-80.4-36.9-165-54.6-253.1-55c-50.2-0.2-99.9,6.2-148.7,18.8c-45.7,11.8-89.6,28.4-131.5,50.4c-31.9,16.7-62.1,36.2-90.7,58.1
	c-4.6,3.5-9.5,6.2-14,10.5c-17.5,16.3-35.5,32-52.1,49.1c-2,2-6,2.3-6.2,3.4c-2.2,8.9-10.2,13.1-15.1,19.8
	C336.8,423,333.6,429.5,324.7,424.5z M471.6,330.6c-2.5-2.7,2,2.4,4-2.2c1.2-3,5.7-4.7,8.9-6.7c71.2-45.4,148.6-74.1,232.2-86.1
	c3.4-0.5,7.5-2.5,9.9,2.3c0.5,0.9,2.3,0.4,2.4-0.3c1.5-5.9,6.6-4.4,10.3-4.8c21.9-2.2,43.9-3.6,65.9-3.1
	c43.5,0.9,86.5,5.4,128.9,15.5c113.1,27.1,209.7,83,290.3,166.8c9.4,9.8,18.5,20.1,27.1,30.6c27.3,33.4,51.2,69,70.7,107.6
	c25.7,50.9,44.1,104.2,54.1,160.4c10.1,56.5,12.2,113.3,5.8,170.3c-6.1,54.3-19.1,106.8-40,157.4c-30.7,74.2-74.5,139.6-131.9,195.8
	c-63.1,61.8-136.3,107.5-220,136.1c-67.8,23.2-137.4,33.6-209.2,31.3c-63.9-2.1-125.8-13.8-185.7-36.2
	c-50.9-19-98.6-44.1-142.1-76.9c-12.5-9.4-25.5-18.2-36.5-29.2c-8.2-8.2-18.2-14.3-25.9-23c-8.2-9.2-16.9-17.8-25.4-26.8
	c-8.3-8.8-16.2-17.9-23.5-27.5c-7.3-9.6-14.9-19-21.8-28.9c-28.9-40.9-52.4-84.7-69.5-131.8c-3.8-10.5-6.7-21.7-10.2-32.2
	c-5.1-15.5-9.4-31.2-13.3-47c-7-28.1-10-56.8-12.3-85.5c-2.9-37.6-1.8-75.2,3-112.6c5.2-40.9,14.4-80.8,28-119.8
	c14.6-42,33.5-81.7,57-119.3c39.7-63.6,90.1-117.3,150.3-161.8 M1208.8,1094.4c2.9,0.8,5.1,7.6,9.1,0.7c2.6-4.6,6.2-8.4-4.1-10.8
	c8.2-2,8.5-6,6-10.6c-4.3-7.9-7.5,3.4-11.5,0.8c-0.8-3.4,0.9-6.8,1-11c-4.9,1.1-11.8-2.4-10.2,7.2c0.3,2-1.4,2-2.8,1
	c-1.6-1.2-3.2-2.4-5.3-4c-1.6,5.4-11.1,9.1-0.6,15.2c-7.8,2.5-5.8,7.6-3.2,11.3c4.2,5.9,6.6-3.9,11-1.7c0,1.1,0.1,2.5,0,3.9
	c-0.7,7.4-0.2,7.6,6.9,6.3c5.4-1,1.7-4.9,2.9-7.2C1208.2,1095.1,1208.5,1094.7,1208.8,1094.4z M1164,1136.3l0.1,0.2
	c-2.4-1.4-0.4-3-0.1-4.2c1.6-6.3-0.8-8.8-7.2-7.4c-4.3,1-1.5,5.3-4.1,7.7c-3.2-4.3-5.8-6.3-10.6-1c-4.8,5.4-0.7,7,3.1,10.3
	c-9.1,0.2-8.7,5.9-6.4,10.5c2.9,5.7,6.9-1.9,10.6-0.3c2.6,3.4-5.7,8.3,1.6,11c6.4,2.4,8.2-1.9,8.7-5.7c4.1-2.2,3.9,7.4,9.3,1.1
	c3.9-4.6,6.5-7.9-0.6-11.7c8.4-2.9,8.4-2.9,4.9-13.1C1170.2,1134.5,1167.1,1135.4,1164,1136.3z M340.5,1015.9c0.4,0.5,0.8,1,1.1,1.5
	c-1.9,5.3,0.9,7,5.6,7.7c8.9,1.3,1.9-7.7,6.8-9.3c3.5-1.4,4,9.6,9.6,3c4-4.7,3.7-8.6-2.9-11.2c3-2.6,9.7-1.4,6.2-8.5
	c-2.6-5.3-4.8-7.3-10.9-2.6c2.8-8-1.4-10.6-6.8-10.3c-7.3,0.3-1,7.4-4.1,10.1c-4.4,1.1-4.9-9.8-10.6-3.6c-3.7,3.9-4.9,8.7,2.6,11
	c-8,4.5-7.7,4.4-4.3,11.8C335.4,1021.2,337.9,1016.3,340.5,1015.9z M324.4,863.3c2.5-1.4,6.8,0.7,6.2-5.7c-0.6-6.5-2.7-8.4-9.8-6.4
	c4.9-5.7,3.9-9.5-1.8-11.6c-8.7-3.1-3,7.9-8.2,8.2c-4.1-0.8-1.5-10-8.1-7.3c-5.5,2.3-7.1,6.9-0.2,13.5c-8.3-2.1-10.6,0.4-8.7,6.2
	c1,3.2-3.2,2.2-3.4,4.3c3.4,4.6,7.9-1.4,12.1,1.4c-5.4,5.1-2.6,8.4,2.6,10.2c8,2.8,3.3-7.4,7.9-8.3c6.8,9.8,6.5,9.5,12.1,4.3
	c4.3-4-1.2-5.5-1.4-8.2C323.9,863.8,324.1,863.6,324.4,863.3z M503.8,477.8c0.6-0.2,1.2-0.4,1.8-0.6
	C505,477.4,504.4,477.5,503.8,477.8c0.1-2.8,1.8-4.9,3.1-7.1c3.5-5.9,6-12.3,7.4-19c0.4-2.1,1.9-5.9-2.9-5.2
	c-8,1.1-19.2-3.4-20.1,11c-0.1,0.8-0.9,2.2-1.5,2.3c-5.2,0.7-4.9,5.9-7.2,8.5c-12.3,13.4-37,12.1-44.9-6.4
	c-6.9-16.3,3.5-37.5,21.9-41.3c8.8-1.8,9.6-6.1,9.5-12.8c0-1.9,0-3.8,0.3-5.7c0.7-3.6-0.8-3.8-3.9-3.5c-20.3,2.3-35.6,12.5-45,30.2
	c-13,24.6-6,56.2,21.5,66.1c20.6,7.4,39.3,2.3,55.4-12.6C499.4,480.6,500.3,477.3,503.8,477.8z M969.5,759.9l-0.2-0.1
	c-0.8,5.4-5.8,5.7-9.4,7c-4.7,1.7-9.9,2.3-15.9,3.6c18.2,13.5,35.6,26.3,53.4,39.5c11.2-20.1,4.1-41.6,4.8-63.6
	c8.6,11.6,12.1,23.3,11.6,36.2c-0.4,10.6-3.1,20.6-7.8,29.9c-2,3.9,0.5,5.1,2.6,6.7c1.3,0.9,3,3.7,4.6,1c5.6-9.3,14.7-17,12.6-29.7
	c-1.5-9.3-2.8-18.7-6.4-27.5c-19-47.2-51.6-83.4-91.3-114.3c-11.6-9-22.1-9.3-34.5-3.2c-13.2,6.5-24.8,15.6-37.6,22.6
	c-5.8,3.2-6.2,8.1-2.7,11.3c6.3,6,3.4,12.1,3.3,19.6c-3.9-4.4-4.9-10.9-10.2-11.3c-9.5-0.7-19.2,0-29.4,3.3
	c11.5,6.8,22.7,12.6,32.9,19.7c5.3,3.7,10.8,2.6,16.2,3.7c10.1,2.2,6.9-7.8,10.4-11.7c0.2-0.2,0.4-0.2,1-0.5
	c1.2,1.9,2.5,3.8,3.4,5.8c1.4,2.9,3.4,4.3,6.7,3.8c3.3-0.5,2.8-3.3,3.4-5.4c1.8-6.2,2.8-12.7,6.1-19.1c1.5,3.3,2.9,5.7,3.8,8.4
	c0.9,2.7,2.4,3.6,5.2,3.5c3.2-0.1,3-2.2,3.5-4.2c0.8-3.2,1.8-6.3,2.7-9.5c0.4-1.5,0.4-3.8,2.7-3.3c1.9,0.4,1.8,2.5,1.8,4.2
	c0.1,19-5.4,35.4-21.6,46.8c-1.2,0.8-3.2,1.2-3,3c4.7,6.1,8.7,3.9,13.2,0c8.8-7.7,14.3-17.4,18-28.3c0.6-1.8,0.3-4.2,2.7-5
	c0.7,5.3,1.2,10.4,2,15.6c0.3,1.7-0.5,4.3,2,4.7c1.9,0.3,3.4-1.4,4.6-2.9c3.6-4.4,4.1-9.9,5.3-15.2c0.2-1,0.1-2.8,1.6-2.6
	c1.2,0.2,3.5,0.5,3.3,2.1c-1.2,7.8,3.2,16.4-3.9,23.5c-5.1,5.1-9.6,10.9-10,19c8.9,0.1,17.8-1.1,26.4,3.8c-4.2,1.5-8,2.5-11.4,4.3
	c-2.9,1.5-8.8,0.7-7.9,5c1.1,5.3,6.7,2.5,10.3,2.2C955.6,761.5,962.3,758.4,969.5,759.9z M933,608.8c3.4-1.4,5.9-2.5,8.5-3.6
	c26.5-11.3,53.3-22.1,81.2-29.5c19.5-5.2,39.1-9.6,59.5-6.7c20.8,3,30.8,18,25.7,38.2c-1.8,7.2-4.8,13.9-8.4,20.2
	c-1.8,3.2-1.9,5.6-0.2,9c4.4,9.1,3.3,18.1-2.8,26c-6.1,7.8-14.3,11.4-24.4,9.6c-2.9-0.5-5.3-0.7-7.6,2
	c-16.3,18.5-34.2,35.4-52.6,51.8c-3,2.7-2.9,4.5-0.8,7.6c6.6,10.1,12.3,20.7,17.5,31.6c8.4,17.8,12.2,35.5-2,52.6
	c-0.9,1.1-1.1,2.7-2,3.7c-5,5.4-2.6,8.7,2.4,12.8c29.8,24.6,58.4,50.5,82,81.3c8.5,11.1,16.1,22.8,19.9,36.5
	c5.4,19.8-3.6,34.5-23.5,38.4c-14.2,2.8-28.3,1.5-42.4-1c-42.9-7.6-83.2-23.3-123-40.3c-7.6-3.2-9.3-2.7-12.9,4.7
	c-0.8,1.7-1.2,3.6-1.8,5.3c-7.2,21.7-12.9,43.8-16.7,66.3c-1.4,8.4-4.5,16.5-1.6,25.7c13.1,41.4,23.2,83.4,28.6,126.5
	c0.3,2.7-0.7,6.8,2.8,8.2c3.3,1.3,4.8-2.7,7.6-3.8c43.6-17.5,82.9-42.2,117.4-74c51.7-47.5,89.2-104.3,110.8-171.4
	c16.4-50.9,22.2-100.6,18.3-154.1c-2.5-34.1-9-67.4-20.5-99.4c-35.7-99.5-100-174.7-193.7-223.6c-89-46.5-183.4-56.8-280.5-32.8
	c-83.1,20.6-152,65.1-207.9,130.1c-22,25.6-36.7,55.9-56.6,82.8c-0.3,0.4-0.4,1.5-0.1,1.9c1.8,2.8-0.2,5-1.2,7.3
	c-29.8,66.8-41,136.4-32.8,209.2c5.5,49.1,20,101.4,51.4,155.5c24.6,42.4,56.1,78.9,94.1,109.7c34.4,27.9,72.5,49.3,114.1,64.6
	c4.4,1.6,6.4,1.8,6.5-3.8c0.1-4.4,1.3-8.8,2-13.2c3.1-20.3,7.6-40.4,9-60.8c3.6-50.4,1.4-100.6-10.8-150c-1.5-6.1-3.1-5.9-7.6-3.8
	c-23.3,11.1-47.1,20.9-71.6,28.8c-26.1,8.4-52.3,16.6-80.5,13.9c-22.1-2.1-33.1-17.8-27.3-39.2c4.4-16.4,13.7-30,23.9-43.2
	c27-35.1,59.5-64.8,93.2-93.2c3.5-2.9,5.6-5.4,4.2-10.6c-5-19.6-9.6-39.3-14-59c-1.1-5-3.4-10.5-0.6-15.2c3-4.9,0.7-6.9-2.6-9.7
	c-25.8-22-50.7-44.9-71.7-71.7c-9.7-12.3-18.6-25.1-22.6-40.6c-4.7-18.4,3-32,21.2-36.9c4.8-1.3,9.7-2.2,14.7-1.9
	c3.4,0.2,5.7-0.9,7.6-3.9c6-9.3,14.9-13.1,25.6-11.4c10.8,1.7,17.7,8.6,20.6,19c0.8,3,2.3,4.3,5.1,5c25.9,6.7,50.9,16.2,75.7,26
	c10.6,4.2,10.4,4,16.3-5.1c7.4-11.4,15-22.1,31.3-21.6c8.6,0.3,17.3-2.3,25.9-3.3c2.5-0.3,4.2-0.7,5.3-3.5
	c10.8-27,53-38.4,78.3-21.2c2.9,2,4.2,2.6,6.2-1.3c9.2-17.8,24.7-25.3,44.1-25.2c13.4,0.1,25.9,4.2,38.5,8.4c4.4,1.5,7.1,3.9,9,8.1
	C922.5,567,928.6,587.2,933,608.8z M711.7,974.1c19.1-9.8,38.3-19.4,59.9-21.9c14.2-1.6,28.4-3.8,42.4,3.1c8.8,4.3,18.7,6.4,28,9.5
	c1.6,0.5,3.5,1.4,4.7,0c1.6-1.9-0.4-3.6-1.3-5c-2.8-4.4-6.3-8.3-10.5-11.5c-8.6-6.7-17.5-13-25.7-20.1c-6.3-5.5-14.2-10.2-17.5-17.9
	c-15.3-36.1-17.9-73.5-10.2-111.8c0.4-2,3.5-5.4-0.3-6.6c-2.8-0.8-5.3,1.5-7,4.6c-7.6,13.9-14.2,28.2-18.4,43.6
	c-3.9,14.6-5.2,29.6-7.7,44.5c-2.1-18.5-4.7-36.9,3.4-54.9c4.5-10.1,7.8-20.7,10.1-31.6c1.4-6.4-1.2-8.5-7.5-6.9
	c-2.3,0.6-2.7,2.5-3.7,3.9c-4.7,7.4-9.2,14.9-13.7,22.3c-1.2,2-2.1,5-5,3.6c-2.3-1.1-0.2-3.4,0-5c0.9-5.6,2.3-11.1,2.9-16.7
	c0.3-3.1,3.8-7,0.6-9c-3-1.9-7.4-0.1-10.9,1.1c-1.8,0.6-3.1,2.8-4.4,4.4c-2.3,2.8-4.5,5.6-7.6,9.7c-0.2-4.3-0.5-6.6-0.4-8.9
	c0.4-6.7-3.5-6.8-8.2-5.2c-5.2,1.8-8.5,5.9-11.1,10.4c-2.6,4.5-5,9.2-7.8,14.5c-1.4-3.7-2.2-6.3-3.4-8.9c-0.6-1.4,0.2-3.8-2-4
	c-1.7-0.1-2.8,1.5-3.9,2.7c-1.4,1.6-1.2,5.7-4.3,4.5c-3.8-1.5,0.4-4.4,0-6.6c-0.1-0.7,0.2-1.4,0.3-2.1c0.6-3.4,2.4-7.2-1.6-9.5
	c-4-2.4-8-3-12.3,0.4c-14.7,11.9-29.5,23.7-44.5,35.2c-3.5,2.7-3.9,5.6-2.8,9.3c2.9,10.2,5.2,20.6,8.8,30.5
	c13.6,36.9,36.4,63.2,78.8,66.2c5.4,0.4,9.7-0.6,13.6-4c7.5-6.5,15-13,22.7-19.3c2.4-1.9,4.7-4.5,8.8-4.2
	c-3.9,9.3-9.4,17.3-11.4,26.9c-2.6,12.4-0.4,14.6,11.9,11.3c4.5-1.2,8.8-4,15.2-2.3c-23.6,14.2-47.7,22-74,22.1
	c-5.7,0-7.1,1.5-6.5,7.1c2.4,23.8,4.7,47.6,6.4,71.4c1.5,21,4.5,42.3,1.8,63.1c-3.6,27.6-7.1,55.3-11.2,82.8c-0.6,4,0.7,4.9,3.4,5.6
	c26.3,7,52.6,13.7,79.9,15.8c20.6,1.6,41.2,1.1,61.7,1.7c6.4,0.2,6.3-2.6,5.5-7c-1.9-11.6-4.7-23.1-7.6-34.5
	c-3-11.4-8.6-22.3-8.7-34.1c-0.2-27.5,0.5-54.9,0.6-82.4c0-4,1.3-5.9,5.1-7c6.1-1.7,12.2-3.7,18.3-5.6c1.4-0.4,2.6-0.7,2.7-2.6
	c0-2.1-1.6-2.1-2.9-2.4c-3.9-1-7.8-1.9-13.1-3.2c10.2-3.4,12.6-11.5,16.1-18.6c1.4-2.8-3.2-2.4-4.6-4.5c8-1.5,15.9-2.8,23.7-4.6
	c17.3-3.9,34.5-8.1,49.1-19c8.2-6.1,13.8-14,14-25.1c-5.3,1.1-9.2,3.8-13.1,6.4c-16.7,11-35.6,12.5-54.2,8.5
	c-17.8-3.9-34.9-11.2-52.4-16.9c-4.5-1.5-9-2.8-13.9-1.7c-12.7,2.7-25.3,5.8-37.8,9.1C735.3,969.9,723.9,973.9,711.7,974.1z
	 M986.5,819.7c-14-7.3-23.6-19.2-38.6-24.9c-14.3-5.4-26.6-16-39.8-24.2c-2.8-1.7-6.9-4.7-8.8-3.7c-6.1,3-12.7,1.4-18.9,3.5
	c0.9,3.9,5.6,5.1,6.2,9.1c-6,0.7-11.9,1.3-17.5,3.2c-7.7,2.6-10.5,7.5-8.5,15.3c1.3,5,3.4,9.7,5,14.6c0.5,1.6,2.3,3.3-0.8,4.5
	c-2.2,0.8-3.3,0.5-4.7-1.3c-3.7-4.9-7.6-9.8-8.5-16.1c-0.4-3-1.2-4.1-4.4-3.7c-3.3,0.5-3.4,2.2-3.3,4.9c0.3,8,4.9,14.1,8.7,20.7
	c-4.2-0.4-4.3-0.4-5.5-2.1c-6.4-9.1-12.4-18.4-11.4-30.4c0.4-4.4-0.9-9-5.9-10.1c-5.3-1.1-11.2-3.7-16,1.2
	c-16.3,16.8-26.4,36.6-27.9,60.4c-1.3,20.6,2.9,40.4,7.9,60.1c1.5,5.8,4.3,10,8.9,13.7c22,17.9,46.3,31.7,71.8,43.7
	c4.5,2.1,7.7,2.2,10.8-2.2c-5.2-5.3-11.7-8.4-18.5-9.7c-19.5-3.7-33.2-16.6-47.6-28.7c13.9,2.9,25.7,11.8,40.7,13.6
	c-6.4-12.4-18.8-17.9-27.7-28.1c5.5-0.7,9.4,1,13.3,3.2c6.1,3.5,11.8,8,18.8,9.7c1.6,0.4,4,2.8,5.5-0.1c1.4-2.7-1.3-3.8-2.7-5
	c-6-5.1-12-10.2-19.7-16.6c10.8,1.9,19.4,3.3,27.9,4.9c3.3,0.6,5.5-0.3,4.5-3.7c-1.6-5.3-4.9-10.5,1.4-15.1c0.3-0.2-0.8-2.1-0.9-3.2
	c-0.1-1.8-2.5-3-1.2-5.7c9.2,2.3,18.7,3.5,28.3,2.1c3.6-0.5,5.8-1.4,5.2-5.6c-0.6-4.4,1-6.7,5.9-5.9c1.8,0.3,3.8,0,5.7,0
	c4.4,0.2,6.6-3.4,7.8-6.2c1-2.4-3-3.7-5.2-4.8c-7.9-4.2-15.9-8.1-25.2-12.8c3.5-0.2,5.4-0.4,7.3-0.4c9.9,0,19.8,2,29.8,0.5
	c1.3-0.2,3.1,0.5,3.5-1.4c0.5-2.2-1.1-2.6-2.9-3.2c-4.9-1.6-9.8-3.5-14.6-5.3c-1.7-0.6-4.2-0.8-3.5-3.4c0.6-2.1,2.8-1.2,4.2-1.2
	c17.5-0.5,35-1,52.5-1.5C980.5,822.1,983.3,823,986.5,819.7z M1089,977c4.5,0.2,9-0.3,13.4-1.3c11.6-2.5,15.4-8.8,12.2-20.1
	c-2-7.1-5.4-13.6-9.5-19.7c-24.2-36.3-56.8-64.4-89.7-92.3c-2.3-2-3.5-1.7-4.8,0.7c-9.8,17.8-25.6,30.8-37.2,47.2
	c-9.3,13.1-19.3,25.5-31,36.5c-3.2,3-2.6,5,1.7,6.8c23.1,9.7,46.3,19.1,70.1,26.8C1038.7,969.3,1063.2,976.1,1089,977z M604.9,835.5
	c-0.7,0.3-1.5,0.5-2,0.9c-31.2,26.6-61.4,54.2-86.8,86.5c-9.7,12.3-18.8,25-23.1,40.3c-3.5,12.3,1.1,19.1,13.9,20.7
	c8.3,1.1,16.5,0.7,24.8-0.5c29.4-4.4,57.2-14.5,84.6-25.4c12.7-5,25-10.7,39.3-16.8c-4.3-3.7-7.4-6.2-10.3-9
	c-12.5-11.8-20.6-26.2-25.3-42.5C614.7,871.8,609.9,853.7,604.9,835.5z M1067,582.8c-4.9,0.5-9.9,0.8-14.8,1.7
	c-39.2,6.7-75.6,21.7-111.8,37.6c-1.6,0.7-4.2,1-4,3.4c0.7,6.2-0.5,13.1,4.2,18.1c20.6,21.8,40,44.7,57,69.5
	c2.1,3.1,3.3,2.8,5.8,0.5c16.9-15.1,33.2-31,48.6-47.6c2.4-2.6,3.1-4.6,1.3-8c-2.9-5.5-3.9-11.5-1.9-17.8
	c4-12.5,14.2-19.8,27.6-18.2c5.4,0.6,7.8-1,9.5-5.5c1.6-4.4,3.7-8.7,5-13.2c2.9-10.8-1.5-17.5-12.5-19.4
	C1076.5,583,1071.8,582.3,1067,582.8z M595,719.4c9.3-18,17.9-35.8,27.5-53c8.2-14.6,18.2-25.7,36.2-26.5c0.7,0,1.3-0.5,2-0.6
	c4-0.5,3.4-4.2,4.2-6.6c0.8-2.5-2.3-2.6-3.7-3.3c-26.4-10.9-53-21-80.6-28.6c-3.1-0.8-4.8-0.4-7.1,2.3
	c-13.4,15.8-35.5,12.6-43.6-6.4c-1.7-3.9-3.6-4.9-7.3-4.4c-2.8,0.4-5.6,0.7-8.4,1.3c-10.4,2.4-14.1,8.5-11.4,18.8
	c2,7.6,5.7,14.5,9.9,21.1c11,17.2,24.7,32.3,39.1,46.6C565.4,693.9,579.5,707.2,595,719.4z M917.2,615.9c7.2-1.6,10.5-4.8,8.4-12.1
	c-1.7-5.6-1.9-11.7-3.6-17.3c-4.7-15.7-12.4-29.3-24.9-40.4c-8.2-7.3-17.9-4.8-26.9-5.8c-8.4-0.9-17.1-0.4-25,3.5
	c-4.9,2.4-9.8,5-10.7,11.2c-4.2,27.6-7.1,55.3-5.7,83.4c0.6,10.7,11.7,15.6,22,12.4c10.4-3.2,12.3-16.6,23.8-17.3
	c0.5,0,1-1.5,1.4-2.3c2.7-5.1,4.6-10.3,2.9-16.3c-0.9-3.2-0.3-5.6,2.8-7.8c7.7-5.3,9.2-13,6.3-21.3c-3.1-9-9.5-17-8.7-27.3
	c0.1-1.1-1.8-2.8-0.5-3.7c1.2-0.8,4.3-1,4.6-0.5c2.6,5,9.7,5.5,10.8,12.3c3.1,18.6,6.9,37.1,7.5,58.1c13.2-9,4.2-22.9,10-32.4
	C915.5,599.7,916.3,607.7,917.2,615.9z M317.9,758.4c11.9-6.6,21.9-12.5,32.1-17.8c5-2.6,5.4-4.8,1.6-9c-7.9-8.7-15.4-17.7-24.2-28
	c8.7,2,15.7,2.1,22.3,5c6.9,3,11.8,0.4,13.1-7c0.6-3.2,1.1-6.5,2.1-9.7c1.5-5-0.5-6.8-5.2-7.5c-12.1-1.9-24.2-4.2-36.3-6.4
	c-16.5-3-32.9-6-49.3-8.9c-1.3-0.2-2.9-0.7-3.7,0.9c-0.7,1.4-0.3,2.7,0.7,3.9c1.1,1.2,2.2,2.5,3.3,3.7c15.1,17.6,30.2,35.1,45.6,53
	c-21.5,12-42.7,23.7-63.8,35.5c-1.6,0.9-4.5,1-3.7,4.2c0.7,2.7,2.9,1.9,4.6,2.2c24.6,4.4,49.2,8.6,73.7,13.1
	c16.2,2.9,16.2,3,19.4-12.9c0.2-0.9,0.6-1.8,0.8-2.7c0.8-3.6,0.1-5.6-4.3-6.2C337.7,762.5,328.7,760.5,317.9,758.4z M768.8,577.2
	c12.5-10.3,27.7-10.6,39.3-1.1c3.3,2.7,5.9,6.1,8.8,9.2c1,1.1,1.9,2.4,3.5,1.9c1.9-0.5,1.3-2.2,1.4-3.5c0.7-13.1-9-25.1-22-27.1
	c-18.3-2.7-34.3,3.3-49.3,13.3c-3.2,2.1-4,4.5-4.1,8.1c-0.6,25.7,4.1,50.8,8.9,75.8c0.5,2.8,2.2,4.3,4.7,5.7
	c11.1,5.7,22.3,11.5,33.1,17.7c4.6,2.7,6.5,1.1,8.8-2.8c6.1-10.6,5-21.9,3.6-33.1c-1.1-9.1-2.2-18-1.2-27.4
	c1.1-9.8,6.5-20.1-2.2-30.1c-2-2.3-3.3-4-6.1-4.2C787,578.7,778.2,578,768.8,577.2z M699.3,743.9c-0.7-3.6-7.5-1.9-4.9-7.5
	c4.5-9.8,4-19-2.7-27.8c-1.7-2.2-2.6-5-3.6-7.6c-5.6-15.2-11.1-30.5-16.8-45.7c-3.6-9.6-15.6-13.1-23.7-6.6
	c-14.6,11.7-25.7,26.2-32.4,43.9c-1.5,3.9-1.8,7.9-0.7,11.8c0.8,2.7,2.4,5.3,6.1,4.7c3-0.5,5.2-1.5,5.2-5.4c0-2.9,1-5.9,1.6-9.1
	c2,1.3,2,3.3,2.5,5c2.8,9.5,5.3,19.1,8.6,28.4c5.2,14.6,13.9,26.7,27.9,34.4c2.1,1.1,3.9,2.4,6.5,0.5
	C681.7,756.4,690.8,750.1,699.3,743.9z M810.4,321.5c0.2-11.1-3.2-20.8-10.5-29.2c-17.3-19.8-47.4-25.1-70.5-12.5
	c-31.8,17.5-36.9,56.3-10,78.3c12.2,10,26.4,13.7,42.2,12.3C788.7,368,810.4,346.4,810.4,321.5z M848.4,338.9
	c5.5,10.1,10.5,18.4,14.5,27.1c2.8,6.1,6.4,9.2,13.4,9c4.4-0.1,8.9,1.2,13.3,1.9c1.6,0.3,3.1,1,4.6-0.6c1.9-2,0.2-3.5-0.6-5
	c-4.1-7.9-8.2-15.9-12.7-23.7c-2.3-4-3.5-6.5,2.6-7.5c2.9-0.5,5.4-2.6,7.7-4.7c9.4-8.5,12.9-19.2,10.3-31.3
	c-3-14.1-13-22.5-26.4-25.8c-12.1-3-24.6-3.9-36.9-6c-4.9-0.8-6.1,1.6-6.6,5.7c-3.7,27.6-7.4,55.1-11.3,82.6c-0.7,4.9,0,7.4,5.6,7.4
	c4.2,0,8.4,0.9,12.6,1.8c4,0.9,5.5-0.4,6-4.5C845.4,357.4,846.9,349.3,848.4,338.9z M396.9,546.8c8.4,0,14.7,0,21,0
	c21.6,0.2,21.6,0.2,33.5-17.7c0.9-1.3,2.7-2.5,1.9-4.3c-0.9-1.9-2.9-1-4.4-1c-9.7,0-19.4,0-29.1,0.2c-3.5,0.1-5-0.3-4.2-4.6
	c3.8-20.6-16-39.2-36.6-34.8c-10.7,2.3-18.9,8.3-25.2,17c-5.7,7.8-11.1,15.9-17,23.5c-3.1,4-2.4,6.1,1.6,8.9
	c19.3,13.6,38.4,27.5,57.7,41.1c4.8,3.4,9.4,9.9,14.4,9.2c5.1-0.7,6.9-8.9,10.9-13.1c3.1-3.3,2.3-5.3-1.3-7.7
	C412.7,558.5,405.7,553.2,396.9,546.8z M1233.2,580.8c-0.5-0.3-1-0.6-1.5-0.9c5-6.4,2.6-13.8,3.7-20.8c2.6-16.3,5.6-32.5,8.5-48.8
	c0.4-2.2,2.7-4.8,0.1-6.4c-2.2-1.3-4.3,1.2-6.3,2.4c-20.6,12-41.1,24.2-61.7,36.2c-15.7,9.2-15.6,9.1-6.2,24.5c2.3,3.8,4,4,7.6,1.8
	c12.3-7.5,24.8-14.6,37.9-22.3c-4.6,26.5-9.1,52.2-13.6,78.2c3.5,0.2,5.2-1.4,7.2-2.6c21-12.3,42-24.5,63-36.8
	c14.2-8.3,13.9-8.2,5.9-22.7c-2.6-4.7-4.8-5.2-9.2-2.4C1257,567.3,1245,573.9,1233.2,580.8z M554.4,395.2c2.4-0.6,2.7,1.2,3.3,2.2
	c2.9,4.6,5.6,9.3,8.5,13.9c9.4,15.1,9.3,15,24.1,5.8c3.9-2.4,4.1-4.4,1.7-8.3c-14-22.4-27.6-45-41.4-67.5c-5-8.1-5-8-13.2-3.7
	c-1.2,0.6-2.5,1.3-3.8,1.5c-5.9,0.8-8.1,5.4-4.9,10.6c4.5,7.5,8.9,15,13.7,22.3c2.4,3.6,2.2,5.3-2,7.3c-5.1,2.4-9.7,5.7-14.4,8.9
	c-3.7,2.5-6.2,3.3-8.6-1.8c-2.6-5.5-6.2-10.5-9.4-15.8c-6.7-10.9-6.7-10.9-17.6-4.4c-1.6,1-4.4,3.7-5.3,1.6c-2.5-6-3.3-1-4.7,0.4
	c-2.5,2.4-2.3,4.8,0.7,6.2c2.9,1.3,4.1,3.7,5.6,6.1c11.7,19.1,23.4,38.2,35.1,57.3c9.4,15.6,9.3,15.4,24.7,5.8
	c4-2.5,3.6-4.4,1.4-7.8c-4.9-7.5-9.4-15.2-14-22.9c-0.7-1.2-3.2-2.8-1.3-4.1C539.8,404.1,547.3,399.7,554.4,395.2z M1236.1,728.4
	c2.1,16.2,4.1,30.5,5.9,44.8c2.1,17.2,2,17.1,18.8,15c3.9-0.5,5.2-1.9,4.6-6c-1.4-9.6-1.7-19.3-3.7-28.8c-1.4-7,1.4-7.4,7-8.3
	c6.2-0.9,8.2,0.5,7.7,6.6c-0.2,2.3,0.7,4.6,1.1,7c3.2,19.8-2.3,16.7,18.9,14.3c3.7-0.4,4.9-1.8,4.3-5.4c-1.1-7.2-1.9-14.5-2.9-21.8
	c-0.4-2.7-0.4-4.7,3.2-4.6c2.3,0,4.7-0.6,7-1.1c3.3-0.8,4.6,0.5,5,3.9c0.8,8,2.1,15.9,3,23.9c1.9,16.5-0.4,12,14.3,11.5
	c0.7,0,1.4-0.4,2.1-0.4c6.4,0.2,7.1-3.4,6.3-8.6c-2.5-17.5-4.8-35.1-6.9-52.6c-0.5-4.2-2.3-4.9-6.1-4.4
	c-27.8,3.7-55.6,7.4-83.5,10.8C1238,724.6,1235.2,725.3,1236.1,728.4z M1317.6,671.5c0.6-13.3-2.6-25.3-10.5-35.5
	c-12.3-16-28.2-25.1-49.1-21.2c-19.4,3.6-31,16.1-35.8,34.8c-5.9,23.2,0.8,42.8,18.1,58.9c8.1,7.6,8.3,7.3,13.8-2.3
	c0.8-1.4,2.2-2.5,3-3.9c2.1-3.8,3.8-7.5-1.3-10.7c-8.2-5.1-11.8-13.3-13.4-22.3c-2.3-13.3,6.5-27.3,18.6-30.4
	c18.4-4.6,38.6,13.2,34.2,32.8c-2.7,12.1,2.9,15,10.6,18.9c0.8,0.4,1.7,0.9,2.5,1.4c3.6,2.5,5.3,1.1,6.6-2.8
	C1316.9,683.3,1318,677.4,1317.6,671.5z M985.2,407.2c10.1-1.2,19.5-3.8,25.4-13.1c7.8-12.2,4.9-25.4-8-37c-3.3-3-7.1-5.6-10.2-8.8
	c-2.9-2.9-4.9-6.7-2.3-10.8c2-3.2,5.4-3.5,8.9-2.7c4.6,1,7.1,4,7,8.5c-0.1,2.8,0.4,4.5,3,5.6c4.8,2,9.6,3.9,14.3,6
	c2.3,1.1,4.5,1,5.1-1.5c1-3.8,2.6-7.6,1.8-11.7c-3-15.5-13.3-26.2-28.7-29.4c-13.4-2.8-27.4,3.3-33.4,14.2
	c-5.7,10.3-3.4,22.7,6.5,32.9c4.4,4.6,9.4,8.6,14.2,12.8c2.7,2.4,2.9,5.4,1.4,8.4c-1.4,2.7-4.2,4-7.1,3.7c-5.1-0.7-9.1-3.2-8.9-9
	c0.1-2.8-0.3-4.4-2.9-5.5c-4.8-2-9.5-4.2-14.3-6.1c-3.6-1.4-5.4-0.5-6.3,3.8c-2.3,11.2,1.2,20.3,8.4,28.6c3.2,3.8,9.4,4.9,9.9,11.2
	c0,0.4,2.1,1.2,2.3,0.9C975.6,403.2,980.6,407.8,985.2,407.2z M1026.2,402.9c0.1,27.2,21.9,50.9,50,54.5
	c16.8,2.1,16.4,2.2,12.8-13.7c-1.4-6.1-3.7-7.9-10-8c-21.4-0.4-36.5-25.1-26.4-42.5c5.3-9.1,13.6-13,23.7-12.7
	c12,0.4,22.4,5.7,26.8,16.6c3.6,8.9,8.5,8.5,15.4,7.2c2.3-0.4,4.6-1,6.9-1.2c3-0.2,3.6-1.8,2.9-4.3c-2.2-8.5-6.4-17.3-12.2-22.6
	c-11.2-10.2-24.5-17.7-40.9-18.3C1048.6,357,1026.1,377.2,1026.2,402.9z M1183.6,464.1c5.9,6.8,11.7,13.6,17.7,20.3
	c10.7,12.1,10.6,12,21.7,0.1c2-2.2,1.7-3,0-4.9c-11.8-13.5-23.6-27-35.3-40.7c-2.7-3.1-4.6-3.8-7.9-0.8
	c-8.7,7.9-17.5,15.7-26.5,23.3c-5.7,4.7-12.7,8.8-17.3,13.7c-6.1,6.5-13,12-19.2,18.3c-2.6,2.6-2.7,4-0.3,6.7
	c9.8,10.9,19.3,22,28.9,33c10.1,11.6,10,11.5,21.1,0.9c2.5-2.4,2.6-3.8,0.3-6.3c-6.1-6.6-11.8-13.5-17.8-20.1
	c-7.1-7.8-7.2-7.7,1.3-14.4c0.9-0.7,1.8-1.7,2.9-2c2.1-0.5,4.7-0.9,5.7,1.4c3.4,7.2,11.2,10.3,14.9,17.2c0.9,1.8,2.2,2.3,3.9,0.8
	c4-3.6,9.5-6.6,11.6-11.1c1.6-3.5-4.5-6.4-6.8-9.8c-1.2-1.7-2.7-3.3-4.1-4.9c-8.3-8.9-8.3-8.9,0.6-16.6
	C1180.3,466.8,1181.7,465.6,1183.6,464.1z M309.6,594.7c-0.5-0.1-1.2-0.1-1.9-0.3c-3.1-0.5-7.2-0.5-8.6,1.5c-2.1,3,1.9,5.3,3.7,7.5
	c14.2,17.4,28.6,34.6,43,51.9c5.7,6.9,11.6,13.7,17.2,20.7c3.2,4.1,5,3.2,6.8-1.1c1.9-4.8,4-9.6,6.2-14.2c1.2-2.4,1.7-4.6-0.6-6.4
	c-8.7-6.6-6.8-14.1-2.3-22.1c1.7-3,3.3-6.3,4.2-9.7c1.9-6.8,6.4-9,12.9-8.6c2.7,0.1,5.9,0.9,7.4-2.5c2.5-5.6,5.1-11.1,7.4-16.8
	c1-2.6,0.6-4.5-3.1-4.3c-7.5,0.4-15.1,0.4-22.7,0.8C356.1,592.3,332.9,593.5,309.6,594.7z M649.4,330.9c-5.3,0.2-3.4-5.6-4.9-8.6
	c-1-2-2.7-5.2,2.2-6.3c7.1-1.6,14-4.1,21-6.1c15.3-4.5,15.1-4.5,10.6-19.6c-1.3-4.3-2.6-5.6-7.4-4.1c-15.9,5-31.9,9.7-48.1,13.8
	c-4.7,1.2-8.4,5.1-14.1,4.1c-1.7-0.3-6.8,3.1-5,6.6c1,2.1,3.5,8,7.7,4.6c6.1-4.9,6,0.7,6.9,3.6c6.5,22,12.8,44.1,19.2,66.1
	c2.9,9.9,3,10.3,12.9,7.4c13.3-3.8,14.7-0.9,9.6-16.2c-0.9-2.7-1.4-5.5-2.2-8.2c-4.4-15.1-4.4-15.1,10.2-19.5
	c15.6-4.7,15.4-4.6,10.5-20.3c-1.4-4.4-3-4.9-7.1-3.6C664.5,326.9,657.4,328.6,649.4,330.9z M675.4,635.5c-0.9,6,0.5,10.6,1.7,15.1
	c7.7,28.6,22.1,54.4,33.6,81.4c1.6,3.8,3.3,1.9,5.3,0.5c9.4-6.3,18.6-13,28.4-18.6c7-4,7.1-9.4,5.4-15.5c-2.5-9.3-5.5-18.5-8.5-27.6
	c-0.8-2.4-1.3-4.9-4.1-6.2C717.1,654.5,696.8,644.6,675.4,635.5z M605.7,814.4c16.3-12.8,31.5-24.8,46.7-36.7
	c-0.2-0.5-0.3-0.9-0.5-1.4c-5.9,0-11.8,0-17.7,0c3.2-3.2,6.6-5.1,10.2-6.5c3.4-1.3,3.8-3.1,2.6-6.4c-2.9-8-8.4-12.8-16.5-15
	c-8.4-2.2-17-2.3-25.7-3.1c3.7-10,13.7-11.5,20.5-16.8c1.4-1.1,4.1-0.5,4.1-3.5c0.1-2.8-0.5-4.7-3.5-6.1c-15-7.1-15.1-7.3-22.5,7.4
	c-3.3,6.6-7.7,12.6-6.4,21.1C600.3,769.2,602.7,791.2,605.7,814.4z M601.1,1282.7c2.3,7.8,5.3,14.9,7,22.3c0.5,2.2,1,2.9,3.3,3.4
	c3.6,0.9,7.1,2.6,10.5,4.1c3.2,1.5,4.4,1.8,5.2-2.8c1.3-7.1-5-11.2-5.3-17.5c-0.1-2.7-0.8-4.2,2.7-4.8c10.6-1.7,16.7-8.5,18.1-18.9
	c1.5-10.9-4-18.8-13.3-23.6c-7.7-4-16-6.7-24.1-10.1c-2.5-1.1-3.3-0.5-4.3,2.3c-6,16-12.4,31.9-18.7,47.8
	c-4.1,10.5-4.1,10.4,6.1,14.5c3.9,1.6,6.2,1.5,7.5-3.2C597,1291.7,599.3,1287.2,601.1,1282.7z M990.4,1253.2c-0.4,8.2,3,16.5,9,23.3
	c7.5,8.5,17,13.3,28.9,10.9c10.8-2.2,17.1-9.4,19.9-19.7c3.9-14.2-3.3-31.5-16.2-39.1c-9.1-5.4-18.7-6.7-28.1-1.5
	C994.5,1232.5,990.5,1241.2,990.4,1253.2z M854.7,1323.1c6.3-8,12.5-14.4,13.7-23.5c1.5-11.8-7-22.6-19.1-25.2
	c-14.7-3.1-29.3,4.9-32.7,18c-0.7,2.9-2.6,6.7,1.2,8.6c3.7,1.9,14.3-1.7,15.1-4.7c1.2-4.6,4.4-6.6,8.7-7.1c3.9-0.4,6.9,1.3,9,4.6
	c2.3,3.6,0.5,6.7-1.5,9.8c-6.5,10.1-15.1,18.1-24.1,25.8c-2.6,2.3-4.4,4.6-5,8.2c-0.7,3.8-0.4,5,4,4.4c13.8-1.6,27.7-2.8,41.6-4
	c4.3-0.4,6.9-0.8,6.1-6.5c-1.3-9.3-0.8-9.4-10.1-8.8C859.7,1322.8,857.9,1322.9,854.7,1323.1z M790.8,1326.9c5.4-4.9,9.7-8.5,13-13
	c6.2-8.5,6.8-18.4,1.7-26.3c-5.8-8.9-17.9-13.8-28.5-11.5c-10.7,2.3-19.1,10-20.6,19c-0.3,1.5-0.9,3.3,0.8,4.6
	c3.8,2.8,14.4,0.5,16.8-3.6c2.9-5.1,9.1-6.5,14.1-3.2c4.7,3.1,5.2,7.6,1.3,12.7c-1.6,2.1-3.4,3.9-5.2,5.8
	c-7.2,7.2-15.1,13.6-23.9,18.7c-3.7,2.1-5.4,6.1-4.9,9.4c0.4,3.2,4.8,1.6,7.3,1.7c11.5,0.6,23.1,0.8,34.7,1.1
	c9.9,0.3,9.7,0.2,10.6-9.4c0.4-4.3-0.6-6.3-5.1-6C799.3,1327.1,795.9,1326.9,790.8,1326.9z M566.7,1264.2c11.6,0,20.1-6,22.9-15.8
	c2.7-9.8-2.1-21.5-11.8-27.3c-6.4-3.9-13.3-7.1-19.7-11c-3.7-2.2-5.6-1.5-7.6,2.3c-8.2,15.5-16.5,31.1-25.3,46.3
	c-3,5.3-2.1,7.6,3.1,10.1c8.1,3.9,7.9,4.2,12.4-3.9c0.8-1.4,1.8-2.8,2.4-4.3c1.5-4,3.6-3.9,6.9-1.9
	C555.1,1261.9,560.6,1264.8,566.7,1264.2z M978.7,1293.4c2.4-6.3,4.8-11.2,6.2-16.3c4-14.8-3.4-26.4-18.3-29.3
	c-15-3-30.6,8.3-32.5,23.4c-0.4,3.4-0.1,6.9,2.2,9.4c1.8,1.9,14.2-4.9,14.6-7.7c1.1-7.3,6.1-11.3,12.5-9.8c5.8,1.3,7.4,5.8,4.8,13.7
	c-3.3,10.2-8.7,19.4-15.1,27.9c-3.6,4.7-5.2,9.2-2.9,15.1c5.2-1.1,11.1-1.9,15.2-4c8.4-4.4,17.3-7.4,26.1-10.3
	c6.5-2.2,7.5-4.8,5.1-11.1c-2.1-5.6-4.6-6.1-9.3-3.8C984.8,1291.5,982.3,1292.1,978.7,1293.4z M1104.5,489.8c1.6-1.5,3-2.6,4.2-4
	c16.6-18.4,33.2-36.8,49.8-55.1c9.5-10.5,9.5-10.5-0.8-20.3c-5.9-5.6-8.6-5.9-13.3,0.4c-14.8,19.9-32.8,36.9-48.9,55.7
	c-7.3,8.5-7.6,8.4,0.8,16.2C1098.9,485,1101.6,487.2,1104.5,489.8z M525,1186.6c-1.1-0.1-1.4-0.3-1.6-0.2
	c-21.3,9.4-40.9,22.1-62.4,31c-1.2,0.5-2.4,1.8-1.6,3.5c1.6,3.8,14.1,8.3,17.9,6.5c2.3-1.1,4.4-2.6,7.1-0.4
	c4.4,3.6,9.1,6.8,13.6,10.2c1.3,1,2.3,2,2.1,4c-0.8,9.5,2.1,13.3,12.7,16.9C516.9,1234.2,521,1210.4,525,1186.6z M897,960.7
	c15.5-5.1,25.1-12.7,32.2-23.8c6.2-9.8,12.4-19.5,19.3-28.8c17.4-23.6,35.1-47,52.7-70.3c2.1-2.8,2.2-4.3-0.8-6.7
	c-3.4-2.6-4.2-0.4-5.8,1.7c-6.4,8.5-12.7,17.1-19.4,25.3c-15.9,19.3-34.5,36.3-47.6,58C918.5,930.9,907.9,944.8,897,960.7z
	 M1107.6,1238.9c4.6-1.5,7.2-5.1,10.7-7.4c2.4-1.5,1.9-3.5,1.2-5.6c-6.3-18.9-12.6-37.7-18.7-56.6c-1.3-4-2.6-4.2-5.7-1.7
	c-7,5.6-14.2,11-21.2,16.5c-3.9,3-7.7,6-11.5,9.1c-1.4,1.1-4.9,1.7-2.2,4.5c4.2,4.4,6,10.9,12.4,13.2c1.6-4.8,13.8-3.1,7.8-12.7
	c-0.8-1.3,0.4-2.2,1.4-2.8c3.1-1.9,5.3-5.4,9.2-6.1C1096.5,1205.9,1102,1222.3,1107.6,1238.9z M843,723
	c-13.3-7.8-25.2-14.8-37.3-21.7c-2.7-1.5-5.3-5-8.9-2.7c-5.6,3.6-13.2,5.3-16.3,11.8c-4.8,10.2-1.7,24.7,6.5,32.1
	c10.1,9.1,22.6,10.9,36.8,10.8c-5.8-6.5-12.6-8.7-18.9-11.6c-5.9-2.8-10.3-6.7-11.6-13.3c-0.9-4.4-0.9-7.2,5.4-5.2
	C812.7,727.5,826.9,728.3,843,723z M712.7,1324.1c1.4-3.6-1-4.1-3.5-4.7c-6-1.3-11.9-3.2-18-3.7c-5.7-0.4-5.2-3.3-4.4-7.1
	c2.7-12.2,5-24.4,8.1-36.5c1.6-6.4-1-8.4-6.6-9.1c-4.8-0.6-9.1-2.7-10.5,5.3c-3,17.6-7,35.1-10.8,52.6c-0.8,3.7-0.4,5.5,3.9,6.3
	c9.7,1.7,19.3,4,29,6.1C710.7,1335.7,711.5,1335.1,712.7,1324.1z M1087.6,1253.2c-1.1-1.8-1.8-3-2.6-4.2
	c-7.9-12.4-15.7-24.8-23.7-37.2c-2.7-4.1-5.2-11.1-8.4-11.5c-4.4-0.6-7.3,6.2-10.8,9.8c-4.8,5.1-4.1,12.4,1.3,16.4
	c1.2,0.9,2.1,0.9,3.1-0.1c3.8-4.1,5.1-0.2,6.6,2.2c6.3,9.7,12.4,19.5,18.7,29.2c1.1,1.7,1.9,5,5.2,2.8
	C1080.7,1258.3,1084.7,1256.5,1087.6,1253.2z M639,1314.9c-1,1.8,0.1,2.9,2.3,3.6c2.5,0.8,4.9,1.5,7.3,2.4c4.1,1.6,6.2,0.7,7.5-4
	c5-17.8,10.3-35.5,15.7-53.2c0.9-3,0.9-4.9-2.7-5.7c-3-0.6-5.8-1.7-8.8-2.4c-2.4-0.6-4,0.2-4.8,2.8
	C650.1,1277.1,644.6,1295.7,639,1314.9z M726.6,593.7c-13.3,1.4-28.4,2.2-41,12.2c-4.2,3.3-8.7,7.8-8.3,12.5
	c0.4,4.5,7.5,4.2,11.4,6.7c2.2,1.4,3.3,0.6,4.3-1.5c4.1-8.2,11.8-11,19.9-13.1c7.1-1.8,14.4-2,21.7-2.5c1.9-0.1,4.3,0.9,4.5-2.7
	C739.7,598.2,735.5,593.4,726.6,593.7z M378.7,1066.1c-9.4-4.9-9.5-4.9-10.4-3.4c-2.9,5.2-4.9,10.2,3.1,12.1
	c-0.8,3.5-8.1,1.6-4.7,7.8c3.2,5.6,6.2,9.2,12,3c1.7,3-2.4,7.5,4.6,8.5c11.3,1.6,4.1-7.5,6.3-9.9c4.6-1.5,6.6,7.9,11.1,1.6
	c3.6-5,2.7-9.4-5.7-11.6c6.8-1.7,8.4-3.9,5.7-9.4c-3.4-6.9-6.8-3.7-11.3-0.2c1.7-8-2-10.5-7.8-9.3
	C373.4,1056.9,382.1,1062.8,378.7,1066.1z M1282.5,859.7c-3.8-2-0.4-10-6.6-9c-5.6,0.9-9.1,5-4.9,10.8c-2.5,2.3-7.5-3.4-7.6,3.4
	c-0.1,4.7-4.2,11.5,7.5,10c-6.7,5.7-4.4,9.6,0.5,11.9c6.6,3.1,5-5.8,8.8-6.9c3.9,1.9,0.1,10.3,6.9,9c5.3-1.1,8.6-4.9,3.6-11.8
	c9,3.4,8.2-2.3,9.3-7.1c1.8-7.4-4.9-3.7-8.2-6c8.8-5.2,3-9.5-0.9-11.3C1285.3,849.9,1286.2,857.8,1282.5,859.7z M333,925.2
	c4.3-6.9,0.4-9.5-4.6-10.4c-8.2-1.4-1.9,7.7-6.7,9.2c-3.7-0.5-3.1-9.2-8.6-6c-5.1,3-6.1,8.2-0.8,12.9c-2.8,1.5-7.7-0.6-6.6,4.9
	c1.1,5.5,2,11.2,11.4,6.6c-7.2,11.3,2.9,9,6.6,12.6c1-4,1.8-7.3,2.6-10.2c5.2-1.8,3.6,11.1,11.1,4.3c4.5-4.2,4.6-7.7-1.6-11.6
	c7.8-0.3,8.3-3.6,6.9-9.5C341.1,921.6,337.4,925,333,925.2z M442.3,1133.6c8.8-4.4,4.2-8,0.9-12.2c-4.7-5.9-6.2,0.2-9.3,2.9
	c0.2-5.4-0.6-8.2-6.6-7.6c-10.7,1-1,8.1-3.5,10.8c-4.1,2.4-7.8-6.3-11.1-0.2c-2.9,5.5-0.9,9.7,5.8,10.2c-0.3,3.6-8.4,2.9-3.8,8.7
	c3.7,4.7,7,8.3,12.9,0.1c-0.6,7,1.3,9.2,6.9,8.5c10.5-1.5-0.2-8.2,3.2-10.9c3.7-3.5,7.4,7.8,10.9-0.4
	C451.1,1138,449.3,1134.5,442.3,1133.6z M1257,947.3c-7.6,3.7-7.4,7-3.5,11.3c6.9,7.5,6.2-6,11.7-3.2c3.5,0.9-2.7,9.2,4.9,8.2
	c6.5-0.8,7.6-4.8,4.5-10.5c8.5,2,8,1.8,10.4-5.1c2.3-6.4-2.2-6.1-6.1-6.7c5.7-7.1,5.6-7.8-2.4-14c-2.8,2.2-4.1,6.1-8,7.5
	c-1.1-3.9-0.6-7.6-2.7-10.7c-6.2,1.2-11.3,3.2-7.7,11.1c-3.4,0.1-7.1-4.5-8.6,1.8C1248.3,942.1,1245.5,947.5,1257,947.3z
	 M1243.6,1007.8c0-1.6,0.1-3.3,0-4.9c-0.2-2,1.2-5.1-0.9-5.7c-2.2-0.6-5,0.7-7.5,1.2c-1.1,0.2-1.3,1-1.5,2c-0.6,3-1.1,6.4-5.6,3.7
	c-1.6-0.9-1.9,0.8-2.5,1.6c-4.2,6-3.7,8.9,3.5,13.4c-9.7,1.2-5.6,8.7-3.8,10.5c5.3,5.3,7.6-4.2,12.8-4.3c0,3.9,0,7.6,0,11.4
	c7-0.1,12.4-1.3,8.7-9.6c3.5-1.7,6.3,6.2,9.5-0.1c2.3-4.6,6.1-9.7-4.9-11.9c9.7-2.9,7.2-7.8,3.7-11.1
	C1249.7,999.1,1248.8,1008.5,1243.6,1007.8z M892.7,1315.5c-4.8,0.5-8.7,2.3-10.2,7.3c-1.2,3.9-0.7,7.8,3.1,9.8
	c3.4,1.7,4.5,2.9,1.5,6c-1.4,1.5,0,2.5,1.6,2.8c4.7,1,8.8-1.1,11.3-4.3c3.5-4.5,5.2-10,2.5-15.7
	C900.5,1317.2,896.9,1315.8,892.7,1315.5z M729.2,643.8c-2.1-4.7-5-7.2-7.9-9.5c-2.9-2.3-5.8-4.2-1-7.6c1.2-0.8,2.5-2.6,1.5-4.3
	c-1-1.7-2.9-1.1-4.5-1c-7,0.3-12.9,3.5-19.8,7.4C708.2,634,718.2,638.7,729.2,643.8z M760.2,676.6c1.8,8.5,3.4,15.9,5,23.9
	c6.5-4.1,12-7.6,18.3-11.5c-6-3.2-11.1-6-16.2-8.7C765.3,679.2,763.2,678.1,760.2,676.6z M883.7,749.5c-7-6.7-7.2-6.6-19.9,2.5
	C871.4,750.9,877.6,751.8,883.7,749.5z M969.3,759.7c0.2-0.1,0.4-0.1,0.6-0.2c-0.1-0.2-0.1-0.5-0.2-0.5c-0.6,0-0.7,0.3-0.3,0.7
	C969.5,759.9,969.3,759.7,969.3,759.7z M784.1,330.1c4-9,1.8-17.6-4.8-24.9c-11.6-12.7-31.6-13.2-44.4-1.1
	c-9.6,9.1-10.6,23.7-2.5,33.2c6.3,7.3,14.2,10.6,25.8,10.6C768.9,347.6,778.8,342,784.1,330.1z M876.8,311.8
	c1-6.1-2.3-10.4-9.7-12.6c-11.9-3.5-12.9-2.9-14.6,8.7c-1.8,12.4-1.8,12.4,11.2,12.9C871.1,321.1,875.8,317.9,876.8,311.8z
	 M364.8,522.7c-0.1,0.9,15.8,13.4,17.3,13.6c2.2,0.4,11.2-12.8,11.5-16.7c0.4-5.9-5.3-12.4-11-12.6
	C377.4,506.8,365.2,517.5,364.8,522.7z M353.4,627.6c1.8-4.1,4-7.3,4.4-11.2c-4.6,0-8.7,0-14,0C347.4,620.6,350.3,623.9,353.4,627.6
	z M613.8,1255c-4.8,1.5-6.1,8-6.2,11.9c0,4.5,6.5,4.8,10.2,5.3c3.9,0.4,7.8-2,7.8-7.2C625.6,1260.6,618.4,1253.5,613.8,1255z
	 M1017.4,1270.9c7.7,4.7,15.1,1.1,15.8-7.9c0.7-8.9-3-16.1-10.2-21.3c-3.6-2.6-7.7-4-11.9-1.3c-3.6,2.3-5,6.1-4.8,10.4
	C1006.4,1259.4,1010,1266.3,1017.4,1270.9z M574,1237.2c0.3-4.5-10-15.9-12.7-13.9c-4.3,3.3-5.6,10-7.9,15.4
	c-1,2.3,8.2,8.2,12.6,8.1C571.4,1246.9,573.7,1242.9,574,1237.2z M504.2,1213.7c-3.1,1.2-6,2.4-8.7,5.1c2.5,1.8,4.5,3.2,7.2,5
	C503.1,1220,504.8,1217.1,504.2,1213.7z M324.4,863.3c-0.3-0.2-0.7-0.7-0.7-0.7c-0.7,0.4-0.6,1,0,1.5
	C323.9,863.8,324.1,863.6,324.4,863.3z M341.7,1017.4c0.2-0.5,0.4-1,0.5-1.5c-0.6,0-1.1,0-1.7,0
	C340.9,1016.4,341.3,1016.9,341.7,1017.4z M1164.1,1136.5c-0.3-0.6-0.7-0.7-1.1-0.1c-0.1,0.2,0,0.4,0,0.7c0.3-0.2,0.6-0.5,0.9-0.7
	C1164,1136.3,1164.1,1136.5,1164.1,1136.5z M1208.8,1094.4c-0.5,0-1,0.1-1.6,0.1c0.2,0.3,0.4,0.6,0.6,0.9
	C1208.2,1095.1,1208.5,1094.7,1208.8,1094.4z"/>
<g>
</g>
<g>
</g>
<g>
</g>
<g>
</g>
<g>
</g>
<g>
</g>
</svg>
