<?xml version="1.0" encoding="UTF-8" standalone="no"?>
<!-- Generator: Adobe Illustrator 20.1.0, SVG Export Plug-In . SVG Version: 6.00 Build 0)  -->

<svg
   xmlns:dc="http://purl.org/dc/elements/1.1/"
   xmlns:cc="http://creativecommons.org/ns#"
   xmlns:rdf="http://www.w3.org/1999/02/22-rdf-syntax-ns#"
   xmlns:svg="http://www.w3.org/2000/svg"
   xmlns="http://www.w3.org/2000/svg"
   xmlns:sodipodi="http://sodipodi.sourceforge.net/DTD/sodipodi-0.dtd"
   xmlns:inkscape="http://www.inkscape.org/namespaces/inkscape"
   version="1.1"
   id="Layer_1"
   x="0px"
   y="0px"
   viewBox="0 0 1080 1620"
   xml:space="preserve"
   inkscape:version="0.91 r13725"
   sodipodi:docname="mozilla-head-stencil.svg"
   width="12in"
   height="18in"><metadata
   id="metadata317"><rdf:RDF><cc:Work
       rdf:about=""><dc:format>image/svg+xml</dc:format><dc:type
         rdf:resource="http://purl.org/dc/dcmitype/StillImage" /><dc:title></dc:title></cc:Work></rdf:RDF></metadata><defs
   id="defs315" /><sodipodi:namedview
   pagecolor="#ffffff"
   bordercolor="#666666"
   borderopacity="1"
   objecttolerance="10"
   gridtolerance="10"
   guidetolerance="10"
   inkscape:pageopacity="0"
   inkscape:pageshadow="2"
   inkscape:window-width="1280"
   inkscape:window-height="738"
   id="namedview313"
   showgrid="false"
   units="in"
   inkscape:zoom="0.18209877"
   inkscape:cx="432"
   inkscape:cy="642.50847"
   inkscape:window-x="-8"
   inkscape:window-y="-8"
   inkscape:window-maximized="1"
   inkscape:current-layer="Layer_1" />
<style
   type="text/css"
   id="style3">
	.st0{stroke:#000000;stroke-width:7.200000e-02;stroke-miterlimit:10;}
	.st1{fill:none;stroke:#ED2224;stroke-miterlimit:10;}
</style>
<g
   id="g5"
   transform="matrix(1.2498072,0,0,1.2498072,0.12490362,0.12497586)"
   style="fill:none;stroke:#ff0000;stroke-opacity:1;stroke-width:0.07201111;stroke-miterlimit:7;stroke-dasharray:none">
	<rect
   x="94.800003"
   y="97"
   class="st0"
   width="12.5"
   height="12.5"
   id="rect7"
   style="fill:none;stroke:#ff0000;stroke-opacity:1;stroke-width:0.07201111;stroke-miterlimit:7;stroke-dasharray:none" />
	<g
   id="g9"
   style="fill:none;stroke:#ff0000;stroke-opacity:1;stroke-width:0.07201111;stroke-miterlimit:7;stroke-dasharray:none">
		<path
   class="st0"
   d="m 327.4,358.9 -17.8,0 c 1,3.5 2.9,6.9 5.9,10 0.9,0.9 1.8,1.9 2.7,2.8 l 16.1,0 c -2.6,-4.2 -4.9,-8.4 -6.9,-12.8 z"
   id="path11"
   inkscape:connector-curvature="0"
   style="fill:none;stroke:#ff0000;stroke-opacity:1;stroke-width:0.07201111;stroke-miterlimit:7;stroke-dasharray:none" />
		<path
   class="st0"
   d="m 514.9,224.3 c 16.2,6.1 33.1,8.3 50.3,8.6 1.2,0 2.4,0.1 3.7,0.2 0.6,0 1.4,0.4 1.8,-0.3 0.3,-0.7 -0.4,-1.2 -0.8,-1.7 -2.5,-2.8 -5.1,-5.6 -7.6,-8.4 l -51.5,0 c 1.3,0.5 2.7,1.1 4.1,1.6 z"
   id="path13"
   inkscape:connector-curvature="0"
   style="fill:none;stroke:#ff0000;stroke-opacity:1;stroke-width:0.07201111;stroke-miterlimit:7;stroke-dasharray:none" />
		<path
   class="st0"
   d="m 341.2,326.1 c -2,-2.9 -3.8,-5.9 -5.5,-9.1 -0.7,-1.2 -1.3,-2.5 -1.9,-3.7 l -21.3,0 c 0.1,1.2 0.2,2.3 0.4,3.5 0.4,3.1 0.6,6.2 0.3,9.3 l 28,0 z"
   id="path15"
   inkscape:connector-curvature="0"
   style="fill:none;stroke:#ff0000;stroke-opacity:1;stroke-width:0.07201111;stroke-miterlimit:7;stroke-dasharray:none" />
		<path
   class="st0"
   d="m 328.3,295.9 c -0.6,-4.3 -0.7,-8.5 -0.1,-12.8 l -11.8,0 c -1.6,4.1 -2.8,8.3 -3.5,12.8 l 15.4,0 z"
   id="path17"
   inkscape:connector-curvature="0"
   style="fill:none;stroke:#ff0000;stroke-opacity:1;stroke-width:0.07201111;stroke-miterlimit:7;stroke-dasharray:none" />
		<path
   class="st0"
   d="m 249.5,250.7 c 0.9,-4.3 2,-8.6 3.5,-12.8 l -61.5,0 c -1.1,0.9 -2.2,1.7 -3.3,2.6 -4.3,3.4 -8.7,6.8 -13.1,10.2 l 74.4,0 z"
   id="path19"
   inkscape:connector-curvature="0"
   style="fill:none;stroke:#ff0000;stroke-opacity:1;stroke-width:0.07201111;stroke-miterlimit:7;stroke-dasharray:none" />
		<path
   class="st0"
   d="m 160.4,311 57.2,0 c -0.6,-4.2 -1,-8.5 -1.1,-12.8 l -41.3,0 c -4.9,4.3 -9.9,8.6 -14.8,12.8 z"
   id="path21"
   inkscape:connector-curvature="0"
   style="fill:none;stroke:#ff0000;stroke-opacity:1;stroke-width:0.07201111;stroke-miterlimit:7;stroke-dasharray:none" />
		<path
   class="st0"
   d="m 254.1,386.7 c -3.2,-4.2 -6.3,-8.5 -9.2,-12.8 l -47.3,0 c -0.7,1.5 -1.6,2.9 -2.6,4.1 -2.4,2.8 -4.6,5.7 -6.8,8.7 l 65.9,0 z"
   id="path23"
   inkscape:connector-curvature="0"
   style="fill:none;stroke:#ff0000;stroke-opacity:1;stroke-width:0.07201111;stroke-miterlimit:7;stroke-dasharray:none" />
		<path
   class="st0"
   d="m 710.7,340.2 c -0.3,-2.6 -0.6,-5.2 -0.8,-7.8 -0.1,-1.3 -0.2,-2.7 -0.3,-4 l -9.1,0 c 3.2,4 6.5,8 10.2,11.8 z"
   id="path25"
   inkscape:connector-curvature="0"
   style="fill:none;stroke:#ff0000;stroke-opacity:1;stroke-width:0.07201111;stroke-miterlimit:7;stroke-dasharray:none" />
		<path
   class="st0"
   d="m 711.3,313.3 -20.4,0 c 0.3,0.7 0.6,1.5 0.9,2.2 1.8,3.9 4.2,7.3 6.8,10.6 l 10.8,0 c -0.1,-3.1 0,-6.3 0.6,-9.4 0.2,-1.2 0.5,-2.5 1.3,-3.4 z"
   id="path27"
   inkscape:connector-curvature="0"
   style="fill:none;stroke:#ff0000;stroke-opacity:1;stroke-width:0.07201111;stroke-miterlimit:7;stroke-dasharray:none" />
		<path
   class="st0"
   d="m 569.1,350.8 c 0,-2.5 0.1,-4.8 0.4,-7.1 l -63.2,0 c 3.4,5.1 7.7,9.3 12.4,12.9 l 76.3,0 c 0,-0.6 0.1,-1.2 0.1,-1.8 0,-2.2 1.1,-2.5 2.9,-2 0.2,0.1 0.4,0.1 0.5,0.1 1.6,0.5 3.6,1.2 4.1,2.7 0.1,0.4 0,0.7 -0.3,1 l 77.3,0 c -4.2,-0.5 -8.4,-1.1 -12.6,-1.7 -14.3,-2.3 -28.1,-6 -41.3,-11.1 l -47.2,0 c -3.4,2 -5.8,5.1 -9.4,7 z"
   id="path29"
   inkscape:connector-curvature="0"
   style="fill:none;stroke:#ff0000;stroke-opacity:1;stroke-width:0.07201111;stroke-miterlimit:7;stroke-dasharray:none" />
		<path
   class="st0"
   d="m 499.3,238.1 c 2.8,2.9 6.2,5 10.1,5.8 10.8,2.1 21.8,3 32.8,2.2 3.2,-0.2 6.4,-0.3 9.9,-1.4 -6.4,-3.2 -12.8,-5.2 -19.3,-6.9 l -33.8,0 c 0.1,0.1 0.2,0.2 0.3,0.3 z"
   id="path31"
   inkscape:connector-curvature="0"
   style="fill:none;stroke:#ff0000;stroke-opacity:1;stroke-width:0.07201111;stroke-miterlimit:7;stroke-dasharray:none" />
		<path
   class="st0"
   d="m 395.7,401.6 c 0.1,0.1 0.1,0.2 0.2,0.3 l 35.8,0 c -4.8,-2.2 -9.4,-4.8 -14,-7.6 -2.6,-1.6 -5.2,-3.4 -7.8,-5.2 l -23.5,0 c 2.8,4.3 6.1,8.4 9.3,12.5 z"
   id="path33"
   inkscape:connector-curvature="0"
   style="fill:none;stroke:#ff0000;stroke-opacity:1;stroke-width:0.07201111;stroke-miterlimit:7;stroke-dasharray:none" />
		<path
   class="st0"
   d="m 553.5,389.1 c -2,2.6 -4.9,3.5 -7.8,4.4 -11.9,3.8 -24.2,6 -36.5,8.3 l 61.4,0 c -6.3,-3.1 -12.3,-6.9 -17.1,-12.7 z"
   id="path35"
   inkscape:connector-curvature="0"
   style="fill:none;stroke:#ff0000;stroke-opacity:1;stroke-width:0.07201111;stroke-miterlimit:7;stroke-dasharray:none" />
		<path
   class="st0"
   d="m 484.2,367.4 c 2.6,1.7 5.3,3.1 8,4.3 l 28.4,0 c -0.2,-0.2 -0.3,-0.3 -0.5,-0.5 -4.2,-3.7 -8.3,-7.7 -11.5,-12.3 l -35.6,0 c 3.4,3 7.2,5.8 11.2,8.5 z"
   id="path37"
   inkscape:connector-curvature="0"
   style="fill:none;stroke:#ff0000;stroke-opacity:1;stroke-width:0.07201111;stroke-miterlimit:7;stroke-dasharray:none" />
		<path
   class="st0"
   d="m 471.5,408.9 c -1.9,0.4 -4.2,0.3 -5.5,2.3 -0.4,0.6 -1.2,0.1 -1.9,0 -9.6,-1 -18.6,-3.5 -27.2,-7 l -39.1,0 c 3.4,4.2 6.8,8.4 10,12.8 l 205.4,0 c -12.4,-4.2 -25.1,-7.4 -37.1,-12.6 -0.1,-0.1 -0.2,-0.1 -0.4,-0.2 l -78.8,0 c -8.5,1.5 -16.9,3 -25.4,4.7 z"
   id="path39"
   inkscape:connector-curvature="0"
   style="fill:none;stroke:#ff0000;stroke-opacity:1;stroke-width:0.07201111;stroke-miterlimit:7;stroke-dasharray:none" />
		<path
   class="st0"
   d="m 550.4,373.9 c 11.9,5 24.3,9 36.7,12.8 l 69.6,0 c 0,-4.1 0,-8.1 0,-12 0,-0.3 0,-0.6 0.1,-0.8 l -17.2,0 c -3.7,6.3 -4.3,6.7 -7.6,7.8 1.6,-2.6 2.2,-5.2 2.4,-7.8 l -84,0 z"
   id="path41"
   inkscape:connector-curvature="0"
   style="fill:none;stroke:#ff0000;stroke-opacity:1;stroke-width:0.07201111;stroke-miterlimit:7;stroke-dasharray:none" />
		<path
   class="st0"
   d="m 425.6,237.9 -48.8,0 c -3.6,1.2 -7.2,2.5 -10.8,4 -5.8,2.4 -11.4,5.2 -16.6,8.8 l 83.2,0 c -2.3,-4.3 -4.6,-8.6 -7,-12.8 z"
   id="path43"
   inkscape:connector-curvature="0"
   style="fill:none;stroke:#ff0000;stroke-opacity:1;stroke-width:0.07201111;stroke-miterlimit:7;stroke-dasharray:none" />
		<path
   class="st0"
   d="m 451.6,302.7 c -0.2,2.8 -0.3,5.5 -0.3,8.3 l 21,0 c -1.2,-2.2 -2.5,-4.4 -3.9,-6.4 -1.4,-2 -2.5,-4.2 -3.3,-6.4 l -13.1,0 c -0.2,1.5 -0.3,3 -0.4,4.5 z"
   id="path45"
   inkscape:connector-curvature="0"
   style="fill:none;stroke:#ff0000;stroke-opacity:1;stroke-width:0.07201111;stroke-miterlimit:7;stroke-dasharray:none" />
		<path
   class="st0"
   d="m 458.5,268.1 c -1.2,4.3 -2.4,8.6 -3.4,12.8 l 7.2,0 c -0.5,-4.3 -1,-8.5 -1.5,-12.8 l -2.3,0 z"
   id="path47"
   inkscape:connector-curvature="0"
   style="fill:none;stroke:#ff0000;stroke-opacity:1;stroke-width:0.07201111;stroke-miterlimit:7;stroke-dasharray:none" />
		<path
   class="st0"
   d="m 452.3,295.9 12.1,0 c -0.7,-2.6 -1.1,-5.4 -1.4,-8.2 -0.1,-1.5 -0.3,-3.1 -0.4,-4.6 l -8,0 c -1,4.3 -1.8,8.6 -2.3,12.8 z"
   id="path49"
   inkscape:connector-curvature="0"
   style="fill:none;stroke:#ff0000;stroke-opacity:1;stroke-width:0.07201111;stroke-miterlimit:7;stroke-dasharray:none" />
		<path
   class="st0"
   d="m 459.1,265.8 1.4,0 c -0.1,-0.7 -0.3,-1.4 -0.6,-2.7 -0.2,0.8 -0.5,1.7 -0.8,2.7 z"
   id="path51"
   inkscape:connector-curvature="0"
   style="fill:none;stroke:#ff0000;stroke-opacity:1;stroke-width:0.07201111;stroke-miterlimit:7;stroke-dasharray:none" />
		<path
   class="st0"
   d="m 445.1,233.6 c 0,0 0,0 0,0 0,0 0,0 0,0 -0.1,0.1 -0.2,0.2 -0.3,0.3 0.4,0.5 0.8,1.1 1.3,1.6 l 4.3,0 c -1.8,-0.6 -3.6,-1.2 -5.3,-1.9 z"
   id="path53"
   inkscape:connector-curvature="0"
   style="fill:none;stroke:#ff0000;stroke-opacity:1;stroke-width:0.07201111;stroke-miterlimit:7;stroke-dasharray:none" />
		<path
   class="st0"
   d="m 357.3,207.5 -18.7,0 c 2.6,4.8 6.3,9.1 10.7,12.8 l 8.3,0 c -0.3,-4.3 -0.4,-8.6 -0.3,-12.8 z"
   id="path55"
   inkscape:connector-curvature="0"
   style="fill:none;stroke:#ff0000;stroke-opacity:1;stroke-width:0.07201111;stroke-miterlimit:7;stroke-dasharray:none" />
		<path
   class="st0"
   d="m 432.3,257.5 c 1.1,0.2 2.3,0.7 3.1,-0.4 1,-1.2 -0.3,-2.1 -0.8,-2.9 -0.2,-0.4 -0.4,-0.8 -0.7,-1.2 l -40.6,0 c 13.1,0.4 26.1,1.8 39,4.5 z"
   id="path57"
   inkscape:connector-curvature="0"
   style="fill:none;stroke:#ff0000;stroke-opacity:1;stroke-width:0.07201111;stroke-miterlimit:7;stroke-dasharray:none" />
		<path
   class="st0"
   d="m 334.6,265.8 c 0.6,-1 1.3,-2.1 2,-3.1 1.3,-1.8 2,-3.8 1.2,-6.2 -0.4,0.2 -0.8,0.3 -1,0.5 -3.6,2.8 -6.7,5.7 -9.5,8.8 l 7.3,0 z"
   id="path59"
   inkscape:connector-curvature="0"
   style="fill:none;stroke:#ff0000;stroke-opacity:1;stroke-width:0.07201111;stroke-miterlimit:7;stroke-dasharray:none" />
		<path
   class="st0"
   d="m 349.6,256 c 9.7,-1.8 19.5,-2.8 29.3,-3.1 l -32.5,0 c -0.6,0.5 -1.1,0.9 -1.7,1.4 1.5,1.6 2.9,2.1 4.9,1.7 z"
   id="path61"
   inkscape:connector-curvature="0"
   style="fill:none;stroke:#ff0000;stroke-opacity:1;stroke-width:0.07201111;stroke-miterlimit:7;stroke-dasharray:none" />
		<path
   class="st0"
   d="m 328.6,280.9 c 0.9,-4.3 2.4,-8.5 4.7,-12.8 l -7.9,0 c -3.3,4 -5.9,8.3 -8,12.8 l 11.2,0 z"
   id="path63"
   inkscape:connector-curvature="0"
   style="fill:none;stroke:#ff0000;stroke-opacity:1;stroke-width:0.07201111;stroke-miterlimit:7;stroke-dasharray:none" />
		<path
   class="st0"
   d="m 377.3,220.3 65.2,0 c -5.1,-4.6 -10.2,-8.9 -15.6,-12.8 l -18.2,0 c 1.8,2.2 3.6,4.5 5.3,6.9 -12.5,1 -24.6,2.9 -36.7,5.9 z"
   id="path65"
   inkscape:connector-curvature="0"
   style="fill:none;stroke:#ff0000;stroke-opacity:1;stroke-width:0.07201111;stroke-miterlimit:7;stroke-dasharray:none" />
		<path
   class="st0"
   d="m 337.5,205.2 19.9,0 c 0.2,-4.3 0.8,-8.6 1.7,-12.8 l -25.2,0 c 0.6,4.7 1.8,8.9 3.6,12.8 z"
   id="path67"
   inkscape:connector-curvature="0"
   style="fill:none;stroke:#ff0000;stroke-opacity:1;stroke-width:0.07201111;stroke-miterlimit:7;stroke-dasharray:none" />
		<path
   class="st0"
   d="m 406.9,205.2 16.8,0 c -7.5,-5.1 -15.5,-9.3 -24.6,-12.2 1.9,4.7 4.8,8.5 7.8,12.2 z"
   id="path69"
   inkscape:connector-curvature="0"
   style="fill:none;stroke:#ff0000;stroke-opacity:1;stroke-width:0.07201111;stroke-miterlimit:7;stroke-dasharray:none" />
		<path
   class="st0"
   d="m 311.6,204.1 c 4.6,-4.6 9.8,-8.4 15.4,-11.7 l -15.6,0 c -0.9,1.8 -1.6,3.8 -2.2,5.8 -0.4,1.4 -0.7,2.7 -1,4.1 -0.3,1.3 0.4,2.3 1.3,2.9 l 1.2,0 c 0.4,-0.3 0.6,-0.8 0.9,-1.1 z"
   id="path71"
   inkscape:connector-curvature="0"
   style="fill:none;stroke:#ff0000;stroke-opacity:1;stroke-width:0.07201111;stroke-miterlimit:7;stroke-dasharray:none" />
		<path
   class="st0"
   d="m 390.5,233.3 c -2.3,0.8 -4.5,1.5 -6.8,2.3 l 40.6,0 c -1,-1.9 -2.1,-3.7 -3.1,-5.6 -0.9,-1.7 -0.9,-2.5 1.2,-2.7 0.5,0 0.9,-0.2 1.4,-0.3 6.9,-1.4 13.7,-2.8 21.3,-4.4 0,0 0,0 -0.1,-0.1 l -67.5,0 c 1.6,1.2 3.2,2.1 4.8,3 2.9,1.6 5.7,3.2 8.5,5 0.7,0.4 1.8,0.8 1.5,1.7 -0.1,0.6 -1.1,0.9 -1.8,1.1 z"
   id="path73"
   inkscape:connector-curvature="0"
   style="fill:none;stroke:#ff0000;stroke-opacity:1;stroke-width:0.07201111;stroke-miterlimit:7;stroke-dasharray:none" />
		<path
   class="st0"
   d="m 477.1,225.4 c 1.4,0.9 2.9,1.7 4.8,2 -0.2,-1.7 -0.7,-3.3 -1.2,-4.8 l -7.6,0 c 1.3,1 2.6,1.9 4,2.8 z"
   id="path75"
   inkscape:connector-curvature="0"
   style="fill:none;stroke:#ff0000;stroke-opacity:1;stroke-width:0.07201111;stroke-miterlimit:7;stroke-dasharray:none" />
		<path
   class="st0"
   d="m 444.5,233.5 c 0.1,0.2 0.2,0.3 0.3,0.5 0.1,-0.1 0.2,-0.2 0.3,-0.3 -0.2,-0.1 -0.4,-0.2 -0.6,-0.2 z"
   id="path77"
   inkscape:connector-curvature="0"
   style="fill:none;stroke:#ff0000;stroke-opacity:1;stroke-width:0.07201111;stroke-miterlimit:7;stroke-dasharray:none" />
		<path
   class="st0"
   d="m 357.6,224.9 c 0.8,-0.5 0.7,-1.4 0.5,-2.3 l -5.8,0 c 0.5,0.3 1,0.7 1.4,1 1.2,0.8 2.6,2.2 3.9,1.3 z"
   id="path79"
   inkscape:connector-curvature="0"
   style="fill:none;stroke:#ff0000;stroke-opacity:1;stroke-width:0.07201111;stroke-miterlimit:7;stroke-dasharray:none" />
		<path
   class="st0"
   d="m 352.7,341.4 c -3.4,-4.2 -6.8,-8.5 -10,-13 l -29.7,0 c -0.1,1.1 -0.3,2.2 -0.6,3.2 -0.7,3.2 -1.5,6.5 -2.3,9.7 l 42.6,0 z"
   id="path81"
   inkscape:connector-curvature="0"
   style="fill:none;stroke:#ff0000;stroke-opacity:1;stroke-width:0.07201111;stroke-miterlimit:7;stroke-dasharray:none" />
		<path
   class="st0"
   d="m 415.7,449.6 c -2.2,1.7 -4.4,3.6 -6.4,5.6 -2.2,2.2 -4,4.6 -5.5,7.2 l 65.3,0 c 4.2,-4.9 9.1,-9.2 14.9,-12.8 l -68.3,0 z"
   id="path83"
   inkscape:connector-curvature="0"
   style="fill:none;stroke:#ff0000;stroke-opacity:1;stroke-width:0.07201111;stroke-miterlimit:7;stroke-dasharray:none" />
		<path
   class="st0"
   d="m 645.7,404.1 c 2.2,1.3 4.3,2.8 6.4,4.4 1.6,1.3 1.8,2.1 0,3.5 -2.9,2.2 -6,3.7 -9.2,4.9 l 46.4,0 c 3.4,-1.1 6.9,-1.3 11,-0.5 1.4,0.3 2.9,0.5 4.3,0.5 l 2.7,0 c 5.2,-0.3 10.1,-2.2 14.2,-6.6 1.8,-1.9 2.2,-4 2.7,-6.2 l -78.5,0 z"
   id="path85"
   inkscape:connector-curvature="0"
   style="fill:none;stroke:#ff0000;stroke-opacity:1;stroke-width:0.07201111;stroke-miterlimit:7;stroke-dasharray:none" />
		<path
   class="st0"
   d="m 635.4,419.2 c -5.1,1.6 -10,1.4 -15.1,0 l -210.9,0 c 1.1,1.5 2.1,3.1 3.1,4.7 0.7,1.2 1.9,1.5 3,2 4.7,2.1 9.4,4.1 14.1,6.2 l 86.2,0 c 12.6,-6.3 25.9,-7.5 39.9,-5 7.5,1.3 14.9,3.1 22.3,5 l 86.6,0 c 5.9,-3.4 11.7,-7 17.2,-11.1 0.9,-0.7 1.8,-1.3 2.7,-1.8 l -49.1,0 z"
   id="path87"
   inkscape:connector-curvature="0"
   style="fill:none;stroke:#ff0000;stroke-opacity:1;stroke-width:0.07201111;stroke-miterlimit:7;stroke-dasharray:none" />
		<path
   class="st0"
   d="m 704,389 c -1.2,1.4 -2.5,2.8 -4.1,4.6 0.1,-1.6 0.3,-3.1 0.5,-4.6 l -105.5,0 c 13.4,3.8 27,7.2 40.5,10.8 2,0.5 3.9,1.2 5.7,2 l 83.6,0 c 0.1,-0.2 0.2,-0.5 0.2,-0.7 1.6,-4 3.2,-8.1 4.9,-12.1 l -25.8,0 z"
   id="path89"
   inkscape:connector-curvature="0"
   style="fill:none;stroke:#ff0000;stroke-opacity:1;stroke-width:0.07201111;stroke-miterlimit:7;stroke-dasharray:none" />
		<path
   class="st0"
   d="m 428.3,479.8 c -0.2,0.8 -0.3,1.6 -0.3,2.5 0.1,3.5 -0.3,6.9 -0.9,10.3 l 26.1,0 c 0.4,-1.2 0.8,-2.4 1.2,-3.6 1.1,-3.2 2.3,-6.2 3.7,-9.2 l -29.8,0 z"
   id="path91"
   inkscape:connector-curvature="0"
   style="fill:none;stroke:#ff0000;stroke-opacity:1;stroke-width:0.07201111;stroke-miterlimit:7;stroke-dasharray:none" />
		<path
   class="st0"
   d="m 319.9,574.2 c 12.7,4 25.5,7 38.5,9.1 l 80.8,0 c 0,-0.4 -0.1,-0.9 -0.2,-1.5 -1,-3.8 -1.9,-7.5 -3,-11.3 l -127,0 c 3.5,1.3 7.1,2.5 10.9,3.7 z"
   id="path93"
   inkscape:connector-curvature="0"
   style="fill:none;stroke:#ff0000;stroke-opacity:1;stroke-width:0.07201111;stroke-miterlimit:7;stroke-dasharray:none" />
		<path
   class="st0"
   d="m 376.3,585.6 c 7.2,0.7 14.4,1.1 21.7,1.2 11.9,0.2 23.8,-0.2 35.7,-1.2 l -57.4,0 z"
   id="path95"
   inkscape:connector-curvature="0"
   style="fill:none;stroke:#ff0000;stroke-opacity:1;stroke-width:0.07201111;stroke-miterlimit:7;stroke-dasharray:none" />
		<path
   class="st0"
   d="m 437.2,555.4 -52.5,0 c 2.2,3.2 4.5,6.4 7,9.7 -20.5,-1.2 -40.1,-4.4 -58.9,-9.7 l -58.3,0 c 9.1,4.8 18.5,9 28.2,12.8 l 132.5,0 c -0.3,-1.1 -0.7,-2.2 -1.1,-3.2 -0.3,-0.9 -0.5,-1.6 0,-2.6 1.2,-2.3 2.2,-4.7 3.1,-7 z"
   id="path97"
   inkscape:connector-curvature="0"
   style="fill:none;stroke:#ff0000;stroke-opacity:1;stroke-width:0.07201111;stroke-miterlimit:7;stroke-dasharray:none" />
		<path
   class="st0"
   d="m 405.9,525.2 c 1.5,1.4 3.1,2.7 4.7,4.1 1.8,1.5 2,2.6 0.9,4.6 -0.8,1.4 -1.5,2.7 -2.3,4.1 l 33.4,0 c 0.6,-2.6 1.2,-5.2 1.8,-7.8 0.4,-1.7 0.7,-3.3 1.1,-5 l -39.6,0 z"
   id="path99"
   inkscape:connector-curvature="0"
   style="fill:none;stroke:#ff0000;stroke-opacity:1;stroke-width:0.07201111;stroke-miterlimit:7;stroke-dasharray:none" />
		<path
   class="st0"
   d="m 718.9,356.6 25.2,0 c 0.5,-1.1 1,-2.2 1.5,-3.3 1.4,-3 1.9,-6.4 1.6,-9.6 l -25.9,0 c -0.4,4.3 -1.2,8.6 -2.4,12.9 z"
   id="path101"
   inkscape:connector-curvature="0"
   style="fill:none;stroke:#ff0000;stroke-opacity:1;stroke-width:0.07201111;stroke-miterlimit:7;stroke-dasharray:none" />
		<path
   class="st0"
   d="m 427.5,174.1 c -1.5,0.3 -2.9,0.6 -4.4,1 l 69.3,0 c 1.5,-0.7 3,-1.4 4.6,-1.9 5.3,-1.9 10.6,-2.6 15.9,0 0.6,0.3 1.2,0.6 1.7,1 0.3,0.2 0.5,0.4 1.1,0.9 l 57.2,0 c 0.8,-4.2 0.7,-8.4 -0.1,-12.5 0,-0.1 0,-0.2 -0.1,-0.3 l -105.5,0 c -12.8,5.4 -26.1,8.9 -39.7,11.8 z"
   id="path103"
   inkscape:connector-curvature="0"
   style="fill:none;stroke:#ff0000;stroke-opacity:1;stroke-width:0.07201111;stroke-miterlimit:7;stroke-dasharray:none" />
		<path
   class="st0"
   d="m 492.2,209.6 c 4,4.6 8.7,8 13.8,10.7 l 54.2,0 c -1.7,-1.9 -3.4,-3.7 -5.1,-5.6 -2.1,-2.3 -4.1,-4.7 -6,-7.2 l -15.6,0 c 1.8,1.9 3.4,3.9 4.9,6.1 -4.7,0.8 -9,0.6 -13.9,0.1 1.8,-1.9 3.3,-3.9 4,-6.2 l -37.9,0 c 0.5,0.7 1,1.4 1.6,2.1 z"
   id="path105"
   inkscape:connector-curvature="0"
   style="fill:none;stroke:#ff0000;stroke-opacity:1;stroke-width:0.07201111;stroke-miterlimit:7;stroke-dasharray:none" />
		<path
   class="st0"
   d="m 721.3,333.1 c 0.2,2.8 0.2,5.5 0.1,8.3 l 25.4,0 c -0.1,-0.3 -0.1,-0.5 -0.2,-0.8 -1.1,-4 -2,-8.1 -2.7,-12.2 l -23.1,0 c 0.2,1.6 0.4,3.1 0.5,4.7 z"
   id="path107"
   inkscape:connector-curvature="0"
   style="fill:none;stroke:#ff0000;stroke-opacity:1;stroke-width:0.07201111;stroke-miterlimit:7;stroke-dasharray:none" />
		<path
   class="st0"
   d="m 467.3,120.1 c -1.4,0.4 -2.7,0.4 -4.1,0.1 -4.6,-1 -9.3,-2.1 -13.9,-3.4 l -164,0 c -7.8,3.9 -15.5,8.2 -22.9,12.8 l 73.3,0 c 10.9,-3.1 22.2,-4.6 34,-4.1 8.6,0.3 16.9,2 25.2,4.1 l 159.3,0 c -2.9,-2.8 -6.1,-5.5 -9.5,-8 -2.7,-2 -5.6,-3.6 -8.6,-4.8 l -55.5,0 c -4.5,1 -8.9,2.1 -13.3,3.3 z"
   id="path109"
   inkscape:connector-curvature="0"
   style="fill:none;stroke:#ff0000;stroke-opacity:1;stroke-width:0.07201111;stroke-miterlimit:7;stroke-dasharray:none" />
		<path
   class="st0"
   d="m 575.5,220.3 57.8,0 c -7.6,-3.1 -15,-6.5 -22.4,-10.2 -1.6,-0.8 -3.2,-1.7 -4.9,-2.6 l -49.4,0 c 6.1,4.7 12.4,8.9 18.9,12.8 z"
   id="path111"
   inkscape:connector-curvature="0"
   style="fill:none;stroke:#ff0000;stroke-opacity:1;stroke-width:0.07201111;stroke-miterlimit:7;stroke-dasharray:none" />
		<path
   class="st0"
   d="m 697.7,272.2 c 2.5,1.4 4.9,3.1 7.1,5 1.2,1 1.4,2.1 0.9,3.5 0,0 0,0.1 0,0.1 l 33.7,0 c -0.4,-4.4 -1.1,-8.7 -4.4,-12.2 -0.2,-0.2 -0.4,-0.4 -0.6,-0.6 l -44.8,0 c 2.8,1.3 5.5,2.7 8.1,4.2 z"
   id="path113"
   inkscape:connector-curvature="0"
   style="fill:none;stroke:#ff0000;stroke-opacity:1;stroke-width:0.07201111;stroke-miterlimit:7;stroke-dasharray:none" />
		<path
   class="st0"
   d="m 602.5,234.3 c 0.9,0.4 1.9,0.9 2.9,1.3 l 68.1,0 c -0.4,-0.1 -0.8,-0.3 -1.2,-0.4 C 661.1,231 650,227 639,222.6 l -59.5,0 c 7.4,4.3 15.1,8.1 23,11.7 z"
   id="path115"
   inkscape:connector-curvature="0"
   style="fill:none;stroke:#ff0000;stroke-opacity:1;stroke-width:0.07201111;stroke-miterlimit:7;stroke-dasharray:none" />
		<path
   class="st0"
   d="m 667.5,259.2 c 5.7,2.1 11.4,4.2 17,6.6 l 47.5,0 c -4.3,-4 -9,-7.5 -14,-10.5 -1.3,-0.8 -2.7,-1.6 -4.1,-2.3 l -63.8,0 c 5.8,2 11.6,4.1 17.4,6.2 z"
   id="path117"
   inkscape:connector-curvature="0"
   style="fill:none;stroke:#ff0000;stroke-opacity:1;stroke-width:0.07201111;stroke-miterlimit:7;stroke-dasharray:none" />
		<path
   class="st0"
   d="m 572.3,177.3 -63.9,0 c -4.7,1.9 -8.9,4.6 -13.3,7 -1.4,0.7 -2.6,1.6 -3.4,2.9 -0.6,1 -1.1,2 -1.6,2.9 l 90.2,0 c -2.4,-2.1 -4.8,-4.3 -7,-6.6 -1.5,-1.5 -2,-2.8 -1.4,-4.9 0.2,-0.4 0.3,-0.8 0.4,-1.3 z"
   id="path119"
   inkscape:connector-curvature="0"
   style="fill:none;stroke:#ff0000;stroke-opacity:1;stroke-width:0.07201111;stroke-miterlimit:7;stroke-dasharray:none" />
		<path
   class="st0"
   d="m 128.4,250.7 c 2.6,-0.8 5.2,-1.5 7.9,-2.2 13.9,-3.4 27.7,-7 41.5,-10.6 l -51.9,0 c -2.1,2 -4.2,3.9 -6.3,5.9 -2.4,2.2 -4.7,4.5 -7,6.9 l 15.8,0 z"
   id="path121"
   inkscape:connector-curvature="0"
   style="fill:none;stroke:#ff0000;stroke-opacity:1;stroke-width:0.07201111;stroke-miterlimit:7;stroke-dasharray:none" />
		<path
   class="st0"
   d="m 255.2,500.8 c 3.4,-2 6.8,-4 10.1,-6 l -30.7,0 c -0.9,0.2 -1.8,0.4 -2.7,0.6 -1.2,0.3 -2.6,0.9 -3.5,0.5 -0.6,-0.2 -1.3,-0.6 -1.9,-1.1 l -29.4,0 c 3.9,4.4 8,8.7 12.2,12.8 l 34.5,0 c 4,-2.3 7.7,-4.5 11.4,-6.8 z"
   id="path123"
   inkscape:connector-curvature="0"
   style="fill:none;stroke:#ff0000;stroke-opacity:1;stroke-width:0.07201111;stroke-miterlimit:7;stroke-dasharray:none" />
		<path
   class="st0"
   d="m 118.2,253.9 c 0.9,-0.3 1.9,-0.6 2.8,-0.9 l -10.9,0 c -0.7,0.7 -1.4,1.4 -2.2,2.1 4.1,0.6 7.2,-0.2 10.3,-1.2 z"
   id="path125"
   inkscape:connector-curvature="0"
   style="fill:none;stroke:#ff0000;stroke-opacity:1;stroke-width:0.07201111;stroke-miterlimit:7;stroke-dasharray:none" />
		<path
   class="st0"
   d="m 106.1,313.3 c -1.9,2.5 -3.7,5.1 -5.3,7.8 -0.5,0.9 -1.3,1.7 -1.4,3.1 8.9,-3.3 17.2,-7.1 25.6,-10.9 l -18.9,0 z"
   id="path127"
   inkscape:connector-curvature="0"
   style="fill:none;stroke:#ff0000;stroke-opacity:1;stroke-width:0.07201111;stroke-miterlimit:7;stroke-dasharray:none" />
		<path
   class="st0"
   d="m 301.5,144.8 c 1.9,-1.2 3.8,-2.4 5.8,-3.4 6.9,-3.8 13.9,-7 21.1,-9.5 l -69.7,0 c -5.9,3.8 -11.8,7.7 -17.6,11.8 -0.5,0.4 -1.1,0.8 -1.6,1.2 l 62,0 z"
   id="path129"
   inkscape:connector-curvature="0"
   style="fill:none;stroke:#ff0000;stroke-opacity:1;stroke-width:0.07201111;stroke-miterlimit:7;stroke-dasharray:none" />
		<path
   class="st0"
   d="m 414.2,177.3 c -3.3,0.9 -6.7,1.8 -10.1,2.7 0.5,1.1 1.5,1.5 2.3,2 6.4,4.1 13.2,6.7 20.3,8.1 l 46.6,0 c 0.8,-3.2 2.3,-5.8 5.5,-7.5 3.2,-1.7 6.2,-3.5 9.3,-5.3 l -73.9,0 z"
   id="path131"
   inkscape:connector-curvature="0"
   style="fill:none;stroke:#ff0000;stroke-opacity:1;stroke-width:0.07201111;stroke-miterlimit:7;stroke-dasharray:none" />
		<path
   class="st0"
   d="m 452.4,192.4 c 0.2,0.3 0.3,0.7 0.4,1.1 1.4,4.1 3.1,8 5.1,11.7 l 16.3,0 c -0.6,-2.1 -1.1,-4.3 -1.4,-6.6 -0.3,-2.1 -0.3,-4.2 0,-6.2 l -20.4,0 z"
   id="path133"
   inkscape:connector-curvature="0"
   style="fill:none;stroke:#ff0000;stroke-opacity:1;stroke-width:0.07201111;stroke-miterlimit:7;stroke-dasharray:none" />
		<path
   class="st0"
   d="m 338.7,162.2 c -6,3 -11.2,7.2 -15.7,12.8 l 43.4,0 c 4.8,-3.3 10.1,-5.9 15.3,-8.6 2.5,-1.3 5,-2.6 7.4,-4.2 l -50.4,0 z"
   id="path135"
   inkscape:connector-curvature="0"
   style="fill:none;stroke:#ff0000;stroke-opacity:1;stroke-width:0.07201111;stroke-miterlimit:7;stroke-dasharray:none" />
		<path
   class="st0"
   d="m 153.2,341.4 c 6.3,-3.1 12.7,-5.9 19.3,-8.4 3.9,-1.4 7.9,-2.8 12.6,-3.2 -0.7,0.8 -1.1,1.2 -1.4,1.6 -3.2,3.3 -6.3,6.6 -9.4,10 l 52.2,0 c -1.9,-4.3 -3.5,-8.6 -4.9,-13 l -80.8,0 c -4.5,4.2 -9,8.5 -13.3,13 l 25.7,0 z"
   id="path137"
   inkscape:connector-curvature="0"
   style="fill:none;stroke:#ff0000;stroke-opacity:1;stroke-width:0.07201111;stroke-miterlimit:7;stroke-dasharray:none" />
		<path
   class="st0"
   d="m 166.8,295.9 c 1.5,-0.5 3.1,-1 4.6,-1.4 3.2,-0.9 6.4,-1.8 10.3,-1.9 -1.2,1.1 -1.9,1.7 -2.7,2.4 -0.4,0.3 -0.8,0.7 -1.1,1 l 38.6,0 c 0,-0.7 0,-1.4 0,-2 0,-0.8 0.1,-1.7 0.1,-2.5 0.1,-2.1 0.3,-4.3 0.7,-6.5 2.2,3.6 3.8,7.6 6.6,11 l 2.4,0 c 0.9,-4.2 1.3,-8.5 2,-12.8 l -92.9,0 c -2.7,2.4 -5.3,4.8 -7.9,7.2 -2,1.8 -3.9,3.7 -5.9,5.6 l 45.2,0 z"
   id="path139"
   inkscape:connector-curvature="0"
   style="fill:none;stroke:#ff0000;stroke-opacity:1;stroke-width:0.07201111;stroke-miterlimit:7;stroke-dasharray:none" />
		<path
   class="st0"
   d="m 256.3,477.5 c 0.5,-0.2 1,-0.5 1.6,-0.7 7.5,-3.6 15,-7.3 21.9,-12.1 l -69.7,0 c -8,4.3 -15.9,8.6 -23.9,12.7 0,0 -0.1,0.1 -0.1,0.1 l 70.2,0 z"
   id="path141"
   inkscape:connector-curvature="0"
   style="fill:none;stroke:#ff0000;stroke-opacity:1;stroke-width:0.07201111;stroke-miterlimit:7;stroke-dasharray:none" />
		<path
   class="st0"
   d="m 177.3,449.6 c -0.6,2 -1.2,4.1 -1.6,6.2 2.8,-2.4 5.6,-4.5 8.5,-6.2 l -6.9,0 z"
   id="path143"
   inkscape:connector-curvature="0"
   style="fill:none;stroke:#ff0000;stroke-opacity:1;stroke-width:0.07201111;stroke-miterlimit:7;stroke-dasharray:none" />
		<path
   class="st0"
   d="m 227.8,491 c 7.7,-4.1 15.6,-7.6 23.6,-11.2 l -66.9,0 c 0.1,0.4 0.4,0.8 0.9,1.4 3.2,3.9 6.4,7.7 9.7,11.4 l 30.3,0 c 0.2,-0.9 1.6,-1.2 2.4,-1.6 z"
   id="path145"
   inkscape:connector-curvature="0"
   style="fill:none;stroke:#ff0000;stroke-opacity:1;stroke-width:0.07201111;stroke-miterlimit:7;stroke-dasharray:none" />
		<path
   class="st0"
   d="m 154.8,434.5 c -0.6,2 -1.1,4.1 -1.2,6.5 2.5,-2.2 5,-4.4 7.5,-6.5 l -6.3,0 z"
   id="path147"
   inkscape:connector-curvature="0"
   style="fill:none;stroke:#ff0000;stroke-opacity:1;stroke-width:0.07201111;stroke-miterlimit:7;stroke-dasharray:none" />
		<path
   class="st0"
   d="m 164,432.2 c 5.9,-4.6 11.9,-8.9 18.3,-13 l -18.7,0 c -2.3,3 -4.4,6.1 -6.2,9.5 -0.6,1.1 -1.2,2.3 -1.7,3.5 l 8.3,0 z"
   id="path149"
   inkscape:connector-curvature="0"
   style="fill:none;stroke:#ff0000;stroke-opacity:1;stroke-width:0.07201111;stroke-miterlimit:7;stroke-dasharray:none" />
		<path
   class="st0"
   d="m 124.8,356.6 c 0.1,-0.1 0.2,-0.1 0.3,-0.2 7.8,-4.3 15.6,-8.7 23.5,-12.7 l -23.2,0 c -3,3.3 -6,6.8 -8.8,10.3 -0.6,0.8 -1.3,1.7 -1.8,2.5 l 10,0 z"
   id="path151"
   inkscape:connector-curvature="0"
   style="fill:none;stroke:#ff0000;stroke-opacity:1;stroke-width:0.07201111;stroke-miterlimit:7;stroke-dasharray:none" />
		<path
   class="st0"
   d="m 120.7,358.9 -6.7,0 c -0.2,1 0,2.1 0.6,3.4 2,-1.2 4,-2.3 6.1,-3.4 z"
   id="path153"
   inkscape:connector-curvature="0"
   style="fill:none;stroke:#ff0000;stroke-opacity:1;stroke-width:0.07201111;stroke-miterlimit:7;stroke-dasharray:none" />
		<path
   class="st0"
   d="m 127.8,408.2 c 0.3,-0.9 1.2,-1.1 1.9,-1.5 1.4,-0.8 2.8,-1.7 4.2,-2.5 l -5.3,0 c -0.2,0.4 -0.3,0.8 -0.5,1.3 -0.3,0.8 -1.2,1.7 -0.3,2.7 l 0,0 z m -0.1,-0.5 c 0,0.2 0.1,0.3 0.1,0.5 -0.1,-0.2 -0.2,-0.3 -0.3,-0.5 0.1,0 0.2,0 0.2,0 z"
   id="path155"
   inkscape:connector-curvature="0"
   style="fill:none;stroke:#ff0000;stroke-opacity:1;stroke-width:0.07201111;stroke-miterlimit:7;stroke-dasharray:none" />
		<path
   class="st0"
   d="m 488.5,218.5 c 0.1,0 0.2,0 0.3,0.1 0,-0.2 0,-0.5 -0.3,-0.1 z"
   id="path157"
   inkscape:connector-curvature="0"
   style="fill:none;stroke:#ff0000;stroke-opacity:1;stroke-width:0.07201111;stroke-miterlimit:7;stroke-dasharray:none" />
		<path
   class="st0"
   d="m 397.8,479.8 c -0.1,1.4 0,2.7 1,3.3 1.1,0.7 2.4,-1.7 3.5,-2.7 0.3,-0.2 0.5,-0.4 0.8,-0.6 l -5.3,0 z"
   id="path159"
   inkscape:connector-curvature="0"
   style="fill:none;stroke:#ff0000;stroke-opacity:1;stroke-width:0.07201111;stroke-miterlimit:7;stroke-dasharray:none" />
		<path
   class="st0"
   d="m 283.6,483.5 c 0,0.1 -0.1,0.2 -0.1,0.3 0.2,0 0.5,0 0.1,-0.3 z"
   id="path161"
   inkscape:connector-curvature="0"
   style="fill:none;stroke:#ff0000;stroke-opacity:1;stroke-width:0.07201111;stroke-miterlimit:7;stroke-dasharray:none" />
		<path
   class="st0"
   d="m 269.3,492.6 c 4,-2.4 8,-4.7 12,-7.1 0.8,-0.5 1.7,-0.7 2.2,-1.6 -2.2,-0.5 -4.2,0.4 -6.3,0.8 -11,2.6 -21.9,5.2 -32.9,7.8 l 25,0 z"
   id="path163"
   inkscape:connector-curvature="0"
   style="fill:none;stroke:#ff0000;stroke-opacity:1;stroke-width:0.07201111;stroke-miterlimit:7;stroke-dasharray:none" />
		<path
   class="st0"
   d="m 283.4,483.9 c 0,0 0.1,0 0,0 0.1,0 0.1,0 0,0 0.1,0 0.1,0 0,0 z"
   id="path165"
   inkscape:connector-curvature="0"
   style="fill:none;stroke:#ff0000;stroke-opacity:1;stroke-width:0.07201111;stroke-miterlimit:7;stroke-dasharray:none" />
		<path
   class="st0"
   d="m 283.4,483.9 c 0,0 0,0 0,0 0,0 0.1,0 0,0 l 0,0 z"
   id="path167"
   inkscape:connector-curvature="0"
   style="fill:none;stroke:#ff0000;stroke-opacity:1;stroke-width:0.07201111;stroke-miterlimit:7;stroke-dasharray:none" />
		<path
   class="st0"
   d="m 288.2,538 c -7.6,-3.9 -15.1,-8.1 -22.5,-12.8 l -36.8,0 c 5.5,4.5 11.2,8.8 17,12.8 l 42.3,0 z"
   id="path169"
   inkscape:connector-curvature="0"
   style="fill:none;stroke:#ff0000;stroke-opacity:1;stroke-width:0.07201111;stroke-miterlimit:7;stroke-dasharray:none" />
		<path
   class="st0"
   d="m 388.4,538 c -6.6,-3.9 -13.1,-8 -19.1,-12.8 l -2.2,0 c 2.1,4.4 4.4,8.6 6.8,12.8 l 14.5,0 z"
   id="path171"
   inkscape:connector-curvature="0"
   style="fill:none;stroke:#ff0000;stroke-opacity:1;stroke-width:0.07201111;stroke-miterlimit:7;stroke-dasharray:none" />
		<path
   class="st0"
   d="m 402.6,464.7 c -1.8,3.5 -3.2,7.3 -4.4,11.1 -0.2,0.5 -0.2,1.1 -0.3,1.6 l 8.2,0 c 8.5,-6.2 18.1,-10.1 28.3,-12.8 l -31.8,0 z"
   id="path173"
   inkscape:connector-curvature="0"
   style="fill:none;stroke:#ff0000;stroke-opacity:1;stroke-width:0.07201111;stroke-miterlimit:7;stroke-dasharray:none" />
		<path
   class="st0"
   d="m 262.2,522.9 c -6.1,-4 -12.1,-8.4 -18,-13 l -32.5,0 c 4.7,4.5 9.5,8.8 14.4,13 l 36.1,0 z"
   id="path175"
   inkscape:connector-curvature="0"
   style="fill:none;stroke:#ff0000;stroke-opacity:1;stroke-width:0.07201111;stroke-miterlimit:7;stroke-dasharray:none" />
		<path
   class="st0"
   d="m 285.2,460.6 c 2.6,-2.2 5,-4.5 6.5,-7.5 -13.8,1.3 -27.5,1.5 -41.1,2.3 -1.9,0.1 -1.9,-1 -2.1,-2.2 -0.3,-1.2 -0.4,-2.4 -0.5,-3.6 l -44.3,0 c -0.3,0.2 -0.5,0.5 -0.8,0.7 -3.7,3.4 -7.4,6.8 -10.5,11.1 4.6,-1.3 9,0 13.4,1 l 77.1,0 c 0.8,-0.6 1.6,-1.2 2.3,-1.8 z"
   id="path177"
   inkscape:connector-curvature="0"
   style="fill:none;stroke:#ff0000;stroke-opacity:1;stroke-width:0.07201111;stroke-miterlimit:7;stroke-dasharray:none" />
		<path
   class="st0"
   d="m 201,408.4 c -1.1,2 -1.7,3.3 -2.5,4.4 -0.9,1.4 -1.7,2.7 -2.6,4.1 l 63.2,0 c 0.3,-0.7 0.7,-1.3 1,-2 1.8,-3.7 2.6,-7.3 2.5,-10.8 l -87,0 c -1.6,2.2 -3.3,4.3 -5,6.4 -1.8,2.1 -3.5,4.3 -5.2,6.4 l 20.6,0 c 4.8,-2.9 9.8,-5.8 15,-8.5 z"
   id="path179"
   inkscape:connector-curvature="0"
   style="fill:none;stroke:#ff0000;stroke-opacity:1;stroke-width:0.07201111;stroke-miterlimit:7;stroke-dasharray:none" />
		<path
   class="st0"
   d="m 137.8,401.8 c 7.6,-4.4 15.3,-8.7 23.1,-12.8 l -24.6,0 c -2.5,4.1 -4.8,8.3 -6.7,12.8 l 8.2,0 z"
   id="path181"
   inkscape:connector-curvature="0"
   style="fill:none;stroke:#ff0000;stroke-opacity:1;stroke-width:0.07201111;stroke-miterlimit:7;stroke-dasharray:none" />
		<path
   class="st0"
   d="m 165.4,386.7 c 8.9,-4.5 17.9,-8.8 27,-12.8 l -45.6,0 c -3.1,4.2 -6.2,8.4 -9,12.8 l 27.6,0 z"
   id="path183"
   inkscape:connector-curvature="0"
   style="fill:none;stroke:#ff0000;stroke-opacity:1;stroke-width:0.07201111;stroke-miterlimit:7;stroke-dasharray:none" />
		<path
   class="st0"
   d="m 194.5,419.2 c -2.8,4.3 -5.6,8.6 -8.3,13 l 65.2,0 c 0.6,-1.4 1.3,-2.8 2,-4.2 1.5,-2.9 3.1,-5.8 4.6,-8.7 l -63.5,0 z"
   id="path185"
   inkscape:connector-curvature="0"
   style="fill:none;stroke:#ff0000;stroke-opacity:1;stroke-width:0.07201111;stroke-miterlimit:7;stroke-dasharray:none" />
		<path
   class="st0"
   d="m 220,435.5 c 0.3,-0.2 0.6,-0.3 0.8,0.1 0,0 -0.3,0.3 -0.5,0.4 -4.6,3.9 -9.4,7.4 -14,11.3 l 41.6,0 c 0,-4.4 1,-8.7 2.5,-12.8 l -65.7,0 c -0.7,1.1 -1.4,2.2 -2.1,3.3 -1.8,3 -3.4,6.1 -4.6,9.5 l 10.3,0 c 10.2,-5.1 20.9,-8.4 31.7,-11.8 z"
   id="path187"
   inkscape:connector-curvature="0"
   style="fill:none;stroke:#ff0000;stroke-opacity:1;stroke-width:0.07201111;stroke-miterlimit:7;stroke-dasharray:none" />
		<path
   class="st0"
   d="m 389.2,507.7 31.7,0 c -1.8,-3.2 -4.9,-4.8 -8.3,-6.3 -4.7,-2 -9.3,-4.2 -13.9,-6.5 l -18.3,0 c 2.6,4.5 5.6,8.7 8.8,12.8 z"
   id="path189"
   inkscape:connector-curvature="0"
   style="fill:none;stroke:#ff0000;stroke-opacity:1;stroke-width:0.07201111;stroke-miterlimit:7;stroke-dasharray:none" />
		<path
   class="st0"
   d="m 325.2,553.1 c -11.1,-3.5 -21.8,-7.8 -32.3,-12.8 l -43.7,0 c 6.8,4.6 13.8,8.9 21,12.8 l 55,0 z"
   id="path191"
   inkscape:connector-curvature="0"
   style="fill:none;stroke:#ff0000;stroke-opacity:1;stroke-width:0.07201111;stroke-miterlimit:7;stroke-dasharray:none" />
		<path
   class="st0"
   d="m 373.4,479.8 c 1.1,3.9 2.6,7.1 4.2,10.2 0.5,0.9 0.9,1.7 1.4,2.6 l 15.3,0 c -6.8,-3.7 -13.4,-7.9 -19.8,-12.8 l -1.1,0 z"
   id="path193"
   inkscape:connector-curvature="0"
   style="fill:none;stroke:#ff0000;stroke-opacity:1;stroke-width:0.07201111;stroke-miterlimit:7;stroke-dasharray:none" />
		<path
   class="st0"
   d="m 537.3,147.1 c 2,2.5 3.9,5 5.9,7.6 0.4,0.3 0.7,0.6 0.2,1 0,0 -0.5,-0.4 -0.7,-0.5 -7,-4.8 -14.2,-7.3 -21.5,-8 l -9.8,0 c -5.9,0.5 -11.8,2 -17.8,4.1 -7.2,2.5 -14.3,5.3 -21.1,8.6 -0.1,0 -0.2,0.1 -0.3,0.1 l 99.9,0 c -1.1,-4.6 -2.7,-8.8 -4.8,-12.8 l -30,0 z"
   id="path195"
   inkscape:connector-curvature="0"
   style="fill:none;stroke:#ff0000;stroke-opacity:1;stroke-width:0.07201111;stroke-miterlimit:7;stroke-dasharray:none" />
		<path
   class="st0"
   d="m 489.2,192.4 c -1.6,4.3 -1.8,8.6 0.1,12.8 l 17.9,0 c -2.8,-2.8 -4.6,-5.9 -5,-9.8 -0.1,-1 -0.1,-1.8 1.3,-1.8 3.6,0 7.1,0.1 11,1.4 -3.7,2.5 -5.2,5.9 -5.4,10.1 l 19.8,0 c 0.1,-0.7 0.1,-1.4 0,-2.1 0.8,0.7 1.5,1.4 2.3,2.1 l 16.3,0 c -0.5,-0.8 -1,-1.6 -1.5,-2.4 -1,-1.7 -1.9,-3.4 -1.6,-5.6 1.4,0.4 2,1.5 2.9,2.3 2.1,2 4.3,3.8 6.5,5.6 l 48.2,0 c -6.6,-3.8 -13,-8 -18.9,-12.8 l -93.9,0 z"
   id="path197"
   inkscape:connector-curvature="0"
   style="fill:none;stroke:#ff0000;stroke-opacity:1;stroke-width:0.07201111;stroke-miterlimit:7;stroke-dasharray:none" />
		<path
   class="st0"
   d="m 235.3,358.9 -76.5,0 c -3.5,4.2 -7,8.4 -10.3,12.8 l 94.8,0 c -2.8,-4.2 -5.5,-8.5 -8,-12.8 z"
   id="path199"
   inkscape:connector-curvature="0"
   style="fill:none;stroke:#ff0000;stroke-opacity:1;stroke-width:0.07201111;stroke-miterlimit:7;stroke-dasharray:none" />
		<path
   class="st0"
   d="m 610.6,237.9 c 10.9,4.6 22,8.8 33.1,12.8 l 65.9,0 c -9.7,-5 -19.9,-9 -30.1,-12.8 l -68.9,0 z"
   id="path201"
   inkscape:connector-curvature="0"
   style="fill:none;stroke:#ff0000;stroke-opacity:1;stroke-width:0.07201111;stroke-miterlimit:7;stroke-dasharray:none" />
		<path
   class="st0"
   d="m 704.7,283.1 c -1.1,2 -2.5,3.7 -3.9,5.4 -2,2.5 -4,4.9 -6.1,7.4 l 45.8,0 c -0.3,-4.3 -0.6,-8.5 -0.9,-12.8 l -34.9,0 z"
   id="path203"
   inkscape:connector-curvature="0"
   style="fill:none;stroke:#ff0000;stroke-opacity:1;stroke-width:0.07201111;stroke-miterlimit:7;stroke-dasharray:none" />
		<path
   class="st0"
   d="m 407.9,540.3 c -0.8,1.6 -1.6,3.2 -2.4,4.8 -0.8,1.6 -1.3,1.9 -3,1 -3.4,-1.9 -6.7,-3.8 -10.1,-5.8 l -17.2,0 c 0.9,1.5 1.8,3 2.7,4.6 1.7,2.8 3.4,5.5 5.2,8.2 l 55,0 c 1.5,-4.2 2.8,-8.5 3.9,-12.8 l -34.1,0 z"
   id="path205"
   inkscape:connector-curvature="0"
   style="fill:none;stroke:#ff0000;stroke-opacity:1;stroke-width:0.07201111;stroke-miterlimit:7;stroke-dasharray:none" />
		<path
   class="st0"
   d="m 692.8,298.2 c -3.2,4.1 -3.7,8.4 -2.6,12.8 l 51.5,0 c -0.4,-4.3 -0.7,-8.5 -1,-12.8 l -47.9,0 z"
   id="path207"
   inkscape:connector-curvature="0"
   style="fill:none;stroke:#ff0000;stroke-opacity:1;stroke-width:0.07201111;stroke-miterlimit:7;stroke-dasharray:none" />
		<path
   class="st0"
   d="m 307.6,107.1 c -6,2.2 -11.8,4.7 -17.6,7.4 l 151,0 c -13.7,-3.9 -27.2,-8.5 -40.7,-12.8 l -75.8,0 c -5.7,1.6 -11.3,3.4 -16.9,5.4 z"
   id="path209"
   inkscape:connector-curvature="0"
   style="fill:none;stroke:#ff0000;stroke-opacity:1;stroke-width:0.07201111;stroke-miterlimit:7;stroke-dasharray:none" />
		<path
   class="st0"
   d="m 506.3,113 c -4.8,0.2 -9.5,0.8 -14.2,1.5 l 36.7,0 c -7.2,-1.7 -14.9,-1.9 -22.5,-1.5 z"
   id="path211"
   inkscape:connector-curvature="0"
   style="fill:none;stroke:#ff0000;stroke-opacity:1;stroke-width:0.07201111;stroke-miterlimit:7;stroke-dasharray:none" />
		<path
   class="st0"
   d="m 403.5,131.9 c 9.5,2.6 18.9,5.4 28.5,7.1 2.2,0.4 2,1.2 0.9,2.5 -0.5,0.7 -1,1.4 -1.7,1.8 -0.7,0.5 -1.3,1 -1.9,1.5 l 44.9,0 c 6.9,-1.9 13.8,-3.8 20.8,-5.5 10.6,-2.6 21.3,-3.3 32.2,-2.5 1.1,0.1 2.2,0.2 3,1.2 1.8,2.3 3.5,4.5 5.3,6.8 l 30.6,0 c -2.7,-4.7 -6,-9 -9.7,-13 l -152.9,0 z"
   id="path213"
   inkscape:connector-curvature="0"
   style="fill:none;stroke:#ff0000;stroke-opacity:1;stroke-width:0.07201111;stroke-miterlimit:7;stroke-dasharray:none" />
		<path
   class="st0"
   d="m 333.5,99.4 59.5,0 c -7.6,-2.3 -15.3,-4.3 -23.5,-4.3 -12.3,0.1 -24.3,1.6 -36,4.3 z"
   id="path215"
   inkscape:connector-curvature="0"
   style="fill:none;stroke:#ff0000;stroke-opacity:1;stroke-width:0.07201111;stroke-miterlimit:7;stroke-dasharray:none" />
		<path
   class="st0"
   d="m 511.4,434.6 c 0,0 0.1,-0.1 0.1,-0.1 l -76.8,0 c 0.9,0.4 1.7,0.8 2.6,1.1 -2.1,1.9 -4.4,2.9 -6.5,4.2 -4,2.4 -8.1,4.8 -11.9,7.4 l 69.2,0 c 0.1,0 0.2,-0.1 0.3,-0.2 7.7,-3.9 15.5,-7.9 23,-12.4 z"
   id="path217"
   inkscape:connector-curvature="0"
   style="fill:none;stroke:#ff0000;stroke-opacity:1;stroke-width:0.07201111;stroke-miterlimit:7;stroke-dasharray:none" />
		<path
   class="st0"
   d="m 715,313.3 c 0.7,0.6 1.3,1.6 1.7,2.4 1.8,3.3 3,6.8 3.7,10.3 l 23.1,0 c -0.7,-4.2 -1.2,-8.5 -1.6,-12.8 l -26.9,0 z"
   id="path219"
   inkscape:connector-curvature="0"
   style="fill:none;stroke:#ff0000;stroke-opacity:1;stroke-width:0.07201111;stroke-miterlimit:7;stroke-dasharray:none" />
		<path
   class="st0"
   d="m 426.7,494.9 c -1,4.3 -2.4,8.6 -3.8,12.8 l 26.3,0 c 1,-4.3 2.1,-8.6 3.4,-12.8 l -25.9,0 z"
   id="path221"
   inkscape:connector-curvature="0"
   style="fill:none;stroke:#ff0000;stroke-opacity:1;stroke-width:0.07201111;stroke-miterlimit:7;stroke-dasharray:none" />
		<path
   class="st0"
   d="m 391.1,510 c 3.8,4.6 7.9,8.9 12.3,13 l 42.5,0 c 0.9,-4.3 1.8,-8.7 2.8,-13 l -57.6,0 z"
   id="path223"
   inkscape:connector-curvature="0"
   style="fill:none;stroke:#ff0000;stroke-opacity:1;stroke-width:0.07201111;stroke-miterlimit:7;stroke-dasharray:none" />
		<path
   class="st0"
   d="m 438.1,464.7 c -2.8,4 -5.5,8.1 -8.4,12.2 -0.1,0.2 -0.3,0.4 -0.4,0.6 l 30,0 c 2.3,-4.6 5,-8.9 8,-12.8 l -29.2,0 z"
   id="path225"
   inkscape:connector-curvature="0"
   style="fill:none;stroke:#ff0000;stroke-opacity:1;stroke-width:0.07201111;stroke-miterlimit:7;stroke-dasharray:none" />
		<path
   class="st0"
   d="m 718.2,358.9 c -0.2,0.7 -0.5,1.5 -0.8,2.2 -0.3,1 -0.4,2.3 -2.2,1.8 -6.1,-1.8 -12.3,-3 -18.5,-4 l -97.1,0 c -1.5,1.5 -3.2,2.9 -5.2,4.8 0.1,-1.8 0.3,-3.3 0.4,-4.8 l -72.9,0 c 3.2,2.2 6.6,4.2 10,6.1 4.4,2.4 8.8,4.6 13.3,6.7 l 69.1,0 c 0.2,-3.6 0.3,-6.8 0.6,-10 0.1,-1.8 1,-2.2 2.6,-1.1 1.5,1 3.2,1.9 5.1,3 -3,2.3 -4.4,5.5 -7.2,8.1 l 19.2,0 c 0,-0.4 0,-0.8 0,-1.2 0,-1.5 1.2,-1.8 2.5,-1.5 1.6,0.3 3.2,0.8 4.8,1.2 -0.3,0.5 -0.6,1 -0.9,1.5 l 96.4,0 c 1.9,-4.3 3.8,-8.5 5.7,-12.8 l -24.9,0 z"
   id="path227"
   inkscape:connector-curvature="0"
   style="fill:none;stroke:#ff0000;stroke-opacity:1;stroke-width:0.07201111;stroke-miterlimit:7;stroke-dasharray:none" />
		<path
   class="st0"
   d="m 586.8,434.5 c 3.9,1 7.8,2 11.8,2.9 13,3 26,6.1 39.5,5.9 2.8,0 5.8,0.2 8.3,-1.2 4.7,-2.6 9.4,-5 14.1,-7.6 l -73.7,0 z"
   id="path229"
   inkscape:connector-curvature="0"
   style="fill:none;stroke:#ff0000;stroke-opacity:1;stroke-width:0.07201111;stroke-miterlimit:7;stroke-dasharray:none" />
		<path
   class="st0"
   d="m 661.9,373.9 c 2.8,0.8 2.3,1.6 -0.2,5.8 -1.4,2.3 -2.9,4.7 -4.3,7 l 43.3,0 c 0.1,-1.6 0.1,-3.2 -0.2,-4.8 0,-0.2 -0.1,-0.5 0,-0.5 1.9,-1.4 3.8,-0.5 5.8,-0.3 1.2,0.2 2.2,0.7 1.6,2.3 -0.4,1.2 -1.1,2.3 -1.8,3.4 l 24.9,0 c 1.8,-4.3 3.6,-8.5 5.5,-12.8 l -74.6,0 z m 15.6,12.3 c -0.6,-2.7 -0.4,-5.1 -0.2,-7.5 0.2,-2 1.5,-2.5 3.2,-1.9 2,0.6 4,1.5 6.6,2.4 -3.5,2.5 -6.4,4.7 -9.6,7 z"
   id="path231"
   inkscape:connector-curvature="0"
   style="fill:none;stroke:#ff0000;stroke-opacity:1;stroke-width:0.07201111;stroke-miterlimit:7;stroke-dasharray:none" />
		<path
   class="st0"
   d="m 130.1,311 c 10,-4.5 19.9,-9 30.1,-12.8 l -40.9,0 c -4,4.1 -7.9,8.3 -11.5,12.8 l 22.3,0 z"
   id="path233"
   inkscape:connector-curvature="0"
   style="fill:none;stroke:#ff0000;stroke-opacity:1;stroke-width:0.07201111;stroke-miterlimit:7;stroke-dasharray:none" />
		<path
   class="st0"
   d="m 461.1,253 c 1,1.1 2,2.2 3,3.3 2.8,3.2 5.7,6.3 8.6,9.4 l 28.4,0 c -5.4,-4.2 -10.8,-8.4 -16,-12.8 l -24,0 z"
   id="path235"
   inkscape:connector-curvature="0"
   style="fill:none;stroke:#ff0000;stroke-opacity:1;stroke-width:0.07201111;stroke-miterlimit:7;stroke-dasharray:none" />
		<path
   class="st0"
   d="m 453.6,328.4 c 0.4,1.4 0.8,2.7 1.2,4.1 1.1,3.2 2.4,6.1 3.9,8.9 l 45.4,0 c 0,0 0,-0.1 0,-0.1 0.1,0.1 0.3,0.1 0.4,0.1 l 65.3,0 c 0,-0.1 0,-0.2 0.1,-0.3 0.2,-0.7 0.3,-2 1.4,-1.7 2.3,0.6 4.9,0.7 7.2,2 l 41.3,0 c -8.9,-3.7 -17.5,-8 -25.9,-13 l -140.3,0 z"
   id="path237"
   inkscape:connector-curvature="0"
   style="fill:none;stroke:#ff0000;stroke-opacity:1;stroke-width:0.07201111;stroke-miterlimit:7;stroke-dasharray:none" />
		<path
   class="st0"
   d="m 503.8,343.7 -43.8,0 c 2.9,4.8 6.4,9 10.4,12.9 l 36.8,0 c -2.3,-4 -3.8,-8.2 -3.4,-12.9 z"
   id="path239"
   inkscape:connector-curvature="0"
   style="fill:none;stroke:#ff0000;stroke-opacity:1;stroke-width:0.07201111;stroke-miterlimit:7;stroke-dasharray:none" />
		<path
   class="st0"
   d="m 262.3,401.8 c -0.6,-3.7 -2.3,-7.3 -5,-10.9 -0.5,-0.6 -1,-1.3 -1.5,-1.9 l -69.4,0 c -3.1,4.3 -6.1,8.6 -9.2,12.8 l 85.1,0 z"
   id="path241"
   inkscape:connector-curvature="0"
   style="fill:none;stroke:#ff0000;stroke-opacity:1;stroke-width:0.07201111;stroke-miterlimit:7;stroke-dasharray:none" />
		<path
   class="st0"
   d="m 475.2,316.4 c -0.6,-1 -1.2,-2 -1.7,-3 l -22.2,0 c 0.2,4.3 0.7,8.6 1.6,12.8 l 137.1,0 c -0.3,-0.2 -0.5,-0.3 -0.8,-0.5 -6.6,-4.1 -13.2,-8.2 -19.7,-12.3 l -92.5,0 c -0.6,0.9 -1.2,1.9 -1.8,3 z"
   id="path243"
   inkscape:connector-curvature="0"
   style="fill:none;stroke:#ff0000;stroke-opacity:1;stroke-width:0.07201111;stroke-miterlimit:7;stroke-dasharray:none" />
		<path
   class="st0"
   d="m 353,401.2 c 0.3,0.2 0.6,0.4 1.1,0 -0.2,-2.3 -0.9,-4.3 -2.5,-6.3 -1.7,-1.9 -3.3,-3.9 -4.9,-5.9 l -9.5,0 c 5.1,4.2 10.4,8.3 15.8,12.2 z"
   id="path245"
   inkscape:connector-curvature="0"
   style="fill:none;stroke:#ff0000;stroke-opacity:1;stroke-width:0.07201111;stroke-miterlimit:7;stroke-dasharray:none" />
		<path
   class="st0"
   d="m 484.9,283.1 c 1.2,3.5 1.5,7.1 0.6,10.8 -0.2,0.7 -0.3,1.3 -0.5,2 l 58,0 c -6.2,-4.2 -12.4,-8.5 -18.5,-12.8 l -39.6,0 z"
   id="path247"
   inkscape:connector-curvature="0"
   style="fill:none;stroke:#ff0000;stroke-opacity:1;stroke-width:0.07201111;stroke-miterlimit:7;stroke-dasharray:none" />
		<path
   class="st0"
   d="m 474.7,268.1 c 1.5,1.7 2.9,3.4 4.3,5.2 1.6,2.1 3.1,4.2 4.4,6.6 0.2,0.3 0.4,0.7 0.5,1 l 37.4,0 c -5.8,-4.2 -11.6,-8.4 -17.3,-12.8 l -29.3,0 z"
   id="path249"
   inkscape:connector-curvature="0"
   style="fill:none;stroke:#ff0000;stroke-opacity:1;stroke-width:0.07201111;stroke-miterlimit:7;stroke-dasharray:none" />
		<path
   class="st0"
   d="m 484.2,298.2 c -1.5,4.4 -3.6,8.6 -6,12.8 l 87.8,0 c -6.6,-4.2 -13.1,-8.5 -19.6,-12.8 l -62.2,0 z"
   id="path251"
   inkscape:connector-curvature="0"
   style="fill:none;stroke:#ff0000;stroke-opacity:1;stroke-width:0.07201111;stroke-miterlimit:7;stroke-dasharray:none" />
		<path
   class="st0"
   d="m 510.9,376.1 c 5.7,0.5 11.3,1.6 17.8,2.5 -2,-1.7 -3.8,-3.2 -5.4,-4.7 l -24.5,0 c 3.9,1.1 8,1.8 12.1,2.2 z"
   id="path253"
   inkscape:connector-curvature="0"
   style="fill:none;stroke:#ff0000;stroke-opacity:1;stroke-width:0.07201111;stroke-miterlimit:7;stroke-dasharray:none" />
		<path
   class="st0"
   d="m 328.7,298.2 -16,0 c -0.5,4.1 -0.6,8.4 -0.3,12.8 l 20.4,0 c -1.9,-4.2 -3.3,-8.5 -4.1,-12.8 z"
   id="path255"
   inkscape:connector-curvature="0"
   style="fill:none;stroke:#ff0000;stroke-opacity:1;stroke-width:0.07201111;stroke-miterlimit:7;stroke-dasharray:none" />
		<path
   class="st0"
   d="m 160.7,356.6 73.3,0 c -2.3,-4.2 -4.5,-8.5 -6.5,-12.9 l -55.3,0 c -3.9,4.2 -7.7,8.5 -11.5,12.9 z"
   id="path257"
   inkscape:connector-curvature="0"
   style="fill:none;stroke:#ff0000;stroke-opacity:1;stroke-width:0.07201111;stroke-miterlimit:7;stroke-dasharray:none" />
		<path
   class="st0"
   d="m 246.6,301.7 c 1,0.9 2,1.7 3.1,2.4 0.5,0.3 1,1.1 1.7,0.6 0.7,-0.4 0.3,-1.2 0.1,-1.8 -0.4,-1.5 -0.8,-3.1 -1.1,-4.6 l -7.2,0 c 1,1.2 2.1,2.3 3.4,3.4 z"
   id="path259"
   inkscape:connector-curvature="0"
   style="fill:none;stroke:#ff0000;stroke-opacity:1;stroke-width:0.07201111;stroke-miterlimit:7;stroke-dasharray:none" />
		<path
   class="st0"
   d="m 324.8,352.7 c -0.3,-0.7 -1,-1.4 -0.3,-2.5 5.7,2 11.4,4.2 17.1,6.3 l 23.1,0 c -1.8,-2.4 -3.7,-4.8 -5.6,-7.2 -1.5,-1.9 -3.1,-3.8 -4.6,-5.7 l -44.8,0 c -0.2,0.9 -0.4,1.9 -0.6,2.8 -0.6,3.5 -0.7,6.9 -0.1,10 l 17.4,0 c -0.5,-1.1 -1.1,-2.4 -1.6,-3.7 z"
   id="path261"
   inkscape:connector-curvature="0"
   style="fill:none;stroke:#ff0000;stroke-opacity:1;stroke-width:0.07201111;stroke-miterlimit:7;stroke-dasharray:none" />
		<path
   class="st0"
   d="m 385.4,367.4 c -2.3,-2.5 -4.8,-4 -8.3,-4.7 -0.1,3.1 0.3,6 1.1,8.9 l 11.2,0 c -1.3,-1.3 -2.7,-2.7 -4,-4.2 z"
   id="path263"
   inkscape:connector-curvature="0"
   style="fill:none;stroke:#ff0000;stroke-opacity:1;stroke-width:0.07201111;stroke-miterlimit:7;stroke-dasharray:none" />
		<path
   class="st0"
   d="m 369.8,364.4 c 0.2,-1.4 -0.6,-2 -1.1,-2.7 -0.7,-0.9 -1.4,-1.9 -2.1,-2.8 l -18.4,0 c 6.9,2.4 14.1,4.4 21.6,5.5 z"
   id="path265"
   inkscape:connector-curvature="0"
   style="fill:none;stroke:#ff0000;stroke-opacity:1;stroke-width:0.07201111;stroke-miterlimit:7;stroke-dasharray:none" />
		<path
   class="st0"
   d="m 344.9,386.7 c -3.3,-4.1 -6.3,-8.4 -9.2,-12.8 l -15.3,0 c 4.5,4.5 9.2,8.7 14,12.8 l 10.5,0 z"
   id="path267"
   inkscape:connector-curvature="0"
   style="fill:none;stroke:#ff0000;stroke-opacity:1;stroke-width:0.07201111;stroke-miterlimit:7;stroke-dasharray:none" />
		<path
   class="st0"
   d="m 391.7,373.9 -12.9,0 c 0.1,0.3 0.2,0.6 0.3,0.9 1.5,4.2 3.4,8.2 5.7,11.9 l 21.9,0 c -5.2,-3.9 -10.2,-8.2 -15,-12.8 z"
   id="path269"
   inkscape:connector-curvature="0"
   style="fill:none;stroke:#ff0000;stroke-opacity:1;stroke-width:0.07201111;stroke-miterlimit:7;stroke-dasharray:none" />
		<path
   class="st0"
   d="m 218,313.3 -60.2,0 c -3.1,2.7 -6.1,5.4 -9.2,8.1 -1.8,1.6 -3.5,3.1 -5.2,4.7 l 77.6,0 c -1.3,-4.2 -2.3,-8.4 -3,-12.8 z"
   id="path271"
   inkscape:connector-curvature="0"
   style="fill:none;stroke:#ff0000;stroke-opacity:1;stroke-width:0.07201111;stroke-miterlimit:7;stroke-dasharray:none" />
		<path
   class="st0"
   d="m 274.2,205.2 c 2.8,-2.6 5.9,-5.1 9.1,-7.3 0.7,-0.5 1.7,-0.7 2.1,-1.9 -12.8,2.3 -25.9,2.5 -38.6,7.7 1.6,-3.8 3.1,-7.6 4.6,-11.3 l -74,0 c -5.1,4.2 -10.2,8.5 -15.2,12.8 l 112,0 z"
   id="path273"
   inkscape:connector-curvature="0"
   style="fill:none;stroke:#ff0000;stroke-opacity:1;stroke-width:0.07201111;stroke-miterlimit:7;stroke-dasharray:none" />
		<path
   class="st0"
   d="m 261.6,220.3 c 3,-4.7 6.4,-8.9 10.2,-12.8 l -112.1,0 c -4.9,4.2 -9.8,8.5 -14.6,12.8 l 116.5,0 z"
   id="path275"
   inkscape:connector-curvature="0"
   style="fill:none;stroke:#ff0000;stroke-opacity:1;stroke-width:0.07201111;stroke-miterlimit:7;stroke-dasharray:none" />
		<path
   class="st0"
   d="m 252.5,190.1 c 2.1,-4.6 4.4,-9 7.5,-12.8 l -63.9,0 c -5.3,4.2 -10.6,8.5 -15.9,12.8 l 72.3,0 z"
   id="path277"
   inkscape:connector-curvature="0"
   style="fill:none;stroke:#ff0000;stroke-opacity:1;stroke-width:0.07201111;stroke-miterlimit:7;stroke-dasharray:none" />
		<path
   class="st0"
   d="m 186.6,235.6 c 2.3,-0.6 4.7,-1.2 7,-1.8 0.9,-0.2 1.9,-0.9 2.9,-0.2 -0.1,0.3 -0.1,0.5 -0.2,0.6 -0.6,0.5 -1.2,1 -1.8,1.5 l 59.5,0 c 1.7,-4.4 3.8,-8.7 6.3,-13 l -117.8,0 c -4.8,4.3 -9.5,8.6 -14.2,13 l 58.3,0 z"
   id="path279"
   inkscape:connector-curvature="0"
   style="fill:none;stroke:#ff0000;stroke-opacity:1;stroke-width:0.07201111;stroke-miterlimit:7;stroke-dasharray:none" />
		<path
   class="st0"
   d="m 249.1,253 -76.8,0 c -5.4,4.2 -10.9,8.5 -16.2,12.8 l 91.6,0 c 0.2,-4.4 0.7,-8.6 1.4,-12.8 z"
   id="path281"
   inkscape:connector-curvature="0"
   style="fill:none;stroke:#ff0000;stroke-opacity:1;stroke-width:0.07201111;stroke-miterlimit:7;stroke-dasharray:none" />
		<path
   class="st0"
   d="m 471.2,243.4 c -5,-1.8 -9.9,-3.7 -14.8,-5.5 l -8.5,0 c 3.6,4.4 7.4,8.6 11.2,12.8 l 23.3,0 c -1.2,-1 -2.4,-2 -3.5,-3 -2.4,-1.9 -4.9,-3.3 -7.7,-4.3 z"
   id="path283"
   inkscape:connector-curvature="0"
   style="fill:none;stroke:#ff0000;stroke-opacity:1;stroke-width:0.07201111;stroke-miterlimit:7;stroke-dasharray:none" />
		<path
   class="st0"
   d="m 241.3,295.9 8.6,0 c -0.4,-2.2 -0.8,-4.4 -1.1,-6.6 -0.3,-2.1 -0.5,-4.2 -0.7,-6.2 l -13.3,0 c 1.7,4.6 3.7,9 6.5,12.8 z"
   id="path285"
   inkscape:connector-curvature="0"
   style="fill:none;stroke:#ff0000;stroke-opacity:1;stroke-width:0.07201111;stroke-miterlimit:7;stroke-dasharray:none" />
		<path
   class="st0"
   d="m 228.6,280.9 c 0.5,-3.3 1.2,-6.5 2.3,-9.8 1.2,3.7 2.1,6.8 3.1,9.8 l 13.9,0 c -0.3,-4.3 -0.4,-8.6 -0.3,-12.8 l -94.4,0 c -5.2,4.2 -10.2,8.4 -15.2,12.8 l 90.6,0 z"
   id="path287"
   inkscape:connector-curvature="0"
   style="fill:none;stroke:#ff0000;stroke-opacity:1;stroke-width:0.07201111;stroke-miterlimit:7;stroke-dasharray:none" />
		<path
   class="st0"
   d="m 262.2,175 c 0.2,-0.2 0.4,-0.4 0.6,-0.6 4.4,-4.3 9.1,-8.4 14,-12.2 l -61.1,0 c -5.6,4.2 -11.1,8.5 -16.6,12.8 l 63.1,0 z"
   id="path289"
   inkscape:connector-curvature="0"
   style="fill:none;stroke:#ff0000;stroke-opacity:1;stroke-width:0.07201111;stroke-miterlimit:7;stroke-dasharray:none" />
		<path
   class="st0"
   d="m 488.9,218.7 c 0,0.3 -0.2,0.7 -0.1,1 0.1,0.2 0.1,0.4 0.2,0.7 l 1.6,0 c -0.5,-0.6 -1.1,-1.2 -1.7,-1.7 z"
   id="path291"
   inkscape:connector-curvature="0"
   style="fill:none;stroke:#ff0000;stroke-opacity:1;stroke-width:0.07201111;stroke-miterlimit:7;stroke-dasharray:none" />
		<path
   class="st0"
   d="m 470.3,220.3 9.6,0 c -0.3,-0.9 -0.7,-1.8 -1,-2.6 -1.3,-3.4 -2.7,-6.7 -3.9,-10.2 l -15.7,0 c 3,4.8 6.7,9.1 11,12.8 z"
   id="path293"
   inkscape:connector-curvature="0"
   style="fill:none;stroke:#ff0000;stroke-opacity:1;stroke-width:0.07201111;stroke-miterlimit:7;stroke-dasharray:none" />
		<path
   class="st0"
   d="m 279.9,159.9 c 0.3,-0.2 0.7,-0.5 1,-0.7 5.7,-4 11.3,-8.2 17.1,-12.1 l -61.7,0 c -5.9,4.2 -11.7,8.5 -17.5,12.8 l 61.1,0 z"
   id="path295"
   inkscape:connector-curvature="0"
   style="fill:none;stroke:#ff0000;stroke-opacity:1;stroke-width:0.07201111;stroke-miterlimit:7;stroke-dasharray:none" />
		<path
   class="st0"
   d="m 489.9,222.6 c 1.8,4.7 4,9.1 7.1,13 l 26.8,0 c -10.8,-2.8 -21.4,-6.1 -30.4,-13 l -3.5,0 z"
   id="path297"
   inkscape:connector-curvature="0"
   style="fill:none;stroke:#ff0000;stroke-opacity:1;stroke-width:0.07201111;stroke-miterlimit:7;stroke-dasharray:none" />
		<path
   class="st0"
   d="m 488.9,218.6 c 0,0 0,0 0,0 0,0 0,0 0,0 l 0,0 c 0,0 0,0.1 0,0 0,0 0,0 0,0 0,0 0,0 0,0 z"
   id="path299"
   inkscape:connector-curvature="0"
   style="fill:none;stroke:#ff0000;stroke-opacity:1;stroke-width:0.07201111;stroke-miterlimit:7;stroke-dasharray:none" />
		<path
   class="st0"
   d="m 427.1,147.1 c -2.3,2.6 -4.1,5.7 -6.3,8.4 -0.4,0.5 -0.7,1.1 -1,1.7 -0.4,0.9 -0.9,1.8 -0.9,2.7 l 7.3,0 c 13.2,-4.6 26.6,-8.9 40,-12.8 l -39.1,0 z"
   id="path301"
   inkscape:connector-curvature="0"
   style="fill:none;stroke:#ff0000;stroke-opacity:1;stroke-width:0.07201111;stroke-miterlimit:7;stroke-dasharray:none" />
		<path
   class="st0"
   d="m 392.3,159.9 c 1,-0.8 2.1,-1.7 3.1,-2.7 -1.1,-0.3 -1.8,-0.5 -2.6,-0.7 -13.9,-2.9 -27.6,-1.5 -41.4,1.4 -2.5,0.5 -5,1.2 -7.3,2 l 48.2,0 z"
   id="path303"
   inkscape:connector-curvature="0"
   style="fill:none;stroke:#ff0000;stroke-opacity:1;stroke-width:0.07201111;stroke-miterlimit:7;stroke-dasharray:none" />
		<path
   class="st0"
   d="m 312.5,190.1 18.6,0 c 0.2,-0.1 0.5,-0.2 0.7,-0.4 1.3,-0.7 1.7,-0.5 1.9,0.4 l 26,0 c 0.9,-3.7 2,-7.3 3.4,-10.9 0.3,-0.7 0.6,-1.3 1,-1.9 l -42.8,0 c -3.3,4.2 -6.4,8.3 -8.8,12.8 z"
   id="path305"
   inkscape:connector-curvature="0"
   style="fill:none;stroke:#ff0000;stroke-opacity:1;stroke-width:0.07201111;stroke-miterlimit:7;stroke-dasharray:none" />
	</g>
	<rect
   x="94.800003"
   y="711"
   class="st0"
   width="12.5"
   height="12.5"
   id="rect307"
   style="fill:none;stroke:#ff0000;stroke-opacity:1;stroke-width:0.07201111;stroke-miterlimit:7;stroke-dasharray:none" />
	<path
   class="st0"
   d="m 746.6,954.6 c -2.5,-9.2 -4,-18.6 -4.8,-28 -0.9,-10.5 -1.5,-21 -2.4,-31.5 -0.4,-4.5 -1,-8.8 -4.4,-12.4 -5.1,-5.3 -10.7,-9.7 -17,-13.4 -14.5,-8.6 -30.2,-14.3 -45.8,-20.1 -20.7,-7.7 -41.5,-15 -61.2,-25 -13.8,-7.1 -26.7,-15.4 -37.6,-26.5 -1.5,-1.5 -2,-2.8 -1.4,-4.9 1.6,-5.3 1.8,-10.8 0.7,-16.2 -3.6,-17.5 -14.2,-30.7 -28.1,-40.9 -11.2,-8.2 -24.8,-9.3 -38.3,-8.7 -13.3,0.6 -26.2,3.7 -39,7.1 -1.4,0.4 -2.7,0.4 -4.1,0.1 -22.2,-4.8 -43.5,-12.3 -65.1,-19.2 -9.3,-3 -18.5,-5.9 -28.5,-5.9 -21.4,0.1 -41.9,4.7 -61.9,12 -24,8.8 -45.7,21.9 -66.5,36.5 -43,30.4 -83.3,64 -121.6,100.1 -3.8,3.6 -7.4,7.3 -11.5,11.3 4,0.6 7.1,-0.2 10.2,-1.2 6,-2 11.9,-3.9 18.1,-5.4 19.1,-4.7 38.2,-9.8 57.3,-14.7 0.9,-0.2 1.9,-0.9 2.9,-0.2 -0.1,0.3 -0.1,0.5 -0.2,0.6 -2.6,2.1 -5.2,4.3 -7.9,6.4 -20.6,16.2 -41.7,31.9 -60.9,49.9 -10,9.3 -19.5,19.1 -26.7,30.8 -0.5,0.9 -1.3,1.7 -1.4,3.1 10.3,-3.8 20,-8.4 29.7,-12.8 13.9,-6.2 27.7,-12.7 42.3,-17 3.2,-0.9 6.4,-1.8 10.3,-1.9 -1.2,1.1 -1.9,1.7 -2.7,2.4 -10.2,8.8 -20.4,17.5 -30.4,26.5 -11.4,10.1 -22.6,20.5 -31.9,32.6 -1.8,2.4 -3.8,4.7 -2.1,8.2 3.5,-2 7,-3.9 10.5,-5.9 15.5,-8.5 30.8,-17.2 47.4,-23.4 3.9,-1.4 7.9,-2.8 12.6,-3.2 -0.7,0.8 -1.1,1.2 -1.4,1.6 -12.5,13.1 -24.6,26.4 -35.6,40.8 -7.8,10.3 -15.4,20.9 -20,33.2 -0.3,0.9 -1.3,1.8 -0.3,2.8 l 0,0 c 0.3,-0.9 1.2,-1.1 1.9,-1.5 21.3,-12.8 43.1,-24.4 66,-34.1 0.8,-0.3 1.6,-1 2.6,-0.6 -0.8,2.3 -2,4.4 -3.5,6.2 -8.7,10.4 -15.8,22 -24.4,32.5 -4.8,5.8 -9.7,11.5 -13.2,18.2 -1.9,3.6 -3.5,7.4 -3.7,12.2 14.4,-13 30,-23.4 47.4,-32.5 -1.1,2 -1.7,3.3 -2.5,4.4 -5.3,8.3 -10.7,16.6 -15.9,25 -3.3,5.4 -5.7,11.3 -7.1,18 3.5,-3 7,-5.5 10.7,-7.5 10.7,-5.7 22.2,-9.2 33.6,-12.8 0.3,-0.2 0.6,-0.3 0.8,0.1 0,0 -0.3,0.3 -0.5,0.4 -5.7,4.8 -11.9,9.2 -17.4,14.3 -3.7,3.4 -7.4,6.8 -10.5,11.1 6.9,-2 13.2,2 19.9,1.8 -0.5,0.5 -1,0.8 -1.6,1.1 -8.2,4.4 -16.4,8.8 -24.6,13.1 -2,1 -2.5,1.7 -0.9,3.7 8.1,9.9 16.6,19.4 25.8,28.3 31.2,30.1 67.3,51.8 108.7,64.7 25.4,8 51.5,12.1 78.2,12.6 12.7,0.2 25.4,-0.3 38,-1.4 2.5,-0.2 3.6,-0.6 2.8,-3.6 -1.5,-5.6 -2.8,-11.3 -4.8,-16.8 -0.3,-0.9 -0.5,-1.6 0,-2.6 5.2,-10.1 7.8,-21.1 10.2,-32.1 3,-13.9 5.5,-27.8 10.2,-41.3 6.3,-18 16.7,-32.7 34,-41.8 7.7,-4.1 15.5,-8 23,-12.6 13.8,-8.4 28.5,-10.2 44.2,-7.4 14.6,2.6 28.7,6.9 43,10.2 13,3 26,6.1 39.5,5.9 2.8,0 5.8,0.2 8.3,-1.2 12,-6.6 24.4,-12.7 35.3,-21 5.8,-4.4 11.2,-6.1 18.5,-4.7 7.7,1.5 15.3,0.3 21.3,-6.1 2.6,-2.7 2.3,-6.2 3.5,-9.2 6.3,-16.2 13.4,-32.1 20.6,-47.8 2.1,-4.1 2.4,-8.7 1.3,-12.8 z m -619.1,67.1 c 0.1,0 0.2,0 0.2,0 0,0.2 0.1,0.3 0.1,0.5 -0.1,-0.2 -0.2,-0.3 -0.3,-0.5 z M 444.8,848 c 0.1,-0.1 0.2,-0.2 0.3,-0.3 0,0 0,0 0,0 -0.1,0 -0.2,0.1 -0.3,0.3 z"
   id="path309"
   inkscape:connector-curvature="0"
   style="fill:none;stroke:#ff0000;stroke-opacity:1;stroke-width:0.07201111;stroke-miterlimit:7;stroke-dasharray:none" />
</g>
<rect
   class="st1"
   width="1052.4626"
   height="1619.7502"
   id="rect311"
   x="0.12490363"
   y="0.12496466"
   style="fill:none;stroke:#ff0000;stroke-width:0.09;stroke-miterlimit:7;stroke-opacity:1;stroke-dasharray:none" />
</svg>